<svg width="264" height="264" viewBox="0 0 264 264" fill="none" xmlns="http://www.w3.org/2000/svg">
<g opacity="0.8" clip-path="url(#clip0_15:469)">
<rect width="264" height="264" fill="black"/>
<path fill-rule="evenodd" clip-rule="evenodd" d="M207.424 132C207.424 173.655 173.655 207.424 132 207.424C90.3447 207.424 56.5764 173.655 56.5764 132C56.5764 90.3447 90.3447 56.5764 132 56.5764C173.655 56.5764 207.424 90.3447 207.424 132ZM211.424 132C211.424 175.864 175.864 211.424 132 211.424C88.1356 211.424 52.5764 175.864 52.5764 132C52.5764 88.1356 88.1356 52.5764 132 52.5764C175.864 52.5764 211.424 88.1356 211.424 132ZM147.66 132C147.66 140.649 140.649 147.66 132 147.66C123.351 147.66 116.34 140.649 116.34 132C116.34 123.351 123.351 116.34 132 116.34C140.649 116.34 147.66 123.351 147.66 132ZM195.66 132C195.66 167.158 167.158 195.66 132 195.66C96.8418 195.66 68.3405 167.158 68.3405 132C68.3405 96.8418 96.8418 68.3405 132 68.3405C167.158 68.3405 195.66 96.8418 195.66 132Z" fill="white"/>
<path d="M115.212 261.394C115.859 260.747 115.859 259.698 115.212 259.05C114.565 258.403 113.516 258.403 112.869 259.05C112.222 259.698 112.222 260.747 112.869 261.394C113.516 262.041 114.565 262.041 115.212 261.394Z" fill="black"/>
<path d="M122.173 268.354C122.835 267.692 122.835 266.618 122.173 265.956C121.51 265.293 120.436 265.293 119.774 265.956C119.112 266.618 119.112 267.692 119.774 268.354C120.436 269.017 121.51 269.017 122.173 268.354Z" fill="black"/>
<path d="M129.133 275.315C129.811 274.637 129.811 273.538 129.133 272.861C128.456 272.183 127.357 272.183 126.679 272.861C126.001 273.538 126.001 274.637 126.679 275.315C127.357 275.992 128.456 275.992 129.133 275.315Z" fill="black"/>
<path d="M136.066 282.248C136.744 281.57 136.744 280.471 136.066 279.793C135.388 279.116 134.29 279.116 133.612 279.793C132.934 280.471 132.934 281.57 133.612 282.248C134.29 282.925 135.388 282.925 136.066 282.248Z" fill="black"/>
<path d="M142.971 289.153C143.633 288.49 143.633 287.416 142.971 286.754C142.309 286.091 141.235 286.091 140.572 286.754C139.91 287.416 139.91 288.49 140.572 289.153C141.235 289.815 142.309 289.815 142.971 289.153Z" fill="black"/>
<path d="M149.876 296.058C150.523 295.411 150.523 294.361 149.876 293.714C149.229 293.067 148.18 293.067 147.533 293.714C146.886 294.361 146.886 295.411 147.533 296.058C148.18 296.705 149.229 296.705 149.876 296.058Z" fill="black"/>
<path d="M101.43 233.746C102.123 233.053 102.123 231.929 101.43 231.236C100.737 230.543 99.6132 230.543 98.9202 231.236C98.2271 231.929 98.2271 233.053 98.9202 233.746C99.6132 234.439 100.737 234.439 101.43 233.746Z" fill="black"/>
<path d="M108.418 240.734C109.142 240.01 109.142 238.837 108.418 238.113C107.694 237.39 106.521 237.39 105.797 238.113C105.074 238.837 105.074 240.01 105.797 240.734C106.521 241.458 107.694 241.458 108.418 240.734Z" fill="black"/>
<path d="M115.406 247.722C116.161 246.968 116.161 245.745 115.406 244.991C114.652 244.237 113.429 244.237 112.675 244.991C111.921 245.745 111.921 246.968 112.675 247.722C113.429 248.477 114.652 248.477 115.406 247.722Z" fill="black"/>
<path d="M122.395 254.711C123.179 253.926 123.179 252.653 122.395 251.868C121.61 251.083 120.337 251.083 119.552 251.868C118.767 252.653 118.767 253.926 119.552 254.711C120.337 255.495 121.61 255.495 122.395 254.711Z" fill="black"/>
<path d="M129.383 261.699C130.198 260.883 130.198 259.561 129.383 258.745C128.567 257.93 127.245 257.93 126.429 258.745C125.614 259.561 125.614 260.883 126.429 261.699C127.245 262.514 128.567 262.514 129.383 261.699Z" fill="black"/>
<path d="M136.371 268.687C137.217 267.841 137.217 266.469 136.371 265.623C135.525 264.777 134.153 264.777 133.307 265.623C132.461 266.469 132.461 267.841 133.307 268.687C134.153 269.533 135.525 269.533 136.371 268.687Z" fill="black"/>
<path d="M143.304 275.62C144.15 274.774 144.15 273.402 143.304 272.556C142.458 271.709 141.086 271.709 140.24 272.556C139.393 273.402 139.393 274.774 140.24 275.62C141.086 276.466 142.458 276.466 143.304 275.62Z" fill="black"/>
<path d="M150.181 282.497C150.997 281.682 150.997 280.359 150.181 279.544C149.366 278.728 148.043 278.728 147.228 279.544C146.412 280.359 146.412 281.682 147.228 282.497C148.043 283.313 149.366 283.313 150.181 282.497Z" fill="black"/>
<path d="M157.058 289.374C157.843 288.59 157.843 287.317 157.058 286.532C156.274 285.747 155.001 285.747 154.216 286.532C153.431 287.317 153.431 288.59 154.216 289.374C155.001 290.159 156.274 290.159 157.058 289.374Z" fill="black"/>
<path d="M163.936 296.252C164.69 295.498 164.69 294.275 163.936 293.52C163.182 292.766 161.959 292.766 161.204 293.52C160.45 294.275 160.45 295.498 161.204 296.252C161.959 297.006 163.182 297.006 163.936 296.252Z" fill="black"/>
<path d="M170.813 303.129C171.537 302.405 171.537 301.232 170.813 300.509C170.089 299.785 168.916 299.785 168.193 300.509C167.469 301.232 167.469 302.405 168.193 303.129C168.916 303.853 170.089 303.853 170.813 303.129Z" fill="black"/>
<path d="M177.69 310.006C178.383 309.313 178.383 308.19 177.69 307.497C176.997 306.804 175.874 306.804 175.181 307.497C174.488 308.19 174.488 309.313 175.181 310.006C175.874 310.699 176.997 310.699 177.69 310.006Z" fill="black"/>
<path d="M101.513 219.963C102.252 219.224 102.252 218.026 101.513 217.287C100.774 216.548 99.5759 216.548 98.837 217.287C98.098 218.026 98.098 219.224 98.837 219.963C99.5759 220.702 100.774 220.702 101.513 219.963Z" fill="black"/>
<path d="M108.529 226.979C109.314 226.195 109.314 224.922 108.529 224.137C107.744 223.352 106.471 223.352 105.687 224.137C104.902 224.922 104.902 226.195 105.687 226.979C106.471 227.764 107.744 227.764 108.529 226.979Z" fill="black"/>
<path d="M115.545 233.995C116.376 233.165 116.376 231.817 115.545 230.987C114.714 230.156 113.367 230.156 112.536 230.987C111.705 231.817 111.705 233.165 112.536 233.995C113.367 234.826 114.714 234.826 115.545 233.995Z" fill="black"/>
<path d="M122.561 241.011C123.438 240.135 123.438 238.713 122.561 237.836C121.684 236.959 120.263 236.959 119.386 237.836C118.509 238.713 118.509 240.135 119.386 241.011C120.263 241.888 121.684 241.888 122.561 241.011Z" fill="black"/>
<path d="M129.577 248.027C130.5 247.105 130.5 245.609 129.577 244.686C128.654 243.763 127.158 243.763 126.235 244.686C125.313 245.609 125.313 247.105 126.235 248.027C127.158 248.95 128.654 248.95 129.577 248.027Z" fill="black"/>
<path d="M136.593 255.043C137.562 254.075 137.562 252.504 136.593 251.535C135.624 250.567 134.054 250.567 133.085 251.535C132.116 252.504 132.116 254.075 133.085 255.043C134.054 256.012 135.624 256.012 136.593 255.043Z" fill="black"/>
<path d="M143.609 262.059C144.624 261.045 144.624 259.4 143.609 258.385C142.594 257.37 140.949 257.37 139.935 258.385C138.92 259.4 138.92 261.045 139.935 262.059C140.949 263.074 142.594 263.074 143.609 262.059Z" fill="black"/>
<path d="M150.542 268.992C151.556 267.977 151.556 266.332 150.542 265.318C149.527 264.303 147.882 264.303 146.867 265.318C145.853 266.332 145.853 267.977 146.867 268.992C147.882 270.007 149.527 270.007 150.542 268.992Z" fill="black"/>
<path d="M157.391 275.842C158.36 274.873 158.36 273.302 157.391 272.334C156.423 271.365 154.852 271.365 153.883 272.334C152.915 273.302 152.915 274.873 153.883 275.842C154.852 276.81 156.423 276.81 157.391 275.842Z" fill="black"/>
<path d="M164.241 282.691C165.164 281.769 165.164 280.272 164.241 279.35C163.318 278.427 161.822 278.427 160.899 279.35C159.976 280.272 159.976 281.769 160.899 282.691C161.822 283.614 163.318 283.614 164.241 282.691Z" fill="black"/>
<path d="M171.09 289.541C171.967 288.664 171.967 287.242 171.09 286.366C170.214 285.489 168.792 285.489 167.915 286.366C167.038 287.242 167.038 288.664 167.915 289.541C168.792 290.418 170.214 290.418 171.09 289.541Z" fill="black"/>
<path d="M177.94 296.39C178.771 295.56 178.771 294.212 177.94 293.382C177.109 292.551 175.762 292.551 174.931 293.382C174.1 294.212 174.1 295.56 174.931 296.39C175.762 297.221 177.109 297.221 177.94 296.39Z" fill="black"/>
<path d="M184.79 303.24C185.575 302.455 185.575 301.183 184.79 300.398C184.005 299.613 182.732 299.613 181.947 300.398C181.162 301.183 181.162 302.455 181.947 303.24C182.732 304.025 184.005 304.025 184.79 303.24Z" fill="black"/>
<path d="M191.639 310.09C192.378 309.351 192.378 308.153 191.639 307.414C190.9 306.675 189.702 306.675 188.963 307.414C188.224 308.153 188.224 309.351 188.963 310.09C189.702 310.829 190.9 310.829 191.639 310.09Z" fill="black"/>
<path d="M101.541 206.126C102.295 205.371 102.295 204.148 101.541 203.394C100.786 202.64 99.5635 202.64 98.8092 203.394C98.055 204.148 98.055 205.371 98.8092 206.126C99.5635 206.88 100.786 206.88 101.541 206.126Z" fill="black"/>
<path d="M108.584 213.169C109.4 212.354 109.4 211.032 108.584 210.216C107.769 209.4 106.447 209.4 105.631 210.216C104.816 211.032 104.816 212.354 105.631 213.169C106.447 213.985 107.769 213.985 108.584 213.169Z" fill="black"/>
<path d="M115.628 220.213C116.505 219.336 116.505 217.915 115.628 217.038C114.751 216.161 113.33 216.161 112.453 217.038C111.576 217.915 111.576 219.336 112.453 220.213C113.33 221.09 114.751 221.09 115.628 220.213Z" fill="black"/>
<path d="M122.672 227.257C123.61 226.319 123.61 224.798 122.672 223.86C121.734 222.922 120.213 222.922 119.275 223.86C118.337 224.798 118.337 226.319 119.275 227.257C120.213 228.195 121.734 228.195 122.672 227.257Z" fill="black"/>
<path d="M129.716 234.3C130.715 233.301 130.715 231.681 129.716 230.682C128.716 229.682 127.096 229.682 126.097 230.682C125.097 231.681 125.097 233.301 126.097 234.3C127.096 235.3 128.716 235.3 129.716 234.3Z" fill="black"/>
<path d="M136.759 241.344C137.82 240.284 137.82 238.564 136.759 237.503C135.699 236.443 133.979 236.443 132.919 237.503C131.858 238.564 131.858 240.284 132.919 241.344C133.979 242.405 135.699 242.405 136.759 241.344Z" fill="black"/>
<path d="M143.803 248.388C144.925 247.266 144.925 245.447 143.803 244.325C142.681 243.203 140.862 243.203 139.74 244.325C138.619 245.447 138.619 247.266 139.74 248.388C140.862 249.51 142.681 249.51 143.803 248.388Z" fill="black"/>
<path d="M150.847 255.432C152.03 254.248 152.03 252.33 150.847 251.147C149.664 249.964 147.745 249.964 146.562 251.147C145.379 252.33 145.379 254.248 146.562 255.432C147.745 256.615 149.664 256.615 150.847 255.432Z" fill="black"/>
<path d="M157.779 262.364C158.963 261.181 158.963 259.263 157.779 258.08C156.596 256.897 154.678 256.897 153.495 258.08C152.312 259.263 152.312 261.181 153.495 262.364C154.678 263.547 156.596 263.547 157.779 262.364Z" fill="black"/>
<path d="M164.601 269.186C165.723 268.064 165.723 266.245 164.601 265.124C163.479 264.002 161.661 264.002 160.539 265.124C159.417 266.245 159.417 268.064 160.539 269.186C161.661 270.308 163.479 270.308 164.601 269.186Z" fill="black"/>
<path d="M171.423 276.008C172.484 274.947 172.484 273.228 171.423 272.167C170.363 271.107 168.643 271.107 167.582 272.167C166.522 273.228 166.522 274.947 167.582 276.008C168.643 277.069 170.363 277.069 171.423 276.008Z" fill="black"/>
<path d="M178.245 282.83C179.244 281.831 179.244 280.21 178.245 279.211C177.246 278.212 175.625 278.212 174.626 279.211C173.627 280.21 173.627 281.831 174.626 282.83C175.625 283.829 177.246 283.829 178.245 282.83Z" fill="black"/>
<path d="M185.067 289.652C186.005 288.714 186.005 287.193 185.067 286.255C184.129 285.317 182.608 285.317 181.67 286.255C180.732 287.193 180.732 288.714 181.67 289.652C182.608 290.59 184.129 290.59 185.067 289.652Z" fill="black"/>
<path d="M191.889 296.474C192.766 295.597 192.766 294.175 191.889 293.298C191.012 292.422 189.59 292.422 188.714 293.298C187.837 294.175 187.837 295.597 188.714 296.474C189.59 297.35 191.012 297.35 191.889 296.474Z" fill="black"/>
<path d="M198.711 303.295C199.526 302.48 199.526 301.158 198.711 300.342C197.895 299.527 196.573 299.527 195.757 300.342C194.942 301.158 194.942 302.48 195.757 303.295C196.573 304.111 197.895 304.111 198.711 303.295Z" fill="black"/>
<path d="M205.532 310.117C206.287 309.363 206.287 308.14 205.532 307.386C204.778 306.632 203.555 306.632 202.801 307.386C202.047 308.14 202.047 309.363 202.801 310.117C203.555 310.872 204.778 310.872 205.532 310.117Z" fill="black"/>
<path d="M101.513 192.232C102.252 191.493 102.252 190.295 101.513 189.556C100.774 188.817 99.5759 188.817 98.837 189.556C98.098 190.295 98.098 191.493 98.837 192.232C99.5759 192.971 100.774 192.971 101.513 192.232Z" fill="black"/>
<path d="M108.584 199.304C109.4 198.488 109.4 197.166 108.584 196.35C107.769 195.535 106.447 195.535 105.631 196.35C104.816 197.166 104.816 198.488 105.631 199.304C106.447 200.119 107.769 200.119 108.584 199.304Z" fill="black"/>
<path d="M115.656 206.375C116.548 205.483 116.548 204.037 115.656 203.145C114.764 202.252 113.317 202.252 112.425 203.145C111.533 204.037 111.533 205.483 112.425 206.375C113.317 207.267 114.764 207.267 115.656 206.375Z" fill="black"/>
<path d="M122.727 213.447C123.696 212.478 123.696 210.907 122.727 209.939C121.759 208.97 120.188 208.97 119.219 209.939C118.251 210.907 118.251 212.478 119.219 213.447C120.188 214.415 121.759 214.415 122.727 213.447Z" fill="black"/>
<path d="M129.799 220.518C130.844 219.473 130.844 217.778 129.799 216.733C128.753 215.688 127.059 215.688 126.013 216.733C124.968 217.778 124.968 219.473 126.013 220.518C127.059 221.563 128.753 221.563 129.799 220.518Z" fill="black"/>
<path d="M136.87 227.59C137.992 226.468 137.992 224.649 136.87 223.527C135.748 222.405 133.929 222.405 132.808 223.527C131.686 224.649 131.686 226.468 132.808 227.59C133.929 228.711 135.748 228.711 136.87 227.59Z" fill="black"/>
<path d="M143.942 234.661C145.14 233.463 145.14 231.519 143.942 230.321C142.743 229.123 140.8 229.123 139.602 230.321C138.403 231.519 138.403 233.463 139.602 234.661C140.8 235.859 142.743 235.859 143.942 234.661Z" fill="black"/>
<path d="M151.013 241.732C152.288 240.457 152.288 238.39 151.013 237.115C149.738 235.84 147.671 235.84 146.396 237.115C145.121 238.39 145.121 240.457 146.396 241.732C147.671 243.007 149.738 243.007 151.013 241.732Z" fill="black"/>
<path d="M158.085 248.804C159.436 247.452 159.436 245.261 158.085 243.909C156.733 242.558 154.542 242.558 153.19 243.909C151.838 245.261 151.838 247.452 153.19 248.804C154.542 250.155 156.733 250.155 158.085 248.804Z" fill="black"/>
<path d="M165.017 255.737C166.369 254.385 166.369 252.194 165.017 250.842C163.666 249.49 161.474 249.49 160.123 250.842C158.771 252.194 158.771 254.385 160.123 255.737C161.474 257.088 163.666 257.088 165.017 255.737Z" fill="black"/>
<path d="M171.811 262.531C173.086 261.256 173.086 259.189 171.811 257.914C170.536 256.638 168.469 256.638 167.194 257.914C165.919 259.189 165.919 261.256 167.194 262.531C168.469 263.806 170.536 263.806 171.811 262.531Z" fill="black"/>
<path d="M178.606 269.325C179.804 268.126 179.804 266.183 178.606 264.985C177.407 263.787 175.464 263.787 174.266 264.985C173.067 266.183 173.067 268.126 174.266 269.325C175.464 270.523 177.407 270.523 178.606 269.325Z" fill="black"/>
<path d="M185.4 276.119C186.522 274.997 186.522 273.178 185.4 272.056C184.278 270.935 182.459 270.935 181.337 272.056C180.215 273.178 180.215 274.997 181.337 276.119C182.459 277.241 184.278 277.241 185.4 276.119Z" fill="black"/>
<path d="M192.194 282.913C193.239 281.868 193.239 280.173 192.194 279.128C191.149 278.083 189.454 278.083 188.409 279.128C187.363 280.173 187.363 281.868 188.409 282.913C189.454 283.958 191.149 283.958 192.194 282.913Z" fill="black"/>
<path d="M198.988 289.707C199.957 288.739 199.957 287.168 198.988 286.199C198.019 285.231 196.449 285.231 195.48 286.199C194.511 287.168 194.511 288.739 195.48 289.707C196.449 290.676 198.019 290.676 198.988 289.707Z" fill="black"/>
<path d="M205.782 296.501C206.674 295.609 206.674 294.163 205.782 293.271C204.89 292.379 203.444 292.379 202.551 293.271C201.659 294.163 201.659 295.609 202.551 296.501C203.444 297.394 204.89 297.394 205.782 296.501Z" fill="black"/>
<path d="M212.576 303.295C213.392 302.48 213.392 301.158 212.576 300.342C211.761 299.527 210.438 299.527 209.623 300.342C208.807 301.158 208.807 302.48 209.623 303.295C210.438 304.111 211.761 304.111 212.576 303.295Z" fill="black"/>
<path d="M219.37 310.09C220.109 309.351 220.109 308.153 219.37 307.414C218.631 306.675 217.433 306.675 216.694 307.414C215.955 308.153 215.955 309.351 216.694 310.09C217.433 310.829 218.631 310.829 219.37 310.09Z" fill="black"/>
<path d="M101.43 178.284C102.123 177.591 102.123 176.467 101.43 175.774C100.737 175.081 99.6132 175.081 98.9202 175.774C98.2271 176.467 98.2271 177.591 98.9202 178.284C99.6132 178.977 100.737 178.977 101.43 178.284Z" fill="black"/>
<path d="M108.529 185.383C109.314 184.598 109.314 183.325 108.529 182.54C107.744 181.755 106.471 181.755 105.687 182.54C104.902 183.325 104.902 184.598 105.687 185.383C106.471 186.168 107.744 186.168 108.529 185.383Z" fill="black"/>
<path d="M115.628 192.482C116.505 191.605 116.505 190.184 115.628 189.307C114.751 188.43 113.33 188.43 112.453 189.307C111.576 190.184 111.576 191.605 112.453 192.482C113.33 193.359 114.751 193.359 115.628 192.482Z" fill="black"/>
<path d="M122.727 199.581C123.696 198.612 123.696 197.042 122.727 196.073C121.759 195.104 120.188 195.104 119.219 196.073C118.251 197.042 118.251 198.612 119.219 199.581C120.188 200.55 121.759 200.55 122.727 199.581Z" fill="black"/>
<path d="M129.827 206.68C130.887 205.62 130.887 203.9 129.827 202.839C128.766 201.779 127.046 201.779 125.986 202.839C124.925 203.9 124.925 205.62 125.986 206.68C127.046 207.741 128.766 207.741 129.827 206.68Z" fill="black"/>
<path d="M136.926 213.779C138.078 212.627 138.078 210.758 136.926 209.606C135.773 208.453 133.905 208.453 132.752 209.606C131.6 210.758 131.6 212.627 132.752 213.779C133.905 214.932 135.773 214.932 136.926 213.779Z" fill="black"/>
<path d="M144.025 220.879C145.269 219.634 145.269 217.617 144.025 216.372C142.78 215.128 140.763 215.128 139.519 216.372C138.274 217.617 138.274 219.634 139.519 220.879C140.763 222.123 142.78 222.123 144.025 220.879Z" fill="black"/>
<path d="M151.124 227.978C152.46 226.641 152.46 224.475 151.124 223.139C149.788 221.802 147.621 221.802 146.285 223.139C144.949 224.475 144.949 226.641 146.285 227.978C147.621 229.314 149.788 229.314 151.124 227.978Z" fill="black"/>
<path d="M158.223 235.077C159.651 233.649 159.651 231.333 158.223 229.905C156.795 228.477 154.479 228.477 153.051 229.905C151.623 231.333 151.623 233.649 153.051 235.077C154.479 236.505 156.795 236.505 158.223 235.077Z" fill="black"/>
<path d="M165.322 242.176C166.842 240.656 166.842 238.192 165.322 236.671C163.802 235.151 161.338 235.151 159.818 236.671C158.298 238.192 158.298 240.656 159.818 242.176C161.338 243.696 163.802 243.696 165.322 242.176Z" fill="black"/>
<path d="M172.255 249.109C173.775 247.589 173.775 245.124 172.255 243.604C170.735 242.084 168.271 242.084 166.751 243.604C165.23 245.124 165.23 247.589 166.751 249.109C168.271 250.629 170.735 250.629 172.255 249.109Z" fill="black"/>
<path d="M179.022 255.875C180.45 254.447 180.45 252.132 179.022 250.703C177.593 249.275 175.278 249.275 173.85 250.703C172.421 252.132 172.422 254.447 173.85 255.875C175.278 257.303 177.593 257.303 179.022 255.875Z" fill="black"/>
<path d="M185.788 262.642C187.124 261.305 187.124 259.139 185.788 257.803C184.452 256.466 182.285 256.466 180.949 257.803C179.613 259.139 179.613 261.305 180.949 262.642C182.285 263.978 184.452 263.978 185.788 262.642Z" fill="black"/>
<path d="M192.554 269.408C193.799 268.164 193.799 266.146 192.554 264.902C191.31 263.657 189.292 263.657 188.048 264.902C186.804 266.146 186.804 268.164 188.048 269.408C189.292 270.652 191.31 270.652 192.554 269.408Z" fill="black"/>
<path d="M199.321 276.174C200.473 275.022 200.473 273.153 199.321 272.001C198.168 270.848 196.3 270.848 195.147 272.001C193.995 273.153 193.995 275.022 195.147 276.174C196.3 277.327 198.168 277.327 199.321 276.174Z" fill="black"/>
<path d="M206.087 282.941C207.148 281.88 207.148 280.161 206.087 279.1C205.027 278.039 203.307 278.039 202.246 279.1C201.186 280.161 201.186 281.88 202.246 282.941C203.307 284.001 205.027 284.001 206.087 282.941Z" fill="black"/>
<path d="M212.854 289.707C213.822 288.739 213.822 287.168 212.854 286.199C211.885 285.231 210.314 285.231 209.346 286.199C208.377 287.168 208.377 288.739 209.346 289.707C210.314 290.676 211.885 290.676 212.854 289.707Z" fill="black"/>
<path d="M219.62 296.474C220.497 295.597 220.497 294.175 219.62 293.298C218.743 292.422 217.321 292.422 216.445 293.298C215.568 294.175 215.568 295.597 216.445 296.474C217.321 297.35 218.743 297.35 219.62 296.474Z" fill="black"/>
<path d="M226.386 303.24C227.171 302.455 227.171 301.183 226.386 300.398C225.601 299.613 224.329 299.613 223.544 300.398C222.759 301.183 222.759 302.455 223.544 303.24C224.329 304.025 225.601 304.025 226.386 303.24Z" fill="black"/>
<path d="M233.153 310.006C233.846 309.313 233.846 308.19 233.153 307.497C232.46 306.804 231.336 306.804 230.643 307.497C229.95 308.19 229.95 309.313 230.643 310.006C231.336 310.699 232.46 310.699 233.153 310.006Z" fill="black"/>
<path d="M108.418 171.406C109.142 170.683 109.142 169.509 108.418 168.786C107.694 168.062 106.521 168.062 105.797 168.786C105.074 169.509 105.074 170.683 105.797 171.406C106.521 172.13 107.694 172.13 108.418 171.406Z" fill="black"/>
<path d="M115.545 178.533C116.376 177.702 116.376 176.355 115.545 175.524C114.714 174.693 113.367 174.693 112.536 175.524C111.705 176.355 111.705 177.702 112.536 178.533C113.367 179.364 114.714 179.364 115.545 178.533Z" fill="black"/>
<path d="M122.672 185.66C123.61 184.722 123.61 183.201 122.672 182.263C121.734 181.325 120.213 181.325 119.275 182.263C118.337 183.201 118.337 184.722 119.275 185.66C120.213 186.598 121.734 186.598 122.672 185.66Z" fill="black"/>
<path d="M129.799 192.787C130.844 191.742 130.844 190.047 129.799 189.002C128.753 187.956 127.059 187.956 126.013 189.002C124.968 190.047 124.968 191.742 126.013 192.787C127.059 193.832 128.753 193.832 129.799 192.787Z" fill="black"/>
<path d="M136.926 199.914C138.078 198.761 138.078 196.893 136.926 195.74C135.773 194.588 133.905 194.588 132.752 195.74C131.6 196.893 131.6 198.761 132.752 199.914C133.905 201.066 135.773 201.066 136.926 199.914Z" fill="black"/>
<path d="M144.053 207.041C145.312 205.781 145.312 203.739 144.053 202.479C142.793 201.219 140.751 201.219 139.491 202.479C138.231 203.739 138.231 205.781 139.491 207.041C140.751 208.3 142.793 208.3 144.053 207.041Z" fill="black"/>
<path d="M151.179 214.168C152.546 212.801 152.546 210.585 151.179 209.218C149.813 207.851 147.596 207.851 146.229 209.218C144.863 210.585 144.863 212.801 146.229 214.168C147.596 215.535 149.813 215.535 151.179 214.168Z" fill="black"/>
<path d="M158.306 221.295C159.78 219.82 159.78 217.43 158.306 215.956C156.832 214.482 154.442 214.482 152.968 215.956C151.494 217.43 151.494 219.82 152.968 221.295C154.442 222.769 156.832 222.769 158.306 221.295Z" fill="black"/>
<path d="M165.433 228.421C167.015 226.84 167.015 224.276 165.433 222.695C163.852 221.114 161.288 221.114 159.707 222.695C158.125 224.276 158.125 226.84 159.707 228.421C161.288 230.003 163.852 230.003 165.433 228.421Z" fill="black"/>
<path d="M172.56 235.548C174.249 233.86 174.249 231.122 172.56 229.434C170.872 227.745 168.134 227.745 166.445 229.434C164.757 231.122 164.757 233.86 166.445 235.548C168.134 237.237 170.872 237.237 172.56 235.548Z" fill="black"/>
<path d="M179.493 242.481C181.181 240.793 181.181 238.055 179.493 236.366C177.804 234.678 175.067 234.678 173.378 236.366C171.69 238.055 171.69 240.793 173.378 242.481C175.067 244.17 177.804 244.17 179.493 242.481Z" fill="black"/>
<path d="M186.232 249.22C187.813 247.638 187.813 245.075 186.232 243.493C184.65 241.912 182.086 241.912 180.505 243.493C178.924 245.075 178.924 247.638 180.505 249.22C182.086 250.801 184.65 250.801 186.232 249.22Z" fill="black"/>
<path d="M192.97 255.958C194.444 254.484 194.444 252.094 192.97 250.62C191.496 249.146 189.106 249.146 187.632 250.62C186.158 252.094 186.158 254.484 187.632 255.958C189.106 257.433 191.496 257.433 192.97 255.958Z" fill="black"/>
<path d="M199.709 262.697C201.076 261.33 201.076 259.114 199.709 257.747C198.342 256.38 196.126 256.38 194.759 257.747C193.392 259.114 193.392 261.33 194.759 262.697C196.126 264.064 198.342 264.064 199.709 262.697Z" fill="black"/>
<path d="M206.448 269.436C207.707 268.176 207.707 266.134 206.448 264.874C205.188 263.614 203.146 263.614 201.886 264.874C200.626 266.134 200.626 268.176 201.886 269.436C203.146 270.695 205.188 270.695 206.448 269.436Z" fill="black"/>
<path d="M213.186 276.174C214.339 275.022 214.339 273.153 213.186 272.001C212.034 270.848 210.165 270.848 209.013 272.001C207.86 273.153 207.86 275.022 209.013 276.174C210.165 277.327 212.034 277.327 213.186 276.174Z" fill="black"/>
<path d="M219.925 282.913C220.97 281.868 220.97 280.173 219.925 279.128C218.88 278.083 217.185 278.083 216.14 279.128C215.094 280.173 215.094 281.868 216.14 282.913C217.185 283.958 218.88 283.958 219.925 282.913Z" fill="black"/>
<path d="M226.664 289.652C227.602 288.714 227.602 287.193 226.664 286.255C225.726 285.317 224.205 285.317 223.267 286.255C222.328 287.193 222.328 288.714 223.267 289.652C224.205 290.59 225.726 290.59 226.664 289.652Z" fill="black"/>
<path d="M233.402 296.39C234.233 295.56 234.233 294.212 233.402 293.382C232.571 292.551 231.224 292.551 230.393 293.382C229.563 294.212 229.563 295.56 230.393 296.39C231.224 297.221 232.571 297.221 233.402 296.39Z" fill="black"/>
<path d="M240.141 303.129C240.865 302.405 240.865 301.232 240.141 300.509C239.417 299.785 238.244 299.785 237.52 300.509C236.797 301.232 236.797 302.405 237.52 303.129C238.244 303.853 239.417 303.853 240.141 303.129Z" fill="black"/>
<path d="M115.406 164.529C116.161 163.775 116.161 162.552 115.406 161.797C114.652 161.043 113.429 161.043 112.675 161.797C111.921 162.552 111.921 163.775 112.675 164.529C113.429 165.283 114.652 165.283 115.406 164.529Z" fill="black"/>
<path d="M122.561 171.684C123.438 170.807 123.438 169.385 122.561 168.508C121.684 167.632 120.263 167.632 119.386 168.508C118.509 169.385 118.509 170.807 119.386 171.684C120.263 172.56 121.684 172.56 122.561 171.684Z" fill="black"/>
<path d="M129.716 178.838C130.715 177.839 130.715 176.219 129.716 175.219C128.716 174.22 127.096 174.22 126.097 175.219C125.097 176.219 125.097 177.839 126.097 178.838C127.096 179.838 128.716 179.838 129.716 178.838Z" fill="black"/>
<path d="M136.87 185.993C137.992 184.871 137.992 183.052 136.87 181.93C135.748 180.808 133.929 180.808 132.808 181.93C131.686 183.052 131.686 184.871 132.808 185.993C133.929 187.115 135.748 187.115 136.87 185.993Z" fill="black"/>
<path d="M144.025 193.147C145.269 191.903 145.269 189.886 144.025 188.641C142.78 187.397 140.763 187.397 139.519 188.641C138.274 189.886 138.274 191.903 139.519 193.147C140.763 194.392 142.78 194.392 144.025 193.147Z" fill="black"/>
<path d="M151.179 200.302C152.546 198.935 152.546 196.719 151.179 195.352C149.813 193.985 147.596 193.985 146.229 195.352C144.863 196.719 144.863 198.935 146.229 200.302C147.596 201.669 149.813 201.669 151.179 200.302Z" fill="black"/>
<path d="M158.334 207.457C159.824 205.967 159.824 203.552 158.334 202.063C156.845 200.574 154.43 200.574 152.94 202.063C151.451 203.552 151.451 205.967 152.94 207.457C154.43 208.946 156.845 208.946 158.334 207.457Z" fill="black"/>
<path d="M165.489 214.611C167.101 212.999 167.101 210.386 165.489 208.774C163.877 207.162 161.263 207.162 159.651 208.774C158.039 210.386 158.039 212.999 159.651 214.611C161.263 216.223 163.877 216.223 165.489 214.611Z" fill="black"/>
<path d="M172.643 221.766C174.378 220.032 174.378 217.219 172.643 215.485C170.909 213.75 168.097 213.75 166.362 215.485C164.628 217.219 164.628 220.032 166.362 221.766C168.097 223.5 170.909 223.5 172.643 221.766Z" fill="black"/>
<path d="M179.798 228.921C181.655 227.064 181.655 224.053 179.798 222.196C177.941 220.339 174.93 220.339 173.073 222.196C171.216 224.053 171.216 227.064 173.073 228.921C174.93 230.778 177.941 230.778 179.798 228.921Z" fill="black"/>
<path d="M186.731 235.853C188.588 233.996 188.588 230.986 186.731 229.129C184.874 227.272 181.863 227.272 180.006 229.129C178.149 230.986 178.149 233.996 180.006 235.853C181.863 237.71 184.874 237.71 186.731 235.853Z" fill="black"/>
<path d="M193.442 242.564C195.176 240.83 195.176 238.018 193.442 236.283C191.707 234.549 188.895 234.549 187.161 236.283C185.426 238.018 185.426 240.83 187.161 242.564C188.895 244.299 191.707 244.299 193.442 242.564Z" fill="black"/>
<path d="M200.153 249.275C201.765 247.663 201.765 245.05 200.153 243.438C198.541 241.826 195.927 241.826 194.315 243.438C192.703 245.05 192.703 247.663 194.315 249.275C195.927 250.887 198.541 250.887 200.153 249.275Z" fill="black"/>
<path d="M206.864 255.986C208.353 254.497 208.353 252.082 206.864 250.592C205.374 249.103 202.959 249.103 201.47 250.592C199.98 252.082 199.98 254.497 201.47 255.986C202.959 257.476 205.374 257.476 206.864 255.986Z" fill="black"/>
<path d="M213.575 262.697C214.941 261.33 214.941 259.114 213.575 257.747C212.208 256.38 209.991 256.38 208.625 257.747C207.258 259.114 207.258 261.33 208.625 262.697C209.991 264.064 212.208 264.064 213.575 262.697Z" fill="black"/>
<path d="M220.285 269.408C221.53 268.164 221.53 266.146 220.285 264.902C219.041 263.657 217.024 263.657 215.779 264.902C214.535 266.146 214.535 268.164 215.779 269.408C217.024 270.652 219.041 270.652 220.285 269.408Z" fill="black"/>
<path d="M226.996 276.119C228.118 274.997 228.118 273.178 226.996 272.056C225.875 270.935 224.056 270.935 222.934 272.056C221.812 273.178 221.812 274.997 222.934 276.119C224.056 277.241 225.875 277.241 226.996 276.119Z" fill="black"/>
<path d="M233.707 282.83C234.707 281.831 234.707 280.21 233.707 279.211C232.708 278.212 231.088 278.212 230.088 279.211C229.089 280.21 229.089 281.831 230.088 282.83C231.088 283.829 232.708 283.829 233.707 282.83Z" fill="black"/>
<path d="M240.418 289.541C241.295 288.664 241.295 287.242 240.418 286.366C239.541 285.489 238.12 285.489 237.243 286.366C236.366 287.242 236.366 288.664 237.243 289.541C238.12 290.418 239.541 290.418 240.418 289.541Z" fill="black"/>
<path d="M247.129 296.252C247.883 295.498 247.883 294.275 247.129 293.52C246.375 292.766 245.152 292.766 244.398 293.52C243.643 294.275 243.643 295.498 244.398 296.252C245.152 297.006 246.375 297.006 247.129 296.252Z" fill="black"/>
<path d="M115.212 150.469C115.859 149.822 115.859 148.773 115.212 148.126C114.565 147.479 113.516 147.479 112.869 148.126C112.222 148.773 112.222 149.822 112.869 150.469C113.516 151.116 114.565 151.116 115.212 150.469Z" fill="black"/>
<path d="M122.395 157.652C123.179 156.867 123.179 155.594 122.395 154.809C121.61 154.024 120.337 154.024 119.552 154.809C118.767 155.594 118.767 156.867 119.552 157.652C120.337 158.437 121.61 158.437 122.395 157.652Z" fill="black"/>
<path d="M129.577 164.834C130.5 163.911 130.5 162.415 129.577 161.492C128.654 160.57 127.158 160.57 126.235 161.492C125.313 162.415 125.313 163.911 126.235 164.834C127.158 165.757 128.654 165.757 129.577 164.834Z" fill="black"/>
<path d="M136.759 172.016C137.82 170.956 137.82 169.236 136.759 168.176C135.699 167.115 133.979 167.115 132.919 168.176C131.858 169.236 131.858 170.956 132.919 172.016C133.979 173.077 135.699 173.077 136.759 172.016Z" fill="black"/>
<path d="M143.942 179.199C145.14 178 145.14 176.057 143.942 174.859C142.743 173.66 140.8 173.66 139.602 174.859C138.403 176.057 138.403 178 139.602 179.199C140.8 180.397 142.743 180.397 143.942 179.199Z" fill="black"/>
<path d="M151.124 186.381C152.46 185.045 152.46 182.878 151.124 181.542C149.788 180.206 147.621 180.206 146.285 181.542C144.949 182.878 144.949 185.045 146.285 186.381C147.621 187.717 149.788 187.717 151.124 186.381Z" fill="black"/>
<path d="M158.306 193.563C159.78 192.089 159.78 189.699 158.306 188.225C156.832 186.751 154.442 186.751 152.968 188.225C151.494 189.699 151.494 192.089 152.968 193.563C154.442 195.038 156.832 195.038 158.306 193.563Z" fill="black"/>
<path d="M165.489 200.746C167.101 199.134 167.101 196.52 165.489 194.908C163.877 193.296 161.263 193.296 159.651 194.908C158.039 196.52 158.039 199.134 159.651 200.746C161.263 202.358 163.877 202.358 165.489 200.746Z" fill="black"/>
<path d="M172.671 207.928C174.421 206.178 174.421 203.341 172.671 201.592C170.921 199.842 168.084 199.842 166.335 201.592C164.585 203.341 164.585 206.178 166.335 207.928C168.084 209.678 170.921 209.678 172.671 207.928Z" fill="black"/>
<path d="M179.853 215.111C181.741 213.223 181.741 210.162 179.853 208.275C177.966 206.387 174.905 206.387 173.018 208.275C171.13 210.162 171.13 213.223 173.018 215.111C174.905 216.998 177.966 216.998 179.853 215.111Z" fill="black"/>
<path d="M187.036 222.293C189.061 220.267 189.061 216.983 187.036 214.958C185.01 212.933 181.726 212.933 179.701 214.958C177.675 216.983 177.675 220.267 179.701 222.293C181.726 224.318 185.01 224.318 187.036 222.293Z" fill="black"/>
<path d="M193.969 229.226C195.994 227.2 195.994 223.916 193.969 221.891C191.943 219.865 188.659 219.865 186.634 221.891C184.608 223.916 184.608 227.2 186.634 229.226C188.659 231.251 191.943 231.251 193.969 229.226Z" fill="black"/>
<path d="M200.652 235.909C202.539 234.021 202.539 230.961 200.652 229.073C198.764 227.185 195.704 227.185 193.816 229.073C191.928 230.961 191.928 234.021 193.816 235.909C195.704 237.796 198.764 237.796 200.652 235.909Z" fill="black"/>
<path d="M207.335 242.592C209.085 240.842 209.085 238.005 207.335 236.256C205.585 234.506 202.748 234.506 200.998 236.255C199.249 238.005 199.249 240.842 200.998 242.592C202.748 244.342 205.585 244.342 207.335 242.592Z" fill="black"/>
<path d="M214.018 249.275C215.63 247.663 215.63 245.05 214.018 243.438C212.406 241.826 209.793 241.826 208.181 243.438C206.569 245.05 206.569 247.663 208.181 249.275C209.793 250.887 212.406 250.887 214.018 249.275Z" fill="black"/>
<path d="M220.701 255.958C222.176 254.484 222.176 252.094 220.701 250.62C219.227 249.146 216.837 249.146 215.363 250.62C213.889 252.094 213.889 254.484 215.363 255.958C216.837 257.433 219.227 257.433 220.701 255.958Z" fill="black"/>
<path d="M227.385 262.642C228.721 261.305 228.721 259.139 227.385 257.803C226.048 256.466 223.882 256.466 222.546 257.803C221.209 259.139 221.209 261.305 222.546 262.642C223.882 263.978 226.048 263.978 227.385 262.642Z" fill="black"/>
<path d="M234.068 269.325C235.266 268.126 235.266 266.183 234.068 264.985C232.869 263.787 230.926 263.787 229.728 264.985C228.529 266.183 228.529 268.126 229.728 269.325C230.926 270.523 232.869 270.523 234.068 269.325Z" fill="black"/>
<path d="M240.751 276.008C241.812 274.947 241.812 273.228 240.751 272.167C239.69 271.107 237.971 271.107 236.91 272.167C235.85 273.228 235.85 274.947 236.91 276.008C237.971 277.069 239.69 277.069 240.751 276.008Z" fill="black"/>
<path d="M247.434 282.691C248.357 281.769 248.357 280.272 247.434 279.35C246.511 278.427 245.015 278.427 244.093 279.35C243.17 280.272 243.17 281.769 244.093 282.691C245.015 283.614 246.511 283.614 247.434 282.691Z" fill="black"/>
<path d="M254.117 289.374C254.902 288.59 254.902 287.317 254.117 286.532C253.333 285.747 252.06 285.747 251.275 286.532C250.49 287.317 250.49 288.59 251.275 289.374C252.06 290.159 253.333 290.159 254.117 289.374Z" fill="black"/>
<path d="M260.801 296.058C261.448 295.411 261.448 294.361 260.801 293.714C260.154 293.067 259.104 293.067 258.457 293.714C257.81 294.361 257.81 295.411 258.457 296.058C259.104 296.705 260.154 296.705 260.801 296.058Z" fill="black"/>
<path d="M122.173 143.564C122.835 142.902 122.835 141.828 122.173 141.165C121.51 140.503 120.436 140.503 119.774 141.165C119.112 141.828 119.112 142.902 119.774 143.564C120.436 144.227 121.51 144.227 122.173 143.564Z" fill="black"/>
<path d="M129.383 150.774C130.198 149.959 130.198 148.636 129.383 147.821C128.567 147.005 127.245 147.005 126.429 147.821C125.614 148.636 125.614 149.959 126.429 150.774C127.245 151.59 128.567 151.59 129.383 150.774Z" fill="black"/>
<path d="M136.593 157.984C137.562 157.016 137.562 155.445 136.593 154.476C135.624 153.508 134.054 153.508 133.085 154.476C132.116 155.445 132.116 157.016 133.085 157.984C134.054 158.953 135.624 158.953 136.593 157.984Z" fill="black"/>
<path d="M143.803 165.194C144.925 164.073 144.925 162.254 143.803 161.132C142.681 160.01 140.862 160.01 139.74 161.132C138.619 162.254 138.619 164.073 139.74 165.194C140.862 166.316 142.681 166.316 143.803 165.194Z" fill="black"/>
<path d="M151.013 172.405C152.288 171.13 152.288 169.062 151.013 167.787C149.738 166.512 147.671 166.512 146.396 167.787C145.121 169.062 145.121 171.13 146.396 172.405C147.671 173.68 149.738 173.68 151.013 172.405Z" fill="black"/>
<path d="M158.223 179.615C159.651 178.187 159.651 175.871 158.223 174.443C156.795 173.015 154.479 173.015 153.051 174.443C151.623 175.871 151.623 178.187 153.051 179.615C154.479 181.043 156.795 181.043 158.223 179.615Z" fill="black"/>
<path d="M165.433 186.825C167.015 185.243 167.015 182.68 165.433 181.098C163.852 179.517 161.288 179.517 159.707 181.098C158.125 182.68 158.125 185.243 159.707 186.825C161.288 188.406 163.852 188.406 165.433 186.825Z" fill="black"/>
<path d="M172.643 194.035C174.378 192.3 174.378 189.488 172.643 187.754C170.909 186.019 168.097 186.019 166.362 187.754C164.628 189.488 164.628 192.3 166.362 194.035C168.097 195.769 170.909 195.769 172.643 194.035Z" fill="black"/>
<path d="M179.853 201.245C181.741 199.357 181.741 196.297 179.853 194.409C177.966 192.522 174.905 192.522 173.018 194.409C171.13 196.297 171.13 199.357 173.018 201.245C174.905 203.133 177.966 203.133 179.853 201.245Z" fill="black"/>
<path d="M187.064 208.455C189.104 206.414 189.104 203.105 187.064 201.065C185.023 199.024 181.714 199.024 179.673 201.065C177.632 203.105 177.632 206.414 179.673 208.455C181.714 210.496 185.023 210.496 187.064 208.455Z" fill="black"/>
<path d="M194.274 215.665C196.468 213.471 196.468 209.914 194.274 207.72C192.08 205.526 188.523 205.526 186.329 207.72C184.135 209.914 184.135 213.471 186.329 215.665C188.523 217.859 192.08 217.859 194.274 215.665Z" fill="black"/>
<path d="M201.206 222.598C203.4 220.404 203.4 216.847 201.206 214.653C199.012 212.459 195.455 212.459 193.261 214.653C191.068 216.847 191.068 220.404 193.261 222.598C195.455 224.792 199.012 224.792 201.206 222.598Z" fill="black"/>
<path d="M207.862 229.253C209.903 227.213 209.903 223.904 207.862 221.863C205.821 219.822 202.512 219.822 200.472 221.863C198.431 223.904 198.431 227.213 200.472 229.253C202.512 231.294 205.821 231.294 207.862 229.253Z" fill="black"/>
<path d="M214.517 235.909C216.405 234.021 216.405 230.961 214.517 229.073C212.63 227.185 209.569 227.186 207.682 229.073C205.794 230.961 205.794 234.021 207.682 235.909C209.569 237.796 212.63 237.796 214.517 235.909Z" fill="black"/>
<path d="M221.173 242.564C222.907 240.83 222.907 238.018 221.173 236.283C219.438 234.549 216.626 234.549 214.892 236.283C213.157 238.018 213.157 240.83 214.892 242.564C216.626 244.299 219.438 244.299 221.173 242.564Z" fill="black"/>
<path d="M227.828 249.22C229.41 247.638 229.41 245.075 227.828 243.493C226.247 241.912 223.683 241.912 222.102 243.493C220.521 245.075 220.521 247.638 222.102 249.22C223.683 250.801 226.247 250.801 227.828 249.22Z" fill="black"/>
<path d="M234.484 255.875C235.912 254.447 235.912 252.132 234.484 250.703C233.056 249.275 230.74 249.275 229.312 250.703C227.884 252.132 227.884 254.447 229.312 255.875C230.74 257.303 233.056 257.303 234.484 255.875Z" fill="black"/>
<path d="M241.139 262.531C242.414 261.256 242.414 259.189 241.139 257.914C239.864 256.638 237.797 256.638 236.522 257.914C235.247 259.189 235.247 261.256 236.522 262.531C237.797 263.806 239.864 263.806 241.139 262.531Z" fill="black"/>
<path d="M247.795 269.186C248.917 268.064 248.917 266.245 247.795 265.124C246.673 264.002 244.854 264.002 243.732 265.124C242.61 266.245 242.61 268.064 243.732 269.186C244.854 270.308 246.673 270.308 247.795 269.186Z" fill="black"/>
<path d="M254.45 275.842C255.419 274.873 255.419 273.302 254.45 272.334C253.481 271.365 251.911 271.365 250.942 272.334C249.973 273.302 249.973 274.873 250.942 275.842C251.911 276.81 253.481 276.81 254.45 275.842Z" fill="black"/>
<path d="M261.106 282.497C261.921 281.682 261.921 280.359 261.106 279.544C260.29 278.728 258.968 278.728 258.152 279.544C257.337 280.359 257.337 281.682 258.152 282.497C258.968 283.313 260.29 283.313 261.106 282.497Z" fill="black"/>
<path d="M267.761 289.153C268.424 288.49 268.424 287.416 267.761 286.754C267.099 286.091 266.025 286.091 265.362 286.754C264.7 287.416 264.7 288.49 265.362 289.153C266.025 289.815 267.099 289.815 267.761 289.153Z" fill="black"/>
<path d="M129.133 136.659C129.811 135.981 129.811 134.883 129.133 134.205C128.456 133.527 127.357 133.527 126.679 134.205C126.001 134.883 126.001 135.981 126.679 136.659C127.357 137.337 128.456 137.337 129.133 136.659Z" fill="black"/>
<path d="M136.371 143.897C137.217 143.051 137.217 141.679 136.371 140.833C135.525 139.987 134.153 139.987 133.307 140.833C132.461 141.679 132.461 143.051 133.307 143.897C134.153 144.743 135.525 144.743 136.371 143.897Z" fill="black"/>
<path d="M143.609 151.135C144.624 150.12 144.624 148.475 143.609 147.46C142.594 146.446 140.949 146.446 139.935 147.46C138.92 148.475 138.92 150.12 139.935 151.135C140.949 152.149 142.594 152.149 143.609 151.135Z" fill="black"/>
<path d="M150.847 158.373C152.03 157.19 152.03 155.271 150.847 154.088C149.664 152.905 147.745 152.905 146.562 154.088C145.379 155.271 145.379 157.19 146.562 158.373C147.745 159.556 149.664 159.556 150.847 158.373Z" fill="black"/>
<path d="M158.085 165.61C159.436 164.259 159.436 162.068 158.085 160.716C156.733 159.364 154.542 159.364 153.19 160.716C151.838 162.068 151.838 164.259 153.19 165.61C154.542 166.962 156.733 166.962 158.085 165.61Z" fill="black"/>
<path d="M165.322 172.848C166.842 171.328 166.842 168.864 165.322 167.344C163.802 165.824 161.338 165.824 159.818 167.344C158.298 168.864 158.298 171.328 159.818 172.848C161.338 174.368 163.802 174.368 165.322 172.848Z" fill="black"/>
<path d="M172.56 180.086C174.249 178.398 174.249 175.66 172.56 173.971C170.872 172.283 168.134 172.283 166.445 173.971C164.757 175.66 164.757 178.398 166.445 180.086C168.134 181.775 170.872 181.775 172.56 180.086Z" fill="black"/>
<path d="M179.798 187.324C181.655 185.467 181.655 182.456 179.798 180.599C177.941 178.742 174.93 178.742 173.073 180.599C171.216 182.456 171.216 185.467 173.073 187.324C174.93 189.181 177.941 189.181 179.798 187.324Z" fill="black"/>
<path d="M187.036 194.562C189.061 192.536 189.061 189.252 187.036 187.227C185.01 185.201 181.726 185.201 179.701 187.227C177.675 189.252 177.675 192.536 179.701 194.562C181.726 196.587 185.01 196.587 187.036 194.562Z" fill="black"/>
<path d="M194.274 201.8C196.468 199.606 196.468 196.049 194.274 193.855C192.08 191.661 188.523 191.661 186.329 193.855C184.135 196.049 184.135 199.606 186.329 201.8C188.523 203.994 192.08 203.994 194.274 201.8Z" fill="black"/>
<path d="M201.511 209.037C203.874 206.675 203.874 202.845 201.511 200.482C199.149 198.12 195.319 198.12 192.956 200.482C190.594 202.845 190.594 206.675 192.956 209.037C195.319 211.4 199.149 211.4 201.511 209.037Z" fill="black"/>
<path d="M208.444 215.97C210.807 213.608 210.807 209.778 208.444 207.415C206.082 205.053 202.252 205.053 199.889 207.415C197.527 209.778 197.527 213.608 199.889 215.97C202.252 218.333 206.082 218.333 208.444 215.97Z" fill="black"/>
<path d="M215.072 222.598C217.266 220.404 217.266 216.847 215.072 214.653C212.878 212.459 209.321 212.459 207.127 214.653C204.933 216.847 204.933 220.404 207.127 222.598C209.321 224.792 212.878 224.792 215.072 222.598Z" fill="black"/>
<path d="M221.7 229.226C223.725 227.2 223.725 223.916 221.7 221.891C219.674 219.865 216.39 219.865 214.365 221.891C212.339 223.916 212.339 227.2 214.365 229.226C216.39 231.251 219.674 231.251 221.7 229.226Z" fill="black"/>
<path d="M228.327 235.853C230.184 233.996 230.184 230.986 228.327 229.129C226.47 227.272 223.46 227.272 221.603 229.129C219.746 230.986 219.746 233.996 221.603 235.853C223.46 237.71 226.47 237.71 228.327 235.853Z" fill="black"/>
<path d="M234.955 242.481C236.644 240.793 236.644 238.055 234.955 236.366C233.267 234.678 230.529 234.678 228.84 236.366C227.152 238.055 227.152 240.793 228.84 242.481C230.529 244.17 233.267 244.17 234.955 242.481Z" fill="black"/>
<path d="M241.583 249.109C243.103 247.589 243.103 245.124 241.583 243.604C240.063 242.084 237.598 242.084 236.078 243.604C234.558 245.124 234.558 247.589 236.078 249.109C237.598 250.629 240.063 250.629 241.583 249.109Z" fill="black"/>
<path d="M248.211 255.737C249.562 254.385 249.562 252.194 248.211 250.842C246.859 249.49 244.668 249.49 243.316 250.842C241.965 252.194 241.965 254.385 243.316 255.737C244.668 257.088 246.859 257.088 248.211 255.737Z" fill="black"/>
<path d="M254.838 262.364C256.022 261.181 256.022 259.263 254.838 258.08C253.655 256.897 251.737 256.897 250.554 258.08C249.371 259.263 249.371 261.181 250.554 262.364C251.737 263.547 253.655 263.547 254.838 262.364Z" fill="black"/>
<path d="M261.466 268.992C262.481 267.977 262.481 266.332 261.466 265.318C260.452 264.303 258.806 264.303 257.792 265.318C256.777 266.332 256.777 267.977 257.792 268.992C258.806 270.007 260.452 270.007 261.466 268.992Z" fill="black"/>
<path d="M268.094 275.62C268.94 274.774 268.94 273.402 268.094 272.556C267.248 271.709 265.876 271.709 265.03 272.556C264.183 273.402 264.183 274.774 265.03 275.62C265.876 276.466 267.248 276.466 268.094 275.62Z" fill="black"/>
<path d="M274.722 282.248C275.399 281.57 275.399 280.471 274.722 279.793C274.044 279.116 272.945 279.116 272.267 279.793C271.59 280.471 271.59 281.57 272.267 282.248C272.945 282.925 274.044 282.925 274.722 282.248Z" fill="black"/>
<path d="M136.066 129.726C136.744 129.049 136.744 127.95 136.066 127.272C135.388 126.594 134.29 126.594 133.612 127.272C132.934 127.95 132.934 129.049 133.612 129.726C134.29 130.404 135.388 130.404 136.066 129.726Z" fill="black"/>
<path d="M143.304 136.964C144.15 136.118 144.15 134.746 143.304 133.9C142.458 133.054 141.086 133.054 140.24 133.9C139.393 134.746 139.393 136.118 140.24 136.964C141.086 137.81 142.458 137.81 143.304 136.964Z" fill="black"/>
<path d="M150.542 144.202C151.556 143.187 151.556 141.542 150.542 140.528C149.527 139.513 147.882 139.513 146.867 140.528C145.853 141.542 145.853 143.187 146.867 144.202C147.882 145.217 149.527 145.217 150.542 144.202Z" fill="black"/>
<path d="M157.779 151.44C158.963 150.257 158.963 148.339 157.779 147.155C156.596 145.972 154.678 145.972 153.495 147.155C152.312 148.339 152.312 150.257 153.495 151.44C154.678 152.623 156.596 152.623 157.779 151.44Z" fill="black"/>
<path d="M165.017 158.678C166.369 157.326 166.369 155.135 165.017 153.783C163.666 152.432 161.474 152.432 160.123 153.783C158.771 155.135 158.771 157.326 160.123 158.678C161.474 160.029 163.666 160.029 165.017 158.678Z" fill="black"/>
<path d="M172.255 165.916C173.775 164.395 173.775 161.931 172.255 160.411C170.735 158.891 168.271 158.891 166.751 160.411C165.23 161.931 165.23 164.395 166.751 165.916C168.271 167.436 170.735 167.436 172.255 165.916Z" fill="black"/>
<path d="M179.493 173.153C181.181 171.465 181.181 168.727 179.493 167.039C177.804 165.35 175.067 165.35 173.378 167.039C171.69 168.727 171.69 171.465 173.378 173.153C175.067 174.842 177.804 174.842 179.493 173.153Z" fill="black"/>
<path d="M186.731 180.391C188.588 178.534 188.588 175.523 186.731 173.666C184.874 171.809 181.863 171.809 180.006 173.666C178.149 175.523 178.149 178.534 180.006 180.391C181.863 182.248 184.874 182.248 186.731 180.391Z" fill="black"/>
<path d="M193.969 187.629C195.994 185.603 195.994 182.32 193.969 180.294C191.943 178.269 188.659 178.269 186.634 180.294C184.608 182.32 184.608 185.603 186.634 187.629C188.659 189.654 191.943 189.654 193.969 187.629Z" fill="black"/>
<path d="M201.206 194.867C203.4 192.673 203.4 189.116 201.206 186.922C199.012 184.728 195.455 184.728 193.261 186.922C191.068 189.116 191.068 192.673 193.261 194.867C195.455 197.061 199.012 197.061 201.206 194.867Z" fill="black"/>
<path d="M208.444 202.105C210.807 199.742 210.807 195.912 208.444 193.55C206.082 191.187 202.252 191.187 199.889 193.55C197.527 195.912 197.527 199.742 199.889 202.105C202.252 204.467 206.082 204.467 208.444 202.105Z" fill="black"/>
<path d="M215.377 209.037C217.739 206.675 217.739 202.845 215.377 200.482C213.015 198.12 209.184 198.12 206.822 200.482C204.46 202.845 204.46 206.675 206.822 209.037C209.184 211.4 213.015 211.4 215.377 209.037Z" fill="black"/>
<path d="M222.005 215.665C224.199 213.471 224.199 209.914 222.005 207.72C219.811 205.526 216.254 205.526 214.06 207.72C211.866 209.914 211.866 213.471 214.06 215.665C216.254 217.859 219.811 217.859 222.005 215.665Z" fill="black"/>
<path d="M228.633 222.293C230.658 220.267 230.658 216.983 228.633 214.958C226.607 212.933 223.323 212.933 221.298 214.958C219.272 216.983 219.272 220.267 221.298 222.293C223.323 224.318 226.607 224.318 228.633 222.293Z" fill="black"/>
<path d="M235.26 228.921C237.117 227.064 237.117 224.053 235.26 222.196C233.403 220.339 230.392 220.339 228.535 222.196C226.678 224.053 226.678 227.064 228.535 228.921C230.392 230.778 233.403 230.778 235.26 228.921Z" fill="black"/>
<path d="M241.888 235.548C243.577 233.86 243.577 231.122 241.888 229.434C240.199 227.745 237.462 227.745 235.773 229.434C234.085 231.122 234.085 233.86 235.773 235.548C237.462 237.237 240.199 237.237 241.888 235.548Z" fill="black"/>
<path d="M248.516 242.176C250.036 240.656 250.036 238.192 248.516 236.671C246.996 235.151 244.531 235.151 243.011 236.671C241.491 238.192 241.491 240.656 243.011 242.176C244.531 243.696 246.996 243.696 248.516 242.176Z" fill="black"/>
<path d="M255.143 248.804C256.495 247.452 256.495 245.261 255.143 243.909C253.792 242.558 251.601 242.558 250.249 243.909C248.897 245.261 248.897 247.452 250.249 248.804C251.601 250.155 253.792 250.155 255.143 248.804Z" fill="black"/>
<path d="M261.771 255.432C262.954 254.248 262.954 252.33 261.771 251.147C260.588 249.964 258.67 249.964 257.487 251.147C256.304 252.33 256.304 254.248 257.487 255.432C258.67 256.615 260.588 256.615 261.771 255.432Z" fill="black"/>
<path d="M268.399 262.059C269.414 261.045 269.414 259.4 268.399 258.385C267.384 257.37 265.739 257.37 264.725 258.385C263.71 259.4 263.71 261.045 264.725 262.059C265.739 263.074 267.384 263.074 268.399 262.059Z" fill="black"/>
<path d="M275.027 268.687C275.873 267.841 275.873 266.469 275.027 265.623C274.181 264.777 272.809 264.777 271.962 265.623C271.116 266.469 271.116 267.841 271.962 268.687C272.809 269.533 274.181 269.533 275.027 268.687Z" fill="black"/>
<path d="M281.654 275.315C282.332 274.637 282.332 273.538 281.654 272.861C280.977 272.183 279.878 272.183 279.2 272.861C278.523 273.538 278.523 274.637 279.2 275.315C279.878 275.992 280.977 275.992 281.654 275.315Z" fill="black"/>
<path d="M142.971 122.766C143.633 122.103 143.633 121.03 142.971 120.367C142.309 119.705 141.235 119.705 140.572 120.367C139.91 121.03 139.91 122.103 140.572 122.766C141.235 123.428 142.309 123.428 142.971 122.766Z" fill="black"/>
<path d="M150.181 129.976C150.997 129.16 150.997 127.838 150.181 127.023C149.366 126.207 148.043 126.207 147.228 127.023C146.412 127.838 146.412 129.16 147.228 129.976C148.043 130.792 149.366 130.792 150.181 129.976Z" fill="black"/>
<path d="M157.391 137.186C158.36 136.217 158.36 134.647 157.391 133.678C156.423 132.709 154.852 132.709 153.883 133.678C152.915 134.647 152.915 136.217 153.883 137.186C154.852 138.155 156.423 138.155 157.391 137.186Z" fill="black"/>
<path d="M164.601 144.396C165.723 143.274 165.723 141.455 164.601 140.334C163.479 139.212 161.661 139.212 160.539 140.334C159.417 141.455 159.417 143.274 160.539 144.396C161.661 145.518 163.479 145.518 164.601 144.396Z" fill="black"/>
<path d="M171.811 151.606C173.086 150.331 173.086 148.264 171.811 146.989C170.536 145.714 168.469 145.714 167.194 146.989C165.919 148.264 165.919 150.331 167.194 151.606C168.469 152.881 170.536 152.881 171.811 151.606Z" fill="black"/>
<path d="M179.022 158.816C180.45 157.388 180.45 155.073 179.022 153.644C177.593 152.216 175.278 152.216 173.85 153.644C172.422 155.073 172.421 157.388 173.85 158.816C175.278 160.244 177.593 160.244 179.022 158.816Z" fill="black"/>
<path d="M186.232 166.026C187.813 164.445 187.813 161.881 186.232 160.3C184.65 158.719 182.086 158.719 180.505 160.3C178.924 161.881 178.924 164.445 180.505 166.026C182.086 167.608 184.65 167.608 186.232 166.026Z" fill="black"/>
<path d="M193.442 173.237C195.176 171.502 195.176 168.69 193.442 166.955C191.707 165.221 188.895 165.221 187.161 166.955C185.426 168.69 185.426 171.502 187.161 173.237C188.895 174.971 191.707 174.971 193.442 173.237Z" fill="black"/>
<path d="M200.652 180.447C202.539 178.559 202.539 175.499 200.652 173.611C198.764 171.723 195.704 171.723 193.816 173.611C191.928 175.499 191.928 178.559 193.816 180.447C195.704 182.334 198.764 182.334 200.652 180.447Z" fill="black"/>
<path d="M207.862 187.657C209.903 185.616 209.903 182.307 207.862 180.266C205.821 178.226 202.512 178.226 200.472 180.266C198.431 182.307 198.431 185.616 200.472 187.657C202.512 189.697 205.821 189.697 207.862 187.657Z" fill="black"/>
<path d="M215.072 194.867C217.266 192.673 217.266 189.116 215.072 186.922C212.878 184.728 209.321 184.728 207.127 186.922C204.933 189.116 204.933 192.673 207.127 194.867C209.321 197.061 212.878 197.061 215.072 194.867Z" fill="black"/>
<path d="M222.005 201.8C224.199 199.606 224.199 196.049 222.005 193.855C219.811 191.661 216.254 191.661 214.06 193.855C211.866 196.049 211.866 199.606 214.06 201.8C216.254 203.994 219.811 203.994 222.005 201.8Z" fill="black"/>
<path d="M228.66 208.455C230.701 206.414 230.701 203.105 228.66 201.065C226.619 199.024 223.311 199.024 221.27 201.065C219.229 203.105 219.229 206.414 221.27 208.455C223.311 210.496 226.619 210.496 228.66 208.455Z" fill="black"/>
<path d="M235.316 215.111C237.203 213.223 237.203 210.162 235.316 208.275C233.428 206.387 230.368 206.387 228.48 208.275C226.592 210.162 226.592 213.223 228.48 215.111C230.368 216.998 233.428 216.998 235.316 215.111Z" fill="black"/>
<path d="M241.971 221.766C243.706 220.032 243.706 217.219 241.971 215.485C240.237 213.75 237.425 213.75 235.69 215.485C233.956 217.219 233.956 220.032 235.69 221.766C237.425 223.5 240.237 223.5 241.971 221.766Z" fill="black"/>
<path d="M248.627 228.421C250.208 226.84 250.208 224.276 248.627 222.695C247.045 221.114 244.482 221.114 242.9 222.695C241.319 224.276 241.319 226.84 242.9 228.421C244.482 230.003 247.045 230.003 248.627 228.421Z" fill="black"/>
<path d="M255.282 235.077C256.71 233.649 256.71 231.333 255.282 229.905C253.854 228.477 251.538 228.477 250.11 229.905C248.682 231.333 248.682 233.649 250.11 235.077C251.538 236.505 253.854 236.505 255.282 235.077Z" fill="black"/>
<path d="M261.938 241.732C263.213 240.457 263.213 238.39 261.938 237.115C260.663 235.84 258.595 235.84 257.32 237.115C256.045 238.39 256.045 240.457 257.32 241.732C258.595 243.007 260.663 243.007 261.938 241.732Z" fill="black"/>
<path d="M268.593 248.388C269.715 247.266 269.715 245.447 268.593 244.325C267.471 243.203 265.652 243.203 264.53 244.325C263.409 245.447 263.409 247.266 264.53 248.388C265.652 249.51 267.471 249.51 268.593 248.388Z" fill="black"/>
<path d="M275.249 255.043C276.217 254.075 276.217 252.504 275.249 251.535C274.28 250.567 272.709 250.567 271.741 251.535C270.772 252.504 270.772 254.075 271.741 255.043C272.709 256.012 274.28 256.012 275.249 255.043Z" fill="black"/>
<path d="M281.904 261.699C282.72 260.883 282.72 259.561 281.904 258.745C281.088 257.93 279.766 257.93 278.951 258.745C278.135 259.561 278.135 260.883 278.951 261.699C279.766 262.514 281.088 262.514 281.904 261.699Z" fill="black"/>
<path d="M288.559 268.354C289.222 267.692 289.222 266.618 288.559 265.956C287.897 265.293 286.823 265.293 286.161 265.956C285.498 266.618 285.498 267.692 286.161 268.354C286.823 269.017 287.897 269.017 288.559 268.354Z" fill="black"/>
<path d="M149.876 115.805C150.523 115.158 150.523 114.109 149.876 113.462C149.229 112.815 148.18 112.815 147.533 113.462C146.886 114.109 146.886 115.158 147.533 115.805C148.18 116.452 149.229 116.452 149.876 115.805Z" fill="black"/>
<path d="M157.058 122.988C157.843 122.203 157.843 120.93 157.058 120.145C156.274 119.36 155.001 119.36 154.216 120.145C153.431 120.93 153.431 122.203 154.216 122.988C155.001 123.773 156.274 123.773 157.058 122.988Z" fill="black"/>
<path d="M164.241 130.17C165.164 129.247 165.164 127.751 164.241 126.828C163.318 125.906 161.822 125.906 160.899 126.828C159.976 127.751 159.976 129.247 160.899 130.17C161.822 131.093 163.318 131.093 164.241 130.17Z" fill="black"/>
<path d="M171.423 137.352C172.484 136.292 172.484 134.572 171.423 133.512C170.363 132.451 168.643 132.451 167.582 133.512C166.522 134.572 166.522 136.292 167.582 137.352C168.643 138.413 170.363 138.413 171.423 137.352Z" fill="black"/>
<path d="M178.606 144.535C179.804 143.336 179.804 141.393 178.606 140.195C177.407 138.996 175.464 138.996 174.266 140.195C173.067 141.393 173.067 143.336 174.266 144.535C175.464 145.733 177.407 145.733 178.606 144.535Z" fill="black"/>
<path d="M185.788 151.717C187.124 150.381 187.124 148.214 185.788 146.878C184.452 145.542 182.285 145.542 180.949 146.878C179.613 148.214 179.613 150.381 180.949 151.717C182.285 153.053 184.452 153.053 185.788 151.717Z" fill="black"/>
<path d="M192.97 158.9C194.444 157.425 194.444 155.035 192.97 153.561C191.496 152.087 189.106 152.087 187.632 153.561C186.158 155.035 186.158 157.425 187.632 158.9C189.106 160.374 191.496 160.374 192.97 158.9Z" fill="black"/>
<path d="M200.153 166.082C201.765 164.47 201.765 161.856 200.153 160.244C198.541 158.633 195.927 158.633 194.315 160.244C192.703 161.856 192.703 164.47 194.315 166.082C195.927 167.694 198.541 167.694 200.153 166.082Z" fill="black"/>
<path d="M207.335 173.264C209.085 171.514 209.085 168.677 207.335 166.928C205.585 165.178 202.748 165.178 200.998 166.928C199.249 168.677 199.249 171.514 200.998 173.264C202.748 175.014 205.585 175.014 207.335 173.264Z" fill="black"/>
<path d="M214.517 180.447C216.405 178.559 216.405 175.499 214.517 173.611C212.63 171.723 209.569 171.723 207.682 173.611C205.794 175.499 205.794 178.559 207.682 180.447C209.569 182.334 212.63 182.334 214.517 180.447Z" fill="black"/>
<path d="M221.7 187.629C223.725 185.603 223.725 182.32 221.7 180.294C219.674 178.269 216.39 178.269 214.365 180.294C212.339 182.32 212.339 185.603 214.365 187.629C216.39 189.654 219.674 189.654 221.7 187.629Z" fill="black"/>
<path d="M228.633 194.562C230.658 192.536 230.658 189.252 228.633 187.227C226.607 185.201 223.323 185.201 221.298 187.227C219.272 189.252 219.272 192.536 221.298 194.562C223.323 196.587 226.607 196.587 228.633 194.562Z" fill="black"/>
<path d="M235.316 201.245C237.203 199.357 237.203 196.297 235.316 194.409C233.428 192.522 230.368 192.522 228.48 194.409C226.592 196.297 226.592 199.357 228.48 201.245C230.368 203.133 233.428 203.133 235.316 201.245Z" fill="black"/>
<path d="M241.999 207.928C243.749 206.178 243.749 203.341 241.999 201.592C240.249 199.842 237.412 199.842 235.662 201.592C233.913 203.341 233.913 206.178 235.662 207.928C237.412 209.678 240.249 209.678 241.999 207.928Z" fill="black"/>
<path d="M248.682 214.611C250.294 212.999 250.294 210.386 248.682 208.774C247.07 207.162 244.457 207.162 242.845 208.774C241.233 210.386 241.233 212.999 242.845 214.611C244.457 216.223 247.07 216.223 248.682 214.611Z" fill="black"/>
<path d="M255.365 221.295C256.839 219.82 256.839 217.43 255.365 215.956C253.891 214.482 251.501 214.482 250.027 215.956C248.553 217.43 248.553 219.82 250.027 221.295C251.501 222.769 253.891 222.769 255.365 221.295Z" fill="black"/>
<path d="M262.049 227.978C263.385 226.641 263.385 224.475 262.049 223.139C260.712 221.802 258.546 221.802 257.209 223.139C255.873 224.475 255.873 226.641 257.209 227.978C258.546 229.314 260.712 229.314 262.049 227.978Z" fill="black"/>
<path d="M268.732 234.661C269.93 233.463 269.93 231.519 268.732 230.321C267.533 229.123 265.59 229.123 264.392 230.321C263.193 231.519 263.193 233.463 264.392 234.661C265.59 235.859 267.533 235.859 268.732 234.661Z" fill="black"/>
<path d="M275.415 241.344C276.476 240.284 276.476 238.564 275.415 237.503C274.354 236.443 272.635 236.443 271.574 237.503C270.514 238.564 270.514 240.284 271.574 241.344C272.635 242.405 274.354 242.405 275.415 241.344Z" fill="black"/>
<path d="M282.098 248.027C283.021 247.105 283.021 245.609 282.098 244.686C281.175 243.763 279.679 243.763 278.757 244.686C277.834 245.609 277.834 247.105 278.757 248.027C279.679 248.95 281.175 248.95 282.098 248.027Z" fill="black"/>
<path d="M288.781 254.711C289.566 253.926 289.566 252.653 288.781 251.868C287.996 251.083 286.724 251.083 285.939 251.868C285.154 252.653 285.154 253.926 285.939 254.711C286.724 255.495 287.996 255.495 288.781 254.711Z" fill="black"/>
<path d="M295.465 261.394C296.112 260.747 296.112 259.698 295.465 259.05C294.817 258.403 293.768 258.403 293.121 259.05C292.474 259.698 292.474 260.747 293.121 261.394C293.768 262.041 294.817 262.041 295.465 261.394Z" fill="black"/>
<path d="M163.936 115.999C164.69 115.245 164.69 114.022 163.936 113.268C163.182 112.514 161.959 112.514 161.204 113.268C160.45 114.022 160.45 115.245 161.204 115.999C161.959 116.754 163.182 116.754 163.936 115.999Z" fill="black"/>
<path d="M171.09 123.154C171.967 122.277 171.967 120.856 171.09 119.979C170.214 119.102 168.792 119.102 167.915 119.979C167.038 120.856 167.038 122.277 167.915 123.154C168.792 124.031 170.214 124.031 171.09 123.154Z" fill="black"/>
<path d="M178.245 130.309C179.244 129.309 179.244 127.689 178.245 126.69C177.246 125.69 175.625 125.69 174.626 126.69C173.627 127.689 173.627 129.309 174.626 130.309C175.625 131.308 177.246 131.308 178.245 130.309Z" fill="black"/>
<path d="M185.4 137.463C186.522 136.341 186.522 134.523 185.4 133.401C184.278 132.279 182.459 132.279 181.337 133.401C180.215 134.523 180.215 136.341 181.337 137.463C182.459 138.585 184.278 138.585 185.4 137.463Z" fill="black"/>
<path d="M192.554 144.618C193.799 143.374 193.799 141.356 192.554 140.112C191.31 138.867 189.292 138.867 188.048 140.112C186.804 141.356 186.804 143.374 188.048 144.618C189.292 145.862 191.31 145.862 192.554 144.618Z" fill="black"/>
<path d="M199.709 151.773C201.076 150.406 201.076 148.19 199.709 146.823C198.342 145.456 196.126 145.456 194.759 146.823C193.392 148.19 193.392 150.406 194.759 151.773C196.126 153.14 198.342 153.14 199.709 151.773Z" fill="black"/>
<path d="M206.864 158.927C208.353 157.438 208.353 155.023 206.864 153.534C205.374 152.044 202.959 152.044 201.47 153.534C199.98 155.023 199.98 157.438 201.47 158.927C202.959 160.417 205.374 160.417 206.864 158.927Z" fill="black"/>
<path d="M214.018 166.082C215.63 164.47 215.63 161.856 214.018 160.244C212.406 158.633 209.793 158.633 208.181 160.244C206.569 161.856 206.569 164.47 208.181 166.082C209.793 167.694 212.406 167.694 214.018 166.082Z" fill="black"/>
<path d="M221.173 173.237C222.907 171.502 222.907 168.69 221.173 166.955C219.438 165.221 216.626 165.221 214.892 166.955C213.157 168.69 213.157 171.502 214.892 173.237C216.626 174.971 219.438 174.971 221.173 173.237Z" fill="black"/>
<path d="M228.327 180.391C230.184 178.534 230.184 175.523 228.327 173.666C226.47 171.809 223.46 171.809 221.603 173.666C219.746 175.523 219.746 178.534 221.603 180.391C223.46 182.248 226.47 182.248 228.327 180.391Z" fill="black"/>
<path d="M235.26 187.324C237.117 185.467 237.117 182.456 235.26 180.599C233.403 178.742 230.392 178.742 228.535 180.599C226.678 182.456 226.678 185.467 228.535 187.324C230.392 189.181 233.403 189.181 235.26 187.324Z" fill="black"/>
<path d="M241.971 194.035C243.706 192.3 243.706 189.488 241.971 187.754C240.237 186.019 237.425 186.019 235.69 187.754C233.956 189.488 233.956 192.3 235.69 194.035C237.425 195.769 240.237 195.769 241.971 194.035Z" fill="black"/>
<path d="M248.682 200.746C250.294 199.134 250.294 196.52 248.682 194.908C247.07 193.296 244.457 193.296 242.845 194.908C241.233 196.52 241.233 199.134 242.845 200.746C244.457 202.358 247.07 202.358 248.682 200.746Z" fill="black"/>
<path d="M255.393 207.457C256.882 205.967 256.882 203.552 255.393 202.063C253.904 200.574 251.489 200.574 249.999 202.063C248.51 203.552 248.51 205.967 249.999 207.457C251.489 208.946 253.904 208.946 255.393 207.457Z" fill="black"/>
<path d="M262.104 214.168C263.471 212.801 263.471 210.585 262.104 209.218C260.737 207.851 258.521 207.851 257.154 209.218C255.787 210.585 255.787 212.801 257.154 214.168C258.521 215.535 260.737 215.535 262.104 214.168Z" fill="black"/>
<path d="M268.815 220.879C270.059 219.634 270.059 217.617 268.815 216.372C267.571 215.128 265.553 215.128 264.309 216.372C263.064 217.617 263.064 219.634 264.309 220.879C265.553 222.123 267.571 222.123 268.815 220.879Z" fill="black"/>
<path d="M275.526 227.59C276.648 226.468 276.648 224.649 275.526 223.527C274.404 222.405 272.585 222.405 271.463 223.527C270.341 224.649 270.341 226.468 271.463 227.59C272.585 228.711 274.404 228.711 275.526 227.59Z" fill="black"/>
<path d="M282.237 234.3C283.236 233.301 283.236 231.681 282.237 230.682C281.237 229.682 279.617 229.682 278.618 230.682C277.619 231.681 277.619 233.301 278.618 234.3C279.617 235.3 281.237 235.3 282.237 234.3Z" fill="black"/>
<path d="M288.948 241.011C289.825 240.135 289.825 238.713 288.948 237.836C288.071 236.959 286.649 236.959 285.773 237.836C284.896 238.713 284.896 240.135 285.773 241.011C286.649 241.888 288.071 241.888 288.948 241.011Z" fill="black"/>
<path d="M295.659 247.722C296.413 246.968 296.413 245.745 295.659 244.991C294.904 244.237 293.681 244.237 292.927 244.991C292.173 245.745 292.173 246.968 292.927 247.722C293.681 248.477 294.904 248.477 295.659 247.722Z" fill="black"/>
<path d="M170.813 109.011C171.537 108.288 171.537 107.114 170.813 106.391C170.089 105.667 168.916 105.667 168.193 106.391C167.469 107.114 167.469 108.288 168.193 109.011C168.916 109.735 170.089 109.735 170.813 109.011Z" fill="black"/>
<path d="M177.94 116.138C178.771 115.307 178.771 113.96 177.94 113.129C177.109 112.298 175.762 112.298 174.931 113.129C174.1 113.96 174.1 115.307 174.931 116.138C175.762 116.969 177.109 116.969 177.94 116.138Z" fill="black"/>
<path d="M185.067 123.265C186.005 122.327 186.005 120.806 185.067 119.868C184.129 118.93 182.608 118.93 181.67 119.868C180.732 120.806 180.732 122.327 181.67 123.265C182.608 124.203 184.129 124.203 185.067 123.265Z" fill="black"/>
<path d="M192.194 130.392C193.239 129.347 193.239 127.652 192.194 126.607C191.149 125.561 189.454 125.561 188.409 126.607C187.363 127.652 187.363 129.347 188.409 130.392C189.454 131.437 191.149 131.437 192.194 130.392Z" fill="black"/>
<path d="M199.321 137.519C200.473 136.366 200.473 134.498 199.321 133.345C198.168 132.193 196.3 132.193 195.147 133.345C193.995 134.498 193.995 136.366 195.147 137.519C196.3 138.671 198.168 138.671 199.321 137.519Z" fill="black"/>
<path d="M206.448 144.646C207.707 143.386 207.707 141.344 206.448 140.084C205.188 138.824 203.146 138.824 201.886 140.084C200.626 141.344 200.626 143.386 201.886 144.646C203.146 145.905 205.188 145.905 206.448 144.646Z" fill="black"/>
<path d="M213.575 151.773C214.941 150.406 214.941 148.19 213.575 146.823C212.208 145.456 209.991 145.456 208.625 146.823C207.258 148.19 207.258 150.406 208.625 151.773C209.991 153.14 212.208 153.14 213.575 151.773Z" fill="black"/>
<path d="M220.701 158.9C222.176 157.425 222.176 155.035 220.701 153.561C219.227 152.087 216.837 152.087 215.363 153.561C213.889 155.035 213.889 157.425 215.363 158.9C216.837 160.374 219.227 160.374 220.701 158.9Z" fill="black"/>
<path d="M227.828 166.026C229.41 164.445 229.41 161.881 227.828 160.3C226.247 158.719 223.683 158.719 222.102 160.3C220.521 161.881 220.521 164.445 222.102 166.026C223.683 167.608 226.247 167.608 227.828 166.026Z" fill="black"/>
<path d="M234.955 173.153C236.644 171.465 236.644 168.727 234.955 167.039C233.267 165.35 230.529 165.35 228.84 167.039C227.152 168.727 227.152 171.465 228.84 173.153C230.529 174.842 233.267 174.842 234.955 173.153Z" fill="black"/>
<path d="M241.888 180.086C243.577 178.398 243.577 175.66 241.888 173.971C240.199 172.283 237.462 172.283 235.773 173.971C234.085 175.66 234.085 178.398 235.773 180.086C237.462 181.775 240.199 181.775 241.888 180.086Z" fill="black"/>
<path d="M248.627 186.825C250.208 185.243 250.208 182.68 248.627 181.098C247.045 179.517 244.482 179.517 242.9 181.098C241.319 182.68 241.319 185.243 242.9 186.825C244.482 188.406 247.045 188.406 248.627 186.825Z" fill="black"/>
<path d="M255.365 193.563C256.839 192.089 256.839 189.699 255.365 188.225C253.891 186.751 251.501 186.751 250.027 188.225C248.553 189.699 248.553 192.089 250.027 193.563C251.501 195.038 253.891 195.038 255.365 193.563Z" fill="black"/>
<path d="M262.104 200.302C263.471 198.935 263.471 196.719 262.104 195.352C260.737 193.985 258.521 193.985 257.154 195.352C255.787 196.719 255.787 198.935 257.154 200.302C258.521 201.669 260.737 201.669 262.104 200.302Z" fill="black"/>
<path d="M268.843 207.041C270.102 205.781 270.102 203.739 268.843 202.479C267.583 201.219 265.541 201.219 264.281 202.479C263.021 203.739 263.021 205.781 264.281 207.041C265.541 208.3 267.583 208.3 268.843 207.041Z" fill="black"/>
<path d="M275.581 213.779C276.734 212.627 276.734 210.758 275.581 209.606C274.429 208.453 272.56 208.453 271.408 209.606C270.255 210.758 270.255 212.627 271.408 213.779C272.56 214.932 274.429 214.932 275.581 213.779Z" fill="black"/>
<path d="M282.32 220.518C283.365 219.473 283.365 217.778 282.32 216.733C281.275 215.688 279.58 215.688 278.535 216.733C277.489 217.778 277.489 219.473 278.535 220.518C279.58 221.563 281.275 221.563 282.32 220.518Z" fill="black"/>
<path d="M289.059 227.257C289.997 226.319 289.997 224.798 289.059 223.86C288.121 222.922 286.6 222.922 285.662 223.86C284.724 224.798 284.724 226.319 285.662 227.257C286.6 228.195 288.121 228.195 289.059 227.257Z" fill="black"/>
<path d="M295.797 233.995C296.628 233.165 296.628 231.817 295.797 230.987C294.966 230.156 293.619 230.156 292.788 230.987C291.958 231.817 291.958 233.165 292.788 233.995C293.619 234.826 294.966 234.826 295.797 233.995Z" fill="black"/>
<path d="M302.536 240.734C303.26 240.01 303.26 238.837 302.536 238.113C301.812 237.39 300.639 237.39 299.915 238.113C299.192 238.837 299.192 240.01 299.915 240.734C300.639 241.458 301.812 241.458 302.536 240.734Z" fill="black"/>
<path d="M177.69 102.023C178.383 101.33 178.383 100.206 177.69 99.5133C176.997 98.8203 175.874 98.8203 175.181 99.5133C174.488 100.206 174.488 101.33 175.181 102.023C175.874 102.716 176.997 102.716 177.69 102.023Z" fill="black"/>
<path d="M184.79 109.122C185.575 108.337 185.575 107.065 184.79 106.28C184.005 105.495 182.732 105.495 181.947 106.28C181.162 107.065 181.162 108.337 181.947 109.122C182.732 109.907 184.005 109.907 184.79 109.122Z" fill="black"/>
<path d="M191.889 116.221C192.766 115.345 192.766 113.923 191.889 113.046C191.012 112.169 189.59 112.169 188.714 113.046C187.837 113.923 187.837 115.344 188.714 116.221C189.59 117.098 191.012 117.098 191.889 116.221Z" fill="black"/>
<path d="M198.988 123.32C199.957 122.352 199.957 120.781 198.988 119.812C198.019 118.844 196.449 118.844 195.48 119.812C194.511 120.781 194.511 122.352 195.48 123.32C196.449 124.289 198.019 124.289 198.988 123.32Z" fill="black"/>
<path d="M206.087 130.42C207.148 129.359 207.148 127.639 206.087 126.579C205.027 125.518 203.307 125.518 202.246 126.579C201.186 127.639 201.186 129.359 202.246 130.42C203.307 131.48 205.027 131.48 206.087 130.42Z" fill="black"/>
<path d="M213.186 137.519C214.339 136.366 214.339 134.498 213.186 133.345C212.034 132.193 210.165 132.193 209.013 133.345C207.86 134.498 207.86 136.366 209.013 137.519C210.165 138.671 212.034 138.671 213.186 137.519Z" fill="black"/>
<path d="M220.285 144.618C221.53 143.374 221.53 141.356 220.285 140.112C219.041 138.867 217.024 138.867 215.779 140.112C214.535 141.356 214.535 143.374 215.779 144.618C217.024 145.862 219.041 145.862 220.285 144.618Z" fill="black"/>
<path d="M227.385 151.717C228.721 150.381 228.721 148.214 227.385 146.878C226.048 145.542 223.882 145.542 222.546 146.878C221.209 148.214 221.209 150.381 222.546 151.717C223.882 153.053 226.048 153.053 227.385 151.717Z" fill="black"/>
<path d="M234.484 158.816C235.912 157.388 235.912 155.073 234.484 153.644C233.056 152.216 230.74 152.216 229.312 153.644C227.884 155.073 227.884 157.388 229.312 158.816C230.74 160.244 233.056 160.244 234.484 158.816Z" fill="black"/>
<path d="M241.583 165.915C243.103 164.395 243.103 161.931 241.583 160.411C240.063 158.891 237.598 158.891 236.078 160.411C234.558 161.931 234.558 164.395 236.078 165.915C237.598 167.436 240.063 167.436 241.583 165.915Z" fill="black"/>
<path d="M248.516 172.848C250.036 171.328 250.036 168.864 248.516 167.344C246.996 165.824 244.531 165.824 243.011 167.344C241.491 168.864 241.491 171.328 243.011 172.848C244.531 174.368 246.996 174.368 248.516 172.848Z" fill="black"/>
<path d="M255.282 179.615C256.71 178.186 256.71 175.871 255.282 174.443C253.854 173.015 251.538 173.015 250.11 174.443C248.682 175.871 248.682 178.186 250.11 179.615C251.538 181.043 253.854 181.043 255.282 179.615Z" fill="black"/>
<path d="M262.049 186.381C263.385 185.045 263.385 182.878 262.049 181.542C260.712 180.206 258.546 180.206 257.209 181.542C255.873 182.878 255.873 185.045 257.209 186.381C258.546 187.717 260.712 187.717 262.049 186.381Z" fill="black"/>
<path d="M268.815 193.147C270.059 191.903 270.059 189.886 268.815 188.641C267.571 187.397 265.553 187.397 264.309 188.641C263.064 189.886 263.064 191.903 264.309 193.147C265.553 194.392 267.571 194.392 268.815 193.147Z" fill="black"/>
<path d="M275.581 199.914C276.734 198.761 276.734 196.893 275.581 195.74C274.429 194.588 272.56 194.588 271.408 195.74C270.255 196.893 270.255 198.761 271.408 199.914C272.56 201.066 274.429 201.066 275.581 199.914Z" fill="black"/>
<path d="M282.348 206.68C283.408 205.62 283.408 203.9 282.348 202.839C281.287 201.779 279.568 201.779 278.507 202.839C277.446 203.9 277.446 205.62 278.507 206.68C279.568 207.741 281.287 207.741 282.348 206.68Z" fill="black"/>
<path d="M289.114 213.447C290.083 212.478 290.083 210.907 289.114 209.939C288.145 208.97 286.575 208.97 285.606 209.939C284.637 210.907 284.637 212.478 285.606 213.447C286.575 214.415 288.145 214.415 289.114 213.447Z" fill="black"/>
<path d="M295.88 220.213C296.757 219.336 296.757 217.915 295.88 217.038C295.004 216.161 293.582 216.161 292.705 217.038C291.828 217.915 291.828 219.336 292.705 220.213C293.582 221.09 295.004 221.09 295.88 220.213Z" fill="black"/>
<path d="M302.647 226.979C303.432 226.195 303.432 224.922 302.647 224.137C301.862 223.352 300.589 223.352 299.804 224.137C299.02 224.922 299.02 226.195 299.804 226.979C300.589 227.764 301.862 227.764 302.647 226.979Z" fill="black"/>
<path d="M309.413 233.746C310.106 233.053 310.106 231.929 309.413 231.236C308.72 230.543 307.597 230.543 306.904 231.236C306.211 231.929 306.211 233.053 306.904 233.746C307.597 234.439 308.72 234.439 309.413 233.746Z" fill="black"/>
<path d="M191.639 102.106C192.378 101.367 192.378 100.169 191.639 99.4301C190.9 98.6912 189.702 98.6911 188.963 99.4301C188.224 100.169 188.224 101.367 188.963 102.106C189.702 102.845 190.9 102.845 191.639 102.106Z" fill="black"/>
<path d="M198.711 109.178C199.526 108.362 199.526 107.04 198.711 106.224C197.895 105.409 196.573 105.409 195.757 106.224C194.942 107.04 194.942 108.362 195.757 109.178C196.573 109.993 197.895 109.993 198.711 109.178Z" fill="black"/>
<path d="M205.782 116.249C206.674 115.357 206.674 113.91 205.782 113.018C204.89 112.126 203.444 112.126 202.551 113.018C201.659 113.91 201.659 115.357 202.551 116.249C203.444 117.141 204.89 117.141 205.782 116.249Z" fill="black"/>
<path d="M212.854 123.32C213.822 122.352 213.822 120.781 212.854 119.812C211.885 118.844 210.314 118.844 209.346 119.812C208.377 120.781 208.377 122.352 209.346 123.32C210.314 124.289 211.885 124.289 212.854 123.32Z" fill="black"/>
<path d="M219.925 130.392C220.97 129.347 220.97 127.652 219.925 126.607C218.88 125.561 217.185 125.561 216.14 126.607C215.094 127.652 215.094 129.347 216.14 130.392C217.185 131.437 218.88 131.437 219.925 130.392Z" fill="black"/>
<path d="M226.996 137.463C228.118 136.341 228.118 134.523 226.996 133.401C225.875 132.279 224.056 132.279 222.934 133.401C221.812 134.523 221.812 136.341 222.934 137.463C224.056 138.585 225.875 138.585 226.996 137.463Z" fill="black"/>
<path d="M234.068 144.535C235.266 143.336 235.266 141.393 234.068 140.195C232.869 138.996 230.926 138.996 229.728 140.195C228.529 141.393 228.529 143.336 229.728 144.535C230.926 145.733 232.869 145.733 234.068 144.535Z" fill="black"/>
<path d="M241.139 151.606C242.414 150.331 242.414 148.264 241.139 146.989C239.864 145.714 237.797 145.714 236.522 146.989C235.247 148.264 235.247 150.331 236.522 151.606C237.797 152.881 239.864 152.881 241.139 151.606Z" fill="black"/>
<path d="M248.211 158.678C249.562 157.326 249.562 155.135 248.211 153.783C246.859 152.432 244.668 152.432 243.316 153.783C241.965 155.135 241.965 157.326 243.316 158.678C244.668 160.029 246.859 160.029 248.211 158.678Z" fill="black"/>
<path d="M255.143 165.61C256.495 164.259 256.495 162.067 255.143 160.716C253.792 159.364 251.601 159.364 250.249 160.716C248.897 162.067 248.897 164.259 250.249 165.61C251.601 166.962 253.792 166.962 255.143 165.61Z" fill="black"/>
<path d="M261.938 172.405C263.213 171.13 263.213 169.062 261.938 167.787C260.663 166.512 258.595 166.512 257.32 167.787C256.045 169.062 256.045 171.13 257.32 172.405C258.595 173.68 260.663 173.68 261.938 172.405Z" fill="black"/>
<path d="M268.732 179.199C269.93 178 269.93 176.057 268.732 174.859C267.533 173.66 265.59 173.66 264.392 174.859C263.193 176.057 263.193 178 264.392 179.199C265.59 180.397 267.533 180.397 268.732 179.199Z" fill="black"/>
<path d="M275.526 185.993C276.648 184.871 276.648 183.052 275.526 181.93C274.404 180.808 272.585 180.808 271.463 181.93C270.341 183.052 270.341 184.871 271.463 185.993C272.585 187.115 274.404 187.115 275.526 185.993Z" fill="black"/>
<path d="M282.32 192.787C283.365 191.742 283.365 190.047 282.32 189.002C281.275 187.956 279.58 187.956 278.535 189.002C277.489 190.047 277.489 191.742 278.535 192.787C279.58 193.832 281.275 193.832 282.32 192.787Z" fill="black"/>
<path d="M289.114 199.581C290.083 198.612 290.083 197.042 289.114 196.073C288.145 195.104 286.575 195.104 285.606 196.073C284.637 197.042 284.637 198.612 285.606 199.581C286.575 200.55 288.145 200.55 289.114 199.581Z" fill="black"/>
<path d="M295.908 206.375C296.8 205.483 296.8 204.037 295.908 203.145C295.016 202.252 293.57 202.252 292.678 203.145C291.785 204.037 291.785 205.483 292.678 206.375C293.57 207.267 295.016 207.267 295.908 206.375Z" fill="black"/>
<path d="M302.702 213.169C303.518 212.354 303.518 211.032 302.702 210.216C301.887 209.4 300.565 209.4 299.749 210.216C298.933 211.032 298.933 212.354 299.749 213.169C300.565 213.985 301.887 213.985 302.702 213.169Z" fill="black"/>
<path d="M309.496 219.963C310.235 219.224 310.235 218.026 309.496 217.287C308.758 216.548 307.559 216.548 306.82 217.287C306.081 218.026 306.081 219.224 306.82 219.963C307.559 220.702 308.758 220.702 309.496 219.963Z" fill="black"/>
<path d="M205.532 102.134C206.287 101.38 206.287 100.157 205.532 99.4024C204.778 98.6481 203.555 98.6481 202.801 99.4024C202.047 100.157 202.047 101.38 202.801 102.134C203.555 102.888 204.778 102.888 205.532 102.134Z" fill="black"/>
<path d="M212.576 109.178C213.392 108.362 213.392 107.04 212.576 106.224C211.761 105.409 210.438 105.409 209.623 106.224C208.807 107.04 208.807 108.362 209.623 109.178C210.438 109.993 211.761 109.993 212.576 109.178Z" fill="black"/>
<path d="M219.62 116.221C220.497 115.345 220.497 113.923 219.62 113.046C218.743 112.169 217.321 112.169 216.445 113.046C215.568 113.923 215.568 115.344 216.445 116.221C217.321 117.098 218.743 117.098 219.62 116.221Z" fill="black"/>
<path d="M226.664 123.265C227.602 122.327 227.602 120.806 226.664 119.868C225.726 118.93 224.205 118.93 223.267 119.868C222.328 120.806 222.328 122.327 223.267 123.265C224.205 124.203 225.726 124.203 226.664 123.265Z" fill="black"/>
<path d="M233.707 130.309C234.707 129.309 234.707 127.689 233.707 126.69C232.708 125.69 231.088 125.69 230.088 126.69C229.089 127.689 229.089 129.309 230.088 130.309C231.088 131.308 232.708 131.308 233.707 130.309Z" fill="black"/>
<path d="M240.751 137.352C241.812 136.292 241.812 134.572 240.751 133.512C239.69 132.451 237.971 132.451 236.91 133.512C235.85 134.572 235.85 136.292 236.91 137.352C237.971 138.413 239.69 138.413 240.751 137.352Z" fill="black"/>
<path d="M247.795 144.396C248.917 143.274 248.917 141.455 247.795 140.334C246.673 139.212 244.854 139.212 243.732 140.334C242.61 141.455 242.61 143.274 243.732 144.396C244.854 145.518 246.673 145.518 247.795 144.396Z" fill="black"/>
<path d="M254.838 151.44C256.022 150.257 256.022 148.339 254.838 147.155C253.655 145.972 251.737 145.972 250.554 147.155C249.371 148.339 249.371 150.257 250.554 151.44C251.737 152.623 253.655 152.623 254.838 151.44Z" fill="black"/>
<path d="M261.771 158.373C262.954 157.19 262.954 155.271 261.771 154.088C260.588 152.905 258.67 152.905 257.487 154.088C256.304 155.271 256.304 157.19 257.487 158.373C258.67 159.556 260.588 159.556 261.771 158.373Z" fill="black"/>
<path d="M268.593 165.194C269.715 164.073 269.715 162.254 268.593 161.132C267.471 160.01 265.652 160.01 264.53 161.132C263.409 162.254 263.409 164.073 264.53 165.194C265.652 166.316 267.471 166.316 268.593 165.194Z" fill="black"/>
<path d="M275.415 172.016C276.476 170.956 276.476 169.236 275.415 168.176C274.354 167.115 272.635 167.115 271.574 168.176C270.514 169.236 270.514 170.956 271.574 172.016C272.635 173.077 274.354 173.077 275.415 172.016Z" fill="black"/>
<path d="M282.237 178.838C283.236 177.839 283.236 176.219 282.237 175.219C281.237 174.22 279.617 174.22 278.618 175.219C277.619 176.219 277.619 177.839 278.618 178.838C279.617 179.838 281.237 179.838 282.237 178.838Z" fill="black"/>
<path d="M289.059 185.66C289.997 184.722 289.997 183.201 289.059 182.263C288.121 181.325 286.6 181.325 285.662 182.263C284.724 183.201 284.724 184.722 285.662 185.66C286.6 186.598 288.121 186.598 289.059 185.66Z" fill="black"/>
<path d="M295.88 192.482C296.757 191.605 296.757 190.184 295.88 189.307C295.004 188.43 293.582 188.43 292.705 189.307C291.828 190.184 291.828 191.605 292.705 192.482C293.582 193.359 295.004 193.359 295.88 192.482Z" fill="black"/>
<path d="M302.702 199.304C303.518 198.488 303.518 197.166 302.702 196.35C301.887 195.535 300.565 195.535 299.749 196.35C298.933 197.166 298.933 198.488 299.749 199.304C300.565 200.119 301.887 200.119 302.702 199.304Z" fill="black"/>
<path d="M309.524 206.126C310.279 205.371 310.279 204.148 309.524 203.394C308.77 202.64 307.547 202.64 306.793 203.394C306.038 204.148 306.038 205.371 306.793 206.126C307.547 206.88 308.77 206.88 309.524 206.126Z" fill="black"/>
<path d="M219.37 102.106C220.109 101.367 220.109 100.169 219.37 99.4301C218.631 98.6912 217.433 98.6911 216.694 99.4301C215.955 100.169 215.955 101.367 216.694 102.106C217.433 102.845 218.631 102.845 219.37 102.106Z" fill="black"/>
<path d="M226.386 109.122C227.171 108.337 227.171 107.065 226.386 106.28C225.601 105.495 224.329 105.495 223.544 106.28C222.759 107.065 222.759 108.337 223.544 109.122C224.329 109.907 225.601 109.907 226.386 109.122Z" fill="black"/>
<path d="M233.402 116.138C234.233 115.307 234.233 113.96 233.402 113.129C232.571 112.298 231.224 112.298 230.393 113.129C229.563 113.96 229.563 115.307 230.393 116.138C231.224 116.969 232.571 116.969 233.402 116.138Z" fill="black"/>
<path d="M240.418 123.154C241.295 122.277 241.295 120.856 240.418 119.979C239.541 119.102 238.12 119.102 237.243 119.979C236.366 120.856 236.366 122.277 237.243 123.154C238.12 124.031 239.541 124.031 240.418 123.154Z" fill="black"/>
<path d="M247.434 130.17C248.357 129.247 248.357 127.751 247.434 126.828C246.511 125.906 245.015 125.906 244.093 126.828C243.17 127.751 243.17 129.247 244.093 130.17C245.015 131.093 246.511 131.093 247.434 130.17Z" fill="black"/>
<path d="M254.45 137.186C255.419 136.217 255.419 134.647 254.45 133.678C253.481 132.709 251.911 132.709 250.942 133.678C249.973 134.647 249.973 136.217 250.942 137.186C251.911 138.155 253.481 138.155 254.45 137.186Z" fill="black"/>
<path d="M261.466 144.202C262.481 143.187 262.481 141.542 261.466 140.528C260.452 139.513 258.806 139.513 257.792 140.528C256.777 141.542 256.777 143.187 257.792 144.202C258.806 145.217 260.452 145.217 261.466 144.202Z" fill="black"/>
<path d="M268.399 151.135C269.414 150.12 269.414 148.475 268.399 147.46C267.384 146.446 265.739 146.446 264.725 147.46C263.71 148.475 263.71 150.12 264.725 151.135C265.739 152.149 267.384 152.149 268.399 151.135Z" fill="black"/>
<path d="M275.249 157.984C276.217 157.016 276.217 155.445 275.249 154.476C274.28 153.508 272.709 153.508 271.741 154.476C270.772 155.445 270.772 157.016 271.741 157.984C272.709 158.953 274.28 158.953 275.249 157.984Z" fill="black"/>
<path d="M282.098 164.834C283.021 163.911 283.021 162.415 282.098 161.492C281.175 160.57 279.679 160.57 278.757 161.492C277.834 162.415 277.834 163.911 278.757 164.834C279.679 165.757 281.175 165.757 282.098 164.834Z" fill="black"/>
<path d="M288.948 171.684C289.825 170.807 289.825 169.385 288.948 168.508C288.071 167.632 286.649 167.632 285.773 168.508C284.896 169.385 284.896 170.807 285.773 171.684C286.649 172.56 288.071 172.56 288.948 171.684Z" fill="black"/>
<path d="M295.797 178.533C296.628 177.702 296.628 176.355 295.797 175.524C294.966 174.693 293.619 174.693 292.788 175.524C291.958 176.355 291.958 177.702 292.788 178.533C293.619 179.364 294.966 179.364 295.797 178.533Z" fill="black"/>
<path d="M302.647 185.383C303.432 184.598 303.432 183.325 302.647 182.54C301.862 181.755 300.589 181.755 299.804 182.54C299.02 183.325 299.02 184.598 299.804 185.383C300.589 186.168 301.862 186.168 302.647 185.383Z" fill="black"/>
<path d="M309.496 192.232C310.235 191.493 310.235 190.295 309.496 189.556C308.758 188.817 307.559 188.817 306.82 189.556C306.081 190.295 306.081 191.493 306.82 192.232C307.559 192.971 308.758 192.971 309.496 192.232Z" fill="black"/>
<path d="M233.153 102.023C233.846 101.33 233.846 100.206 233.153 99.5133C232.46 98.8203 231.336 98.8203 230.643 99.5133C229.95 100.206 229.95 101.33 230.643 102.023C231.336 102.716 232.46 102.716 233.153 102.023Z" fill="black"/>
<path d="M240.141 109.011C240.865 108.288 240.865 107.114 240.141 106.391C239.417 105.667 238.244 105.667 237.52 106.391C236.797 107.114 236.797 108.288 237.52 109.011C238.244 109.735 239.417 109.735 240.141 109.011Z" fill="black"/>
<path d="M247.129 115.999C247.883 115.245 247.883 114.022 247.129 113.268C246.375 112.514 245.152 112.514 244.398 113.268C243.643 114.022 243.643 115.245 244.398 115.999C245.152 116.754 246.375 116.754 247.129 115.999Z" fill="black"/>
<path d="M254.117 122.988C254.902 122.203 254.902 120.93 254.117 120.145C253.333 119.36 252.06 119.36 251.275 120.145C250.49 120.93 250.49 122.203 251.275 122.988C252.06 123.773 253.333 123.773 254.117 122.988Z" fill="black"/>
<path d="M261.106 129.976C261.921 129.16 261.921 127.838 261.106 127.023C260.29 126.207 258.968 126.207 258.152 127.023C257.337 127.838 257.337 129.16 258.152 129.976C258.968 130.792 260.29 130.791 261.106 129.976Z" fill="black"/>
<path d="M268.094 136.964C268.94 136.118 268.94 134.746 268.094 133.9C267.248 133.054 265.876 133.054 265.03 133.9C264.183 134.746 264.183 136.118 265.03 136.964C265.876 137.81 267.248 137.81 268.094 136.964Z" fill="black"/>
<path d="M275.027 143.897C275.873 143.051 275.873 141.679 275.027 140.833C274.181 139.987 272.809 139.987 271.962 140.833C271.116 141.679 271.116 143.051 271.962 143.897C272.809 144.743 274.181 144.743 275.027 143.897Z" fill="black"/>
<path d="M281.904 150.774C282.72 149.959 282.72 148.636 281.904 147.821C281.088 147.005 279.766 147.005 278.951 147.821C278.135 148.636 278.135 149.959 278.951 150.774C279.766 151.59 281.088 151.59 281.904 150.774Z" fill="black"/>
<path d="M288.781 157.652C289.566 156.867 289.566 155.594 288.781 154.809C287.996 154.024 286.724 154.024 285.939 154.809C285.154 155.594 285.154 156.867 285.939 157.652C286.724 158.437 287.996 158.437 288.781 157.652Z" fill="black"/>
<path d="M295.659 164.529C296.413 163.775 296.413 162.552 295.659 161.797C294.904 161.043 293.681 161.043 292.927 161.797C292.173 162.552 292.173 163.775 292.927 164.529C293.681 165.283 294.904 165.283 295.659 164.529Z" fill="black"/>
<path d="M302.536 171.406C303.26 170.683 303.26 169.509 302.536 168.786C301.812 168.062 300.639 168.062 299.915 168.786C299.192 169.509 299.192 170.683 299.915 171.406C300.639 172.13 301.812 172.13 302.536 171.406Z" fill="black"/>
<path d="M309.413 178.284C310.106 177.591 310.106 176.467 309.413 175.774C308.72 175.081 307.597 175.081 306.904 175.774C306.211 176.467 306.211 177.591 306.904 178.284C307.597 178.977 308.72 178.977 309.413 178.284Z" fill="black"/>
<path d="M260.801 115.805C261.448 115.158 261.448 114.109 260.801 113.462C260.154 112.815 259.104 112.815 258.457 113.462C257.81 114.109 257.81 115.158 258.457 115.805C259.104 116.452 260.154 116.452 260.801 115.805Z" fill="black"/>
<path d="M267.761 122.766C268.424 122.103 268.424 121.03 267.761 120.367C267.099 119.705 266.025 119.705 265.362 120.367C264.7 121.03 264.7 122.103 265.362 122.766C266.025 123.428 267.099 123.428 267.761 122.766Z" fill="black"/>
<path d="M274.722 129.726C275.399 129.049 275.399 127.95 274.722 127.272C274.044 126.594 272.945 126.594 272.267 127.272C271.59 127.95 271.59 129.049 272.267 129.726C272.945 130.404 274.044 130.404 274.722 129.726Z" fill="black"/>
<path d="M281.654 136.659C282.332 135.981 282.332 134.883 281.654 134.205C280.977 133.527 279.878 133.527 279.2 134.205C278.523 134.883 278.523 135.981 279.2 136.659C279.878 137.337 280.977 137.337 281.654 136.659Z" fill="black"/>
<path d="M288.559 143.564C289.222 142.902 289.222 141.828 288.559 141.165C287.897 140.503 286.823 140.503 286.161 141.165C285.498 141.828 285.498 142.902 286.161 143.564C286.823 144.227 287.897 144.227 288.559 143.564Z" fill="black"/>
<path d="M295.465 150.469C296.112 149.822 296.112 148.773 295.465 148.126C294.817 147.479 293.768 147.479 293.121 148.126C292.474 148.773 292.474 149.822 293.121 150.469C293.768 151.116 294.817 151.116 295.465 150.469Z" fill="black"/>
</g>
<defs>
<clipPath id="clip0_15:469">
<rect width="264" height="264" fill="white"/>
</clipPath>
</defs>
</svg>
