<svg width="264" height="264" viewBox="0 0 264 264" fill="none" xmlns="http://www.w3.org/2000/svg">
<g clip-path="url(#clip0_12:85)">
<path d="M250.868 113.312C251.397 114.229 252.57 114.543 253.486 114.014C254.403 113.484 254.717 112.312 254.188 111.395C253.659 110.479 252.486 110.164 251.57 110.694C250.653 111.223 250.339 112.395 250.868 113.312Z" fill="black" fill-opacity="0.5"/>
<path d="M236.416 121.656C236.946 122.573 238.118 122.887 239.035 122.357C239.952 121.828 240.266 120.656 239.736 119.739C239.207 118.822 238.035 118.508 237.118 119.037C236.201 119.567 235.887 120.739 236.416 121.656Z" fill="black" fill-opacity="0.5"/>
<path d="M221.965 129.999C222.494 130.916 223.666 131.23 224.583 130.701C225.5 130.172 225.814 128.999 225.285 128.083C224.755 127.166 223.583 126.852 222.666 127.381C221.75 127.91 221.435 129.083 221.965 129.999Z" fill="black" fill-opacity="0.5"/>
<path d="M207.513 138.343C208.042 139.26 209.215 139.574 210.131 139.045C211.048 138.515 211.362 137.343 210.833 136.426C210.304 135.51 209.131 135.195 208.215 135.725C207.298 136.254 206.984 137.426 207.513 138.343Z" fill="black" fill-opacity="0.5"/>
<path d="M193.061 146.687C193.591 147.604 194.763 147.918 195.68 147.388C196.597 146.859 196.911 145.687 196.381 144.77C195.852 143.853 194.68 143.539 193.763 144.068C192.846 144.598 192.532 145.77 193.061 146.687Z" fill="black" fill-opacity="0.5"/>
<path d="M178.61 155.03C179.139 155.947 180.311 156.261 181.228 155.732C182.145 155.203 182.459 154.03 181.93 153.114C181.4 152.197 180.228 151.883 179.311 152.412C178.395 152.941 178.08 154.114 178.61 155.03Z" fill="black" fill-opacity="0.5"/>
<path d="M164.158 163.374C164.687 164.291 165.86 164.605 166.776 164.076C167.693 163.546 168.007 162.374 167.478 161.457C166.949 160.541 165.776 160.226 164.86 160.756C163.943 161.285 163.629 162.457 164.158 163.374Z" fill="black" fill-opacity="0.5"/>
<path d="M149.706 171.718C150.236 172.635 151.408 172.949 152.325 172.419C153.242 171.89 153.556 170.718 153.026 169.801C152.497 168.884 151.325 168.57 150.408 169.099C149.491 169.629 149.177 170.801 149.706 171.718Z" fill="black" fill-opacity="0.5"/>
<path d="M135.255 180.061C135.784 180.978 136.956 181.292 137.873 180.763C138.79 180.234 139.104 179.061 138.575 178.145C138.045 177.228 136.873 176.914 135.956 177.443C135.04 177.972 134.725 179.145 135.255 180.061Z" fill="black" fill-opacity="0.5"/>
<path d="M120.803 188.405C121.332 189.322 122.505 189.636 123.421 189.107C124.338 188.577 124.652 187.405 124.123 186.488C123.594 185.572 122.421 185.257 121.505 185.787C120.588 186.316 120.274 187.488 120.803 188.405Z" fill="black" fill-opacity="0.5"/>
<path d="M106.351 196.749C106.881 197.666 108.053 197.98 108.97 197.45C109.887 196.921 110.201 195.749 109.671 194.832C109.142 193.915 107.97 193.601 107.053 194.13C106.136 194.66 105.822 195.832 106.351 196.749Z" fill="black" fill-opacity="0.5"/>
<path d="M91.8997 205.092C92.429 206.009 93.6013 206.323 94.5181 205.794C95.4349 205.265 95.749 204.092 95.2197 203.176C94.6904 202.259 93.5181 201.945 92.6013 202.474C91.6846 203.003 91.3704 204.176 91.8997 205.092Z" fill="black" fill-opacity="0.5"/>
<path d="M77.4481 213.436C77.9774 214.353 79.1497 214.667 80.0664 214.138C80.9832 213.608 81.2973 212.436 80.768 211.519C80.2387 210.603 79.0664 210.289 78.1497 210.818C77.2329 211.347 76.9188 212.519 77.4481 213.436Z" fill="black" fill-opacity="0.5"/>
<path d="M62.9964 221.78C63.5257 222.697 64.698 223.011 65.6148 222.481C66.5315 221.952 66.8457 220.78 66.3163 219.863C65.787 218.946 64.6148 218.632 63.698 219.161C62.7812 219.691 62.4671 220.863 62.9964 221.78Z" fill="black" fill-opacity="0.5"/>
<path d="M48.5447 230.124C49.074 231.04 50.2463 231.354 51.1631 230.825C52.0799 230.296 52.394 229.124 51.8647 228.207C51.3354 227.29 50.1631 226.976 49.2463 227.505C48.3295 228.034 48.0154 229.207 48.5447 230.124Z" fill="black" fill-opacity="0.5"/>
<path d="M34.0931 238.467C34.6224 239.384 35.7946 239.698 36.7114 239.169C37.6282 238.639 37.9423 237.467 37.413 236.55C36.8837 235.634 35.7114 235.32 34.7947 235.849C33.8779 236.378 33.5638 237.55 34.0931 238.467Z" fill="black" fill-opacity="0.5"/>
<path d="M19.6414 246.811C20.1707 247.728 21.343 248.042 22.2598 247.512C23.1765 246.983 23.4906 245.811 22.9613 244.894C22.432 243.977 21.2598 243.663 20.343 244.193C19.4262 244.722 19.1121 245.894 19.6414 246.811Z" fill="black" fill-opacity="0.5"/>
<path d="M5.18973 255.155C5.71903 256.071 6.89131 256.385 7.80809 255.856C8.72486 255.327 9.03898 254.155 8.50968 253.238C7.98037 252.321 6.8081 252.007 5.89132 252.536C4.97454 253.065 4.66043 254.238 5.18973 255.155Z" fill="black" fill-opacity="0.5"/>
<path d="M-9.26192 263.498C-8.73262 264.415 -7.56036 264.729 -6.64358 264.2C-5.7268 263.67 -5.41269 262.498 -5.94199 261.581C-6.47129 260.665 -7.64357 260.351 -8.56035 260.88C-9.47713 261.409 -9.79122 262.581 -9.26192 263.498Z" fill="black" fill-opacity="0.5"/>
<path d="M266.225 123.714C266.822 124.748 268.144 125.103 269.178 124.506C270.212 123.909 270.567 122.587 269.97 121.553C269.373 120.519 268.051 120.164 267.017 120.761C265.983 121.358 265.628 122.68 266.225 123.714Z" fill="black" fill-opacity="0.5"/>
<path d="M251.774 132.058C252.371 133.092 253.693 133.446 254.727 132.849C255.761 132.252 256.115 130.93 255.518 129.896C254.921 128.862 253.599 128.508 252.565 129.105C251.531 129.702 251.177 131.024 251.774 132.058Z" fill="black" fill-opacity="0.5"/>
<path d="M237.322 140.402C237.919 141.436 239.241 141.79 240.275 141.193C241.309 140.596 241.663 139.274 241.066 138.24C240.469 137.206 239.147 136.852 238.113 137.449C237.079 138.046 236.725 139.368 237.322 140.402Z" fill="black" fill-opacity="0.5"/>
<path d="M222.87 148.745C223.467 149.779 224.789 150.134 225.823 149.537C226.857 148.94 227.212 147.618 226.615 146.584C226.018 145.55 224.696 145.195 223.662 145.792C222.628 146.389 222.273 147.711 222.87 148.745Z" fill="black" fill-opacity="0.5"/>
<path d="M208.419 157.089C209.016 158.123 210.338 158.477 211.372 157.88C212.406 157.283 212.76 155.961 212.163 154.927C211.566 153.893 210.244 153.539 209.21 154.136C208.176 154.733 207.822 156.055 208.419 157.089Z" fill="black" fill-opacity="0.5"/>
<path d="M193.967 165.433C194.564 166.467 195.886 166.821 196.92 166.224C197.954 165.627 198.308 164.305 197.711 163.271C197.114 162.237 195.792 161.883 194.758 162.48C193.724 163.077 193.37 164.399 193.967 165.433Z" fill="black" fill-opacity="0.5"/>
<path d="M179.515 173.776C180.112 174.81 181.434 175.165 182.468 174.568C183.502 173.971 183.857 172.649 183.26 171.615C182.663 170.581 181.341 170.226 180.307 170.823C179.273 171.42 178.918 172.742 179.515 173.776Z" fill="black" fill-opacity="0.5"/>
<path d="M165.064 182.12C165.661 183.154 166.983 183.508 168.017 182.911C169.051 182.314 169.405 180.992 168.808 179.958C168.211 178.924 166.889 178.57 165.855 179.167C164.821 179.764 164.467 181.086 165.064 182.12Z" fill="black" fill-opacity="0.5"/>
<path d="M150.612 190.464C151.209 191.498 152.531 191.852 153.565 191.255C154.599 190.658 154.953 189.336 154.356 188.302C153.759 187.268 152.437 186.914 151.403 187.511C150.369 188.108 150.015 189.43 150.612 190.464Z" fill="black" fill-opacity="0.5"/>
<path d="M136.16 198.807C136.757 199.841 138.079 200.196 139.113 199.599C140.147 199.002 140.502 197.68 139.905 196.646C139.308 195.612 137.986 195.257 136.952 195.854C135.918 196.451 135.563 197.774 136.16 198.807Z" fill="black" fill-opacity="0.5"/>
<path d="M121.709 207.151C122.306 208.185 123.628 208.539 124.662 207.942C125.696 207.345 126.05 206.023 125.453 204.989C124.856 203.955 123.534 203.601 122.5 204.198C121.466 204.795 121.112 206.117 121.709 207.151Z" fill="black" fill-opacity="0.5"/>
<path d="M107.257 215.495C107.854 216.529 109.176 216.883 110.21 216.286C111.244 215.689 111.598 214.367 111.001 213.333C110.404 212.299 109.082 211.945 108.048 212.542C107.014 213.139 106.66 214.461 107.257 215.495Z" fill="black" fill-opacity="0.5"/>
<path d="M92.8054 223.838C93.4024 224.872 94.7245 225.227 95.7584 224.63C96.7924 224.033 97.1467 222.711 96.5497 221.677C95.9527 220.643 94.6306 220.289 93.5967 220.885C92.5627 221.482 92.2084 222.805 92.8054 223.838Z" fill="black" fill-opacity="0.5"/>
<path d="M78.3537 232.182C78.9507 233.216 80.2728 233.57 81.3068 232.973C82.3407 232.376 82.695 231.054 82.098 230.02C81.5011 228.986 80.179 228.632 79.145 229.229C78.111 229.826 77.7568 231.148 78.3537 232.182Z" fill="black" fill-opacity="0.5"/>
<path d="M63.9021 240.526C64.499 241.56 65.8211 241.914 66.8551 241.317C67.8891 240.72 68.2433 239.398 67.6464 238.364C67.0494 237.33 65.7273 236.976 64.6933 237.573C63.6594 238.17 63.3051 239.492 63.9021 240.526Z" fill="black" fill-opacity="0.5"/>
<path d="M49.4504 248.87C50.0474 249.903 51.3695 250.258 52.4034 249.661C53.4374 249.064 53.7917 247.742 53.1947 246.708C52.5977 245.674 51.2756 245.32 50.2417 245.916C49.2077 246.513 48.8534 247.836 49.4504 248.87Z" fill="black" fill-opacity="0.5"/>
<path d="M34.9987 257.213C35.5957 258.247 36.9178 258.601 37.9518 258.004C38.9857 257.407 39.34 256.085 38.743 255.051C38.1461 254.017 36.824 253.663 35.79 254.26C34.756 254.857 34.4018 256.179 34.9987 257.213Z" fill="black" fill-opacity="0.5"/>
<path d="M20.5471 265.557C21.144 266.591 22.4661 266.945 23.5001 266.348C24.5341 265.751 24.8883 264.429 24.2914 263.395C23.6944 262.361 22.3723 262.007 21.3383 262.604C20.3044 263.201 19.9501 264.523 20.5471 265.557Z" fill="black" fill-opacity="0.5"/>
<path d="M6.0954 273.901C6.69235 274.934 8.01447 275.289 9.04843 274.692C10.0824 274.095 10.4366 272.773 9.83969 271.739C9.24273 270.705 7.92062 270.351 6.88666 270.948C5.8527 271.544 5.49844 272.867 6.0954 273.901Z" fill="black" fill-opacity="0.5"/>
<path d="M267.131 142.46C267.796 143.612 269.268 144.006 270.419 143.341C271.57 142.677 271.964 141.205 271.3 140.054C270.635 138.902 269.163 138.508 268.012 139.173C266.861 139.837 266.466 141.309 267.131 142.46Z" fill="black" fill-opacity="0.5"/>
<path d="M252.679 150.804C253.344 151.955 254.816 152.35 255.967 151.685C257.118 151.02 257.513 149.548 256.848 148.397C256.183 147.246 254.711 146.852 253.56 147.516C252.409 148.181 252.015 149.653 252.679 150.804Z" fill="black" fill-opacity="0.5"/>
<path d="M238.228 159.148C238.892 160.299 240.364 160.693 241.515 160.029C242.667 159.364 243.061 157.892 242.396 156.741C241.732 155.59 240.26 155.195 239.109 155.86C237.958 156.525 237.563 157.997 238.228 159.148Z" fill="black" fill-opacity="0.5"/>
<path d="M223.776 167.491C224.441 168.643 225.913 169.037 227.064 168.372C228.215 167.708 228.609 166.236 227.945 165.085C227.28 163.934 225.808 163.539 224.657 164.204C223.506 164.868 223.111 166.34 223.776 167.491Z" fill="black" fill-opacity="0.5"/>
<path d="M209.324 175.835C209.989 176.986 211.461 177.381 212.612 176.716C213.763 176.051 214.158 174.579 213.493 173.428C212.828 172.277 211.356 171.883 210.205 172.547C209.054 173.212 208.66 174.684 209.324 175.835Z" fill="black" fill-opacity="0.5"/>
<path d="M194.873 184.179C195.537 185.33 197.009 185.724 198.16 185.06C199.312 184.395 199.706 182.923 199.041 181.772C198.377 180.621 196.905 180.226 195.754 180.891C194.603 181.556 194.208 183.028 194.873 184.179Z" fill="black" fill-opacity="0.5"/>
<path d="M180.421 192.522C181.086 193.674 182.558 194.068 183.709 193.403C184.86 192.739 185.254 191.267 184.59 190.116C183.925 188.965 182.453 188.57 181.302 189.235C180.151 189.899 179.756 191.371 180.421 192.522Z" fill="black" fill-opacity="0.5"/>
<path d="M165.969 200.866C166.634 202.017 168.106 202.412 169.257 201.747C170.408 201.082 170.803 199.61 170.138 198.459C169.473 197.308 168.001 196.914 166.85 197.578C165.699 198.243 165.305 199.715 165.969 200.866Z" fill="black" fill-opacity="0.5"/>
<path d="M151.518 209.21C152.182 210.361 153.654 210.755 154.805 210.091C155.957 209.426 156.351 207.954 155.686 206.803C155.022 205.652 153.55 205.257 152.399 205.922C151.248 206.587 150.853 208.059 151.518 209.21Z" fill="black" fill-opacity="0.5"/>
<path d="M137.066 217.553C137.731 218.705 139.203 219.099 140.354 218.434C141.505 217.77 141.899 216.298 141.235 215.147C140.57 213.996 139.098 213.601 137.947 214.266C136.796 214.93 136.401 216.402 137.066 217.553Z" fill="black" fill-opacity="0.5"/>
<path d="M122.614 225.897C123.279 227.048 124.751 227.443 125.902 226.778C127.053 226.113 127.448 224.642 126.783 223.49C126.118 222.339 124.646 221.945 123.495 222.609C122.344 223.274 121.95 224.746 122.614 225.897Z" fill="black" fill-opacity="0.5"/>
<path d="M108.163 234.241C108.827 235.392 110.299 235.786 111.45 235.122C112.602 234.457 112.996 232.985 112.331 231.834C111.667 230.683 110.195 230.288 109.044 230.953C107.893 231.618 107.498 233.09 108.163 234.241Z" fill="black" fill-opacity="0.5"/>
<path d="M93.7111 242.584C94.3757 243.736 95.8476 244.13 96.9988 243.465C98.1499 242.801 98.5443 241.329 97.8797 240.178C97.2151 239.027 95.7431 238.632 94.592 239.297C93.4409 239.961 93.0465 241.433 93.7111 242.584Z" fill="black" fill-opacity="0.5"/>
<path d="M79.2594 250.928C79.924 252.079 81.396 252.474 82.5471 251.809C83.6982 251.144 84.0927 249.673 83.428 248.521C82.7634 247.37 81.2915 246.976 80.1403 247.64C78.9892 248.305 78.5948 249.777 79.2594 250.928Z" fill="black" fill-opacity="0.5"/>
<path d="M64.8077 259.272C65.4723 260.423 66.9443 260.817 68.0954 260.153C69.2466 259.488 69.641 258.016 68.9764 256.865C68.3118 255.714 66.8398 255.32 65.6887 255.984C64.5375 256.649 64.1431 258.121 64.8077 259.272Z" fill="black" fill-opacity="0.5"/>
<path d="M50.3561 267.616C51.0207 268.767 52.4926 269.161 53.6438 268.496C54.7949 267.832 55.1893 266.36 54.5247 265.209C53.8601 264.058 52.3881 263.663 51.237 264.328C50.0859 264.992 49.6915 266.464 50.3561 267.616Z" fill="black" fill-opacity="0.5"/>
<path d="M35.9044 275.959C36.569 277.11 38.041 277.505 39.1921 276.84C40.3432 276.176 40.7377 274.704 40.073 273.552C39.4084 272.401 37.9365 272.007 36.7853 272.671C35.6342 273.336 35.2398 274.808 35.9044 275.959Z" fill="black" fill-opacity="0.5"/>
<path d="M21.4527 284.303C22.1173 285.454 23.5893 285.848 24.7404 285.184C25.8916 284.519 26.286 283.047 25.6214 281.896C24.9568 280.745 23.4848 280.351 22.3337 281.015C21.1825 281.68 20.7881 283.152 21.4527 284.303Z" fill="black" fill-opacity="0.5"/>
<path d="M7.00106 292.647C7.66567 293.798 9.13763 294.192 10.2888 293.527C11.4399 292.863 11.8343 291.391 11.1697 290.24C10.5051 289.089 9.03314 288.694 7.882 289.359C6.73086 290.023 6.33645 291.495 7.00106 292.647Z" fill="black" fill-opacity="0.5"/>
<path d="M282.501 152.856C283.229 154.117 284.842 154.549 286.104 153.821C287.365 153.093 287.797 151.48 287.069 150.218C286.341 148.957 284.728 148.525 283.466 149.253C282.205 149.981 281.773 151.594 282.501 152.856Z" fill="black" fill-opacity="0.5"/>
<path d="M268.049 161.199C268.777 162.461 270.39 162.893 271.652 162.165C272.913 161.436 273.346 159.823 272.617 158.562C271.889 157.3 270.276 156.868 269.015 157.597C267.753 158.325 267.321 159.938 268.049 161.199Z" fill="black" fill-opacity="0.5"/>
<path d="M253.598 169.543C254.326 170.804 255.939 171.237 257.2 170.508C258.462 169.78 258.894 168.167 258.166 166.906C257.437 165.644 255.824 165.212 254.563 165.94C253.301 166.668 252.869 168.281 253.598 169.543Z" fill="black" fill-opacity="0.5"/>
<path d="M239.146 177.887C239.874 179.148 241.487 179.58 242.749 178.852C244.01 178.124 244.442 176.511 243.714 175.249C242.986 173.988 241.373 173.556 240.111 174.284C238.85 175.012 238.418 176.625 239.146 177.887Z" fill="black" fill-opacity="0.5"/>
<path d="M224.694 186.23C225.422 187.492 227.035 187.924 228.297 187.196C229.558 186.467 229.991 184.854 229.262 183.593C228.534 182.331 226.921 181.899 225.66 182.628C224.398 183.356 223.966 184.969 224.694 186.23Z" fill="black" fill-opacity="0.5"/>
<path d="M210.243 194.574C210.971 195.835 212.584 196.268 213.845 195.539C215.107 194.811 215.539 193.198 214.811 191.937C214.082 190.675 212.469 190.243 211.208 190.971C209.946 191.699 209.514 193.312 210.243 194.574Z" fill="black" fill-opacity="0.5"/>
<path d="M195.791 202.918C196.519 204.179 198.132 204.611 199.394 203.883C200.655 203.155 201.087 201.542 200.359 200.28C199.631 199.019 198.018 198.587 196.756 199.315C195.495 200.043 195.063 201.656 195.791 202.918Z" fill="black" fill-opacity="0.5"/>
<path d="M181.339 211.261C182.068 212.523 183.68 212.955 184.942 212.227C186.203 211.498 186.636 209.885 185.907 208.624C185.179 207.362 183.566 206.93 182.305 207.659C181.043 208.387 180.611 210 181.339 211.261Z" fill="black" fill-opacity="0.5"/>
<path d="M166.888 219.605C167.616 220.866 169.229 221.299 170.49 220.57C171.752 219.842 172.184 218.229 171.456 216.968C170.727 215.706 169.114 215.274 167.853 216.002C166.591 216.731 166.159 218.343 166.888 219.605Z" fill="black" fill-opacity="0.5"/>
<path d="M152.436 227.949C153.164 229.21 154.777 229.642 156.039 228.914C157.3 228.186 157.732 226.573 157.004 225.311C156.276 224.05 154.663 223.618 153.401 224.346C152.14 225.074 151.708 226.687 152.436 227.949Z" fill="black" fill-opacity="0.5"/>
<path d="M137.984 236.292C138.713 237.554 140.325 237.986 141.587 237.258C142.848 236.529 143.281 234.916 142.552 233.655C141.824 232.393 140.211 231.961 138.95 232.69C137.688 233.418 137.256 235.031 137.984 236.292Z" fill="black" fill-opacity="0.5"/>
<path d="M123.533 244.636C124.261 245.897 125.874 246.33 127.135 245.601C128.397 244.873 128.829 243.26 128.101 241.999C127.372 240.737 125.759 240.305 124.498 241.033C123.236 241.762 122.804 243.375 123.533 244.636Z" fill="black" fill-opacity="0.5"/>
<path d="M109.081 252.98C109.809 254.241 111.422 254.673 112.684 253.945C113.945 253.217 114.377 251.604 113.649 250.342C112.921 249.081 111.308 248.649 110.046 249.377C108.785 250.105 108.353 251.718 109.081 252.98Z" fill="black" fill-opacity="0.5"/>
<path d="M94.6292 261.323C95.3575 262.585 96.9705 263.017 98.2319 262.289C99.4933 261.56 99.9255 259.947 99.1973 258.686C98.469 257.425 96.856 256.992 95.5946 257.721C94.3331 258.449 93.9009 260.062 94.6292 261.323Z" fill="black" fill-opacity="0.5"/>
<path d="M80.1775 269.667C80.9058 270.928 82.5188 271.361 83.7802 270.632C85.0417 269.904 85.4739 268.291 84.7456 267.03C84.0173 265.768 82.4043 265.336 81.1429 266.064C79.8815 266.793 79.4493 268.406 80.1775 269.667Z" fill="black" fill-opacity="0.5"/>
<path d="M65.7259 278.011C66.4542 279.272 68.0671 279.704 69.3286 278.976C70.59 278.248 71.0222 276.635 70.2939 275.373C69.5656 274.112 67.9526 273.68 66.6912 274.408C65.4298 275.136 64.9976 276.749 65.7259 278.011Z" fill="black" fill-opacity="0.5"/>
<path d="M51.2742 286.354C52.0025 287.616 53.6155 288.048 54.8769 287.32C56.1383 286.591 56.5705 284.978 55.8423 283.717C55.114 282.456 53.501 282.023 52.2395 282.752C50.9781 283.48 50.5459 285.093 51.2742 286.354Z" fill="black" fill-opacity="0.5"/>
<path d="M36.8225 294.698C37.5508 295.959 39.1638 296.392 40.4252 295.663C41.6867 294.935 42.1189 293.322 41.3906 292.061C40.6623 290.799 39.0493 290.367 37.7879 291.095C36.5264 291.824 36.0943 293.437 36.8225 294.698Z" fill="black" fill-opacity="0.5"/>
<path d="M22.3709 303.042C23.0992 304.303 24.7121 304.735 25.9736 304.007C27.235 303.279 27.6672 301.666 26.9389 300.404C26.2106 299.143 24.5976 298.711 23.3362 299.439C22.0748 300.167 21.6426 301.78 22.3709 303.042Z" fill="black" fill-opacity="0.5"/>
<path d="M283.407 171.602C284.202 172.98 285.965 173.452 287.344 172.657C288.723 171.861 289.195 170.098 288.399 168.719C287.603 167.341 285.84 166.868 284.462 167.664C283.083 168.46 282.611 170.223 283.407 171.602Z" fill="black" fill-opacity="0.5"/>
<path d="M268.955 179.945C269.751 181.324 271.514 181.796 272.892 181C274.271 180.204 274.743 178.441 273.947 177.063C273.151 175.684 271.389 175.212 270.01 176.008C268.631 176.804 268.159 178.567 268.955 179.945Z" fill="black" fill-opacity="0.5"/>
<path d="M254.503 188.289C255.299 189.667 257.062 190.14 258.441 189.344C259.819 188.548 260.292 186.785 259.496 185.407C258.7 184.028 256.937 183.556 255.558 184.352C254.18 185.147 253.707 186.91 254.503 188.289Z" fill="black" fill-opacity="0.5"/>
<path d="M240.052 196.633C240.847 198.011 242.61 198.484 243.989 197.688C245.368 196.892 245.84 195.129 245.044 193.75C244.248 192.372 242.485 191.899 241.107 192.695C239.728 193.491 239.256 195.254 240.052 196.633Z" fill="black" fill-opacity="0.5"/>
<path d="M225.6 204.976C226.396 206.355 228.159 206.827 229.537 206.031C230.916 205.235 231.388 203.472 230.592 202.094C229.796 200.715 228.033 200.243 226.655 201.039C225.276 201.835 224.804 203.598 225.6 204.976Z" fill="black" fill-opacity="0.5"/>
<path d="M211.148 213.32C211.944 214.699 213.707 215.171 215.086 214.375C216.464 213.579 216.937 211.816 216.141 210.438C215.345 209.059 213.582 208.587 212.203 209.383C210.825 210.178 210.352 211.941 211.148 213.32Z" fill="black" fill-opacity="0.5"/>
<path d="M196.697 221.664C197.492 223.042 199.255 223.515 200.634 222.719C202.013 221.923 202.485 220.16 201.689 218.781C200.893 217.403 199.13 216.93 197.752 217.726C196.373 218.522 195.901 220.285 196.697 221.664Z" fill="black" fill-opacity="0.5"/>
<path d="M182.245 230.007C183.041 231.386 184.804 231.858 186.182 231.062C187.561 230.266 188.033 228.504 187.237 227.125C186.441 225.746 184.679 225.274 183.3 226.07C181.921 226.866 181.449 228.629 182.245 230.007Z" fill="black" fill-opacity="0.5"/>
<path d="M167.793 238.351C168.589 239.73 170.352 240.202 171.731 239.406C173.109 238.61 173.582 236.847 172.786 235.469C171.99 234.09 170.227 233.618 168.848 234.414C167.47 235.209 166.997 236.972 167.793 238.351Z" fill="black" fill-opacity="0.5"/>
<path d="M153.342 246.695C154.137 248.073 155.9 248.546 157.279 247.75C158.658 246.954 159.13 245.191 158.334 243.812C157.538 242.434 155.775 241.961 154.397 242.757C153.018 243.553 152.546 245.316 153.342 246.695Z" fill="black" fill-opacity="0.5"/>
<path d="M138.89 255.038C139.686 256.417 141.449 256.889 142.827 256.093C144.206 255.297 144.678 253.535 143.882 252.156C143.086 250.777 141.324 250.305 139.945 251.101C138.566 251.897 138.094 253.66 138.89 255.038Z" fill="black" fill-opacity="0.5"/>
<path d="M124.438 263.382C125.234 264.761 126.997 265.233 128.376 264.437C129.754 263.641 130.227 261.878 129.431 260.5C128.635 259.121 126.872 258.649 125.493 259.445C124.115 260.241 123.642 262.003 124.438 263.382Z" fill="black" fill-opacity="0.5"/>
<path d="M109.987 271.726C110.782 273.104 112.545 273.577 113.924 272.781C115.303 271.985 115.775 270.222 114.979 268.843C114.183 267.465 112.42 266.992 111.042 267.788C109.663 268.584 109.191 270.347 109.987 271.726Z" fill="black" fill-opacity="0.5"/>
<path d="M95.5349 280.069C96.3308 281.448 98.0936 281.92 99.4723 281.124C100.851 280.328 101.323 278.566 100.527 277.187C99.7313 275.808 97.9685 275.336 96.5899 276.132C95.2113 276.928 94.7389 278.691 95.5349 280.069Z" fill="black" fill-opacity="0.5"/>
<path d="M81.0832 288.413C81.8791 289.792 83.642 290.264 85.0206 289.468C86.3992 288.672 86.8715 286.909 86.0756 285.531C85.2797 284.152 83.5168 283.68 82.1382 284.476C80.7596 285.272 80.2873 287.034 81.0832 288.413Z" fill="black" fill-opacity="0.5"/>
<path d="M66.6315 296.757C67.4275 298.135 69.1903 298.608 70.5689 297.812C71.9475 297.016 72.4199 295.253 71.6239 293.874C70.828 292.496 69.0652 292.023 67.6866 292.819C66.3079 293.615 65.8356 295.378 66.6315 296.757Z" fill="black" fill-opacity="0.5"/>
<path d="M52.1799 305.1C52.9758 306.479 54.7386 306.951 56.1172 306.155C57.4959 305.359 57.9682 303.597 57.1723 302.218C56.3763 300.839 54.6135 300.367 53.2349 301.163C51.8563 301.959 51.3839 303.722 52.1799 305.1Z" fill="black" fill-opacity="0.5"/>
<path d="M37.7282 313.444C38.5241 314.823 40.287 315.295 41.6656 314.499C43.0442 313.703 43.5165 311.94 42.7206 310.562C41.9247 309.183 40.1618 308.711 38.7832 309.507C37.4046 310.303 36.9323 312.065 37.7282 313.444Z" fill="black" fill-opacity="0.5"/>
<path d="M23.2765 321.788C24.0725 323.166 25.8353 323.639 27.2139 322.843C28.5925 322.047 29.0649 320.284 28.2689 318.905C27.473 317.527 25.7102 317.054 24.3315 317.85C22.9529 318.646 22.4806 320.409 23.2765 321.788Z" fill="black" fill-opacity="0.5"/>
<path d="M298.764 182.004C299.627 183.5 301.54 184.012 303.036 183.149C304.532 182.285 305.044 180.372 304.181 178.877C303.317 177.381 301.404 176.868 299.909 177.732C298.413 178.595 297.9 180.508 298.764 182.004Z" fill="black" fill-opacity="0.5"/>
<path d="M284.312 190.348C285.176 191.843 287.088 192.356 288.584 191.492C290.08 190.629 290.593 188.716 289.729 187.22C288.865 185.724 286.953 185.212 285.457 186.075C283.961 186.939 283.449 188.852 284.312 190.348Z" fill="black" fill-opacity="0.5"/>
<path d="M269.861 198.691C270.724 200.187 272.637 200.7 274.133 199.836C275.628 198.972 276.141 197.06 275.277 195.564C274.414 194.068 272.501 193.556 271.005 194.419C269.509 195.283 268.997 197.195 269.861 198.691Z" fill="black" fill-opacity="0.5"/>
<path d="M255.409 207.035C256.272 208.531 258.185 209.043 259.681 208.18C261.177 207.316 261.689 205.403 260.826 203.908C259.962 202.412 258.049 201.899 256.554 202.763C255.058 203.626 254.545 205.539 255.409 207.035Z" fill="black" fill-opacity="0.5"/>
<path d="M240.957 215.379C241.821 216.874 243.733 217.387 245.229 216.523C246.725 215.66 247.238 213.747 246.374 212.251C245.51 210.755 243.598 210.243 242.102 211.107C240.606 211.97 240.094 213.883 240.957 215.379Z" fill="black" fill-opacity="0.5"/>
<path d="M226.506 223.722C227.369 225.218 229.282 225.731 230.778 224.867C232.273 224.003 232.786 222.091 231.922 220.595C231.059 219.099 229.146 218.587 227.65 219.45C226.154 220.314 225.642 222.226 226.506 223.722Z" fill="black" fill-opacity="0.5"/>
<path d="M212.054 232.066C212.917 233.562 214.83 234.074 216.326 233.211C217.822 232.347 218.334 230.434 217.471 228.939C216.607 227.443 214.694 226.93 213.199 227.794C211.703 228.657 211.19 230.57 212.054 232.066Z" fill="black" fill-opacity="0.5"/>
<path d="M197.602 240.41C198.466 241.905 200.378 242.418 201.874 241.554C203.37 240.691 203.883 238.778 203.019 237.282C202.155 235.786 200.243 235.274 198.747 236.138C197.251 237.001 196.739 238.914 197.602 240.41Z" fill="black" fill-opacity="0.5"/>
<path d="M183.151 248.753C184.014 250.249 185.927 250.762 187.423 249.898C188.918 249.034 189.431 247.122 188.567 245.626C187.704 244.13 185.791 243.618 184.295 244.481C182.799 245.345 182.287 247.257 183.151 248.753Z" fill="black" fill-opacity="0.5"/>
<path d="M168.699 257.097C169.562 258.593 171.475 259.105 172.971 258.242C174.467 257.378 174.979 255.465 174.116 253.97C173.252 252.474 171.339 251.961 169.844 252.825C168.348 253.688 167.835 255.601 168.699 257.097Z" fill="black" fill-opacity="0.5"/>
<path d="M154.247 265.441C155.111 266.936 157.023 267.449 158.519 266.585C160.015 265.722 160.528 263.809 159.664 262.313C158.8 260.817 156.888 260.305 155.392 261.169C153.896 262.032 153.384 263.945 154.247 265.441Z" fill="black" fill-opacity="0.5"/>
<path d="M139.796 273.784C140.659 275.28 142.572 275.793 144.068 274.929C145.563 274.065 146.076 272.153 145.212 270.657C144.349 269.161 142.436 268.649 140.94 269.512C139.444 270.376 138.932 272.288 139.796 273.784Z" fill="black" fill-opacity="0.5"/>
<path d="M125.344 282.128C126.207 283.624 128.12 284.136 129.616 283.273C131.112 282.409 131.624 280.496 130.761 279.001C129.897 277.505 127.984 276.992 126.489 277.856C124.993 278.719 124.48 280.632 125.344 282.128Z" fill="black" fill-opacity="0.5"/>
<path d="M110.892 290.472C111.756 291.967 113.668 292.48 115.164 291.616C116.66 290.753 117.173 288.84 116.309 287.344C115.445 285.848 113.533 285.336 112.037 286.2C110.541 287.063 110.029 288.976 110.892 290.472Z" fill="black" fill-opacity="0.5"/>
<path d="M96.4405 298.815C97.3041 300.311 99.2168 300.824 100.713 299.96C102.208 299.096 102.721 297.184 101.857 295.688C100.994 294.192 99.081 293.68 97.5852 294.543C96.0894 295.407 95.5769 297.32 96.4405 298.815Z" fill="black" fill-opacity="0.5"/>
<path d="M81.9889 307.159C82.8525 308.655 84.7651 309.167 86.2609 308.304C87.7567 307.44 88.2692 305.527 87.4056 304.032C86.542 302.536 84.6294 302.023 83.1336 302.887C81.6378 303.751 81.1253 305.663 81.9889 307.159Z" fill="black" fill-opacity="0.5"/>
<path d="M67.5372 315.503C68.4008 316.998 70.3135 317.511 71.8093 316.647C73.305 315.784 73.8175 313.871 72.9539 312.375C72.0903 310.88 70.1777 310.367 68.6819 311.231C67.1861 312.094 66.6736 314.007 67.5372 315.503Z" fill="black" fill-opacity="0.5"/>
<path d="M53.0855 323.846C53.9491 325.342 55.8618 325.855 57.3576 324.991C58.8534 324.127 59.3659 322.215 58.5023 320.719C57.6387 319.223 55.726 318.711 54.2302 319.574C52.7344 320.438 52.2219 322.351 53.0855 323.846Z" fill="black" fill-opacity="0.5"/>
<path d="M38.6339 332.19C39.4975 333.686 41.4101 334.198 42.9059 333.335C44.4017 332.471 44.9142 330.558 44.0506 329.063C43.187 327.567 41.2744 327.054 39.7786 327.918C38.2828 328.782 37.7703 330.694 38.6339 332.19Z" fill="black" fill-opacity="0.5"/>
<path d="M299.682 200.743C300.609 202.349 302.663 202.899 304.269 201.972C305.875 201.044 306.425 198.991 305.498 197.385C304.571 195.779 302.517 195.228 300.911 196.156C299.305 197.083 298.755 199.137 299.682 200.743Z" fill="black" fill-opacity="0.5"/>
<path d="M285.23 209.086C286.158 210.692 288.211 211.243 289.817 210.315C291.423 209.388 291.974 207.334 291.046 205.728C290.119 204.122 288.066 203.572 286.459 204.499C284.853 205.427 284.303 207.48 285.23 209.086Z" fill="black" fill-opacity="0.5"/>
<path d="M270.779 217.43C271.706 219.036 273.76 219.586 275.366 218.659C276.972 217.732 277.522 215.678 276.595 214.072C275.668 212.466 273.614 211.916 272.008 212.843C270.402 213.77 269.851 215.824 270.779 217.43Z" fill="black" fill-opacity="0.5"/>
<path d="M256.327 225.774C257.254 227.38 259.308 227.93 260.914 227.003C262.52 226.076 263.07 224.022 262.143 222.416C261.216 220.81 259.162 220.259 257.556 221.187C255.95 222.114 255.4 224.168 256.327 225.774Z" fill="black" fill-opacity="0.5"/>
<path d="M241.875 234.117C242.803 235.723 244.856 236.274 246.462 235.346C248.068 234.419 248.619 232.365 247.691 230.759C246.764 229.153 244.711 228.603 243.104 229.53C241.498 230.458 240.948 232.511 241.875 234.117Z" fill="black" fill-opacity="0.5"/>
<path d="M227.424 242.461C228.351 244.067 230.405 244.617 232.011 243.69C233.617 242.763 234.167 240.709 233.24 239.103C232.313 237.497 230.259 236.947 228.653 237.874C227.047 238.801 226.496 240.855 227.424 242.461Z" fill="black" fill-opacity="0.5"/>
<path d="M212.972 250.805C213.899 252.411 215.953 252.961 217.559 252.034C219.165 251.107 219.715 249.053 218.788 247.447C217.861 245.841 215.807 245.29 214.201 246.218C212.595 247.145 212.045 249.199 212.972 250.805Z" fill="black" fill-opacity="0.5"/>
<path d="M198.52 259.148C199.448 260.754 201.501 261.305 203.107 260.377C204.713 259.45 205.264 257.397 204.336 255.79C203.409 254.184 201.356 253.634 199.749 254.561C198.143 255.489 197.593 257.542 198.52 259.148Z" fill="black" fill-opacity="0.5"/>
<path d="M184.069 267.492C184.996 269.098 187.05 269.648 188.656 268.721C190.262 267.794 190.812 265.74 189.885 264.134C188.958 262.528 186.904 261.978 185.298 262.905C183.692 263.832 183.141 265.886 184.069 267.492Z" fill="black" fill-opacity="0.5"/>
<path d="M169.617 275.836C170.544 277.442 172.598 277.992 174.204 277.065C175.81 276.138 176.36 274.084 175.433 272.478C174.506 270.872 172.452 270.321 170.846 271.249C169.24 272.176 168.69 274.23 169.617 275.836Z" fill="black" fill-opacity="0.5"/>
<path d="M155.165 284.179C156.093 285.785 158.146 286.336 159.752 285.408C161.358 284.481 161.909 282.428 160.981 280.821C160.054 279.215 158.001 278.665 156.394 279.592C154.788 280.52 154.238 282.573 155.165 284.179Z" fill="black" fill-opacity="0.5"/>
<path d="M140.714 292.523C141.641 294.129 143.695 294.679 145.301 293.752C146.907 292.825 147.457 290.771 146.53 289.165C145.603 287.559 143.549 287.009 141.943 287.936C140.337 288.863 139.786 290.917 140.714 292.523Z" fill="black" fill-opacity="0.5"/>
<path d="M126.262 300.867C127.189 302.473 129.243 303.023 130.849 302.096C132.455 301.169 133.005 299.115 132.078 297.509C131.151 295.903 129.097 295.352 127.491 296.28C125.885 297.207 125.335 299.261 126.262 300.867Z" fill="black" fill-opacity="0.5"/>
<path d="M111.81 309.21C112.738 310.817 114.791 311.367 116.397 310.44C118.003 309.512 118.554 307.459 117.626 305.852C116.699 304.246 114.646 303.696 113.039 304.623C111.433 305.551 110.883 307.604 111.81 309.21Z" fill="black" fill-opacity="0.5"/>
<path d="M97.3587 317.554C98.286 319.16 100.34 319.71 101.946 318.783C103.552 317.856 104.102 315.802 103.175 314.196C102.248 312.59 100.194 312.04 98.5878 312.967C96.9817 313.894 96.4314 315.948 97.3587 317.554Z" fill="black" fill-opacity="0.5"/>
<path d="M82.907 325.898C83.8343 327.504 85.888 328.054 87.4941 327.127C89.1001 326.2 89.6504 324.146 88.7232 322.54C87.7959 320.934 85.7422 320.383 84.1361 321.311C82.53 322.238 81.9797 324.292 82.907 325.898Z" fill="black" fill-opacity="0.5"/>
<path d="M68.4553 334.241C69.3826 335.848 71.4363 336.398 73.0424 335.471C74.6485 334.543 75.1988 332.49 74.2715 330.884C73.3442 329.277 71.2905 328.727 69.6844 329.654C68.0784 330.582 67.5281 332.635 68.4553 334.241Z" fill="black" fill-opacity="0.5"/>
<path d="M54.0037 342.585C54.9309 344.191 56.9846 344.741 58.5907 343.814C60.1968 342.887 60.7471 340.833 59.8198 339.227C58.8925 337.621 56.8389 337.071 55.2328 337.998C53.6267 338.925 53.0764 340.979 54.0037 342.585Z" fill="black" fill-opacity="0.5"/>
<path d="M39.552 350.929C40.4793 352.535 42.533 353.085 44.139 352.158C45.7451 351.231 46.2954 349.177 45.3682 347.571C44.4409 345.965 42.3872 345.414 40.7811 346.342C39.175 347.269 38.6248 349.323 39.552 350.929Z" fill="black" fill-opacity="0.5"/>
<path d="M315.039 211.145C316.034 212.868 318.238 213.459 319.961 212.464C321.684 211.469 322.275 209.265 321.28 207.542C320.285 205.819 318.081 205.228 316.358 206.223C314.635 207.218 314.044 209.422 315.039 211.145Z" fill="black" fill-opacity="0.5"/>
<path d="M300.588 219.489C301.583 221.212 303.786 221.802 305.509 220.807C307.233 219.813 307.823 217.609 306.828 215.886C305.833 214.162 303.63 213.572 301.906 214.567C300.183 215.562 299.593 217.765 300.588 219.489Z" fill="black" fill-opacity="0.5"/>
<path d="M286.136 227.832C287.131 229.556 289.334 230.146 291.058 229.151C292.781 228.156 293.371 225.953 292.377 224.229C291.382 222.506 289.178 221.916 287.455 222.911C285.732 223.906 285.141 226.109 286.136 227.832Z" fill="black" fill-opacity="0.5"/>
<path d="M271.684 236.176C272.679 237.899 274.883 238.49 276.606 237.495C278.329 236.5 278.92 234.296 277.925 232.573C276.93 230.85 274.726 230.259 273.003 231.254C271.28 232.249 270.689 234.453 271.684 236.176Z" fill="black" fill-opacity="0.5"/>
<path d="M257.233 244.52C258.228 246.243 260.431 246.833 262.154 245.838C263.878 244.844 264.468 242.64 263.473 240.917C262.478 239.193 260.275 238.603 258.551 239.598C256.828 240.593 256.238 242.796 257.233 244.52Z" fill="black" fill-opacity="0.5"/>
<path d="M242.781 252.863C243.776 254.587 245.979 255.177 247.703 254.182C249.426 253.187 250.016 250.984 249.021 249.26C248.027 247.537 245.823 246.947 244.1 247.942C242.377 248.937 241.786 251.14 242.781 252.863Z" fill="black" fill-opacity="0.5"/>
<path d="M228.329 261.207C229.324 262.93 231.528 263.521 233.251 262.526C234.974 261.531 235.565 259.327 234.57 257.604C233.575 255.881 231.371 255.29 229.648 256.285C227.925 257.28 227.334 259.484 228.329 261.207Z" fill="black" fill-opacity="0.5"/>
<path d="M213.878 269.551C214.873 271.274 217.076 271.864 218.799 270.869C220.523 269.875 221.113 267.671 220.118 265.948C219.123 264.224 216.92 263.634 215.196 264.629C213.473 265.624 212.883 267.827 213.878 269.551Z" fill="black" fill-opacity="0.5"/>
<path d="M199.426 277.894C200.421 279.618 202.624 280.208 204.348 279.213C206.071 278.218 206.661 276.015 205.667 274.291C204.672 272.568 202.468 271.978 200.745 272.973C199.022 273.968 198.431 276.171 199.426 277.894Z" fill="black" fill-opacity="0.5"/>
<path d="M184.974 286.238C185.969 287.961 188.173 288.552 189.896 287.557C191.619 286.562 192.21 284.358 191.215 282.635C190.22 280.912 188.016 280.321 186.293 281.316C184.57 282.311 183.979 284.515 184.974 286.238Z" fill="black" fill-opacity="0.5"/>
<path d="M170.523 294.582C171.518 296.305 173.721 296.895 175.444 295.9C177.168 294.906 177.758 292.702 176.763 290.979C175.768 289.256 173.565 288.665 171.841 289.66C170.118 290.655 169.528 292.858 170.523 294.582Z" fill="black" fill-opacity="0.5"/>
<path d="M156.071 302.925C157.066 304.649 159.269 305.239 160.993 304.244C162.716 303.249 163.306 301.046 162.312 299.322C161.317 297.599 159.113 297.009 157.39 298.004C155.667 298.999 155.076 301.202 156.071 302.925Z" fill="black" fill-opacity="0.5"/>
<path d="M141.619 311.269C142.614 312.992 144.818 313.583 146.541 312.588C148.264 311.593 148.855 309.389 147.86 307.666C146.865 305.943 144.661 305.352 142.938 306.347C141.215 307.342 140.624 309.546 141.619 311.269Z" fill="black" fill-opacity="0.5"/>
<path d="M127.168 319.613C128.163 321.336 130.366 321.926 132.089 320.932C133.813 319.937 134.403 317.733 133.408 316.01C132.413 314.287 130.21 313.696 128.486 314.691C126.763 315.686 126.173 317.889 127.168 319.613Z" fill="black" fill-opacity="0.5"/>
<path d="M112.716 327.956C113.711 329.68 115.914 330.27 117.638 329.275C119.361 328.28 119.951 326.077 118.957 324.353C117.962 322.63 115.758 322.04 114.035 323.035C112.312 324.03 111.721 326.233 112.716 327.956Z" fill="black" fill-opacity="0.5"/>
<path d="M98.2643 336.3C99.2593 338.023 101.463 338.614 103.186 337.619C104.909 336.624 105.5 334.42 104.505 332.697C103.51 330.974 101.306 330.383 99.5831 331.378C97.8598 332.373 97.2694 334.577 98.2643 336.3Z" fill="black" fill-opacity="0.5"/>
<path d="M83.8127 344.644C84.8076 346.367 87.0111 346.957 88.7344 345.963C90.4577 344.968 91.0481 342.764 90.0532 341.041C89.0582 339.318 86.8547 338.727 85.1314 339.722C83.4082 340.717 82.8177 342.921 83.8127 344.644Z" fill="black" fill-opacity="0.5"/>
<path d="M69.361 352.987C70.3559 354.711 72.5595 355.301 74.2827 354.306C76.006 353.311 76.5964 351.108 75.6015 349.385C74.6066 347.661 72.403 347.071 70.6798 348.066C68.9565 349.061 68.3661 351.264 69.361 352.987Z" fill="black" fill-opacity="0.5"/>
<path d="M54.9093 361.331C55.9043 363.054 58.1078 363.645 59.8311 362.65C61.5543 361.655 62.1448 359.451 61.1498 357.728C60.1549 356.005 57.9514 355.414 56.2281 356.409C54.5048 357.404 53.9144 359.608 54.9093 361.331Z" fill="black" fill-opacity="0.5"/>
<path d="M315.945 229.891C317.008 231.731 319.361 232.362 321.201 231.299C323.042 230.237 323.672 227.883 322.61 226.043C321.547 224.203 319.194 223.572 317.353 224.635C315.513 225.697 314.882 228.051 315.945 229.891Z" fill="black" fill-opacity="0.5"/>
<path d="M301.493 238.235C302.556 240.075 304.909 240.706 306.75 239.643C308.59 238.581 309.221 236.227 308.158 234.387C307.096 232.546 304.742 231.916 302.902 232.978C301.061 234.041 300.431 236.394 301.493 238.235Z" fill="black" fill-opacity="0.5"/>
<path d="M287.042 246.578C288.104 248.419 290.458 249.049 292.298 247.987C294.139 246.924 294.769 244.571 293.707 242.73C292.644 240.89 290.291 240.259 288.45 241.322C286.61 242.385 285.979 244.738 287.042 246.578Z" fill="black" fill-opacity="0.5"/>
<path d="M272.59 254.922C273.653 256.762 276.006 257.393 277.846 256.33C279.687 255.268 280.317 252.915 279.255 251.074C278.192 249.234 275.839 248.603 273.998 249.666C272.158 250.728 271.527 253.082 272.59 254.922Z" fill="black" fill-opacity="0.5"/>
<path d="M258.138 263.266C259.201 265.106 261.554 265.737 263.395 264.674C265.235 263.612 265.866 261.258 264.803 259.418C263.741 257.577 261.387 256.947 259.547 258.009C257.706 259.072 257.076 261.425 258.138 263.266Z" fill="black" fill-opacity="0.5"/>
<path d="M243.687 271.609C244.749 273.45 247.103 274.08 248.943 273.018C250.784 271.955 251.414 269.602 250.352 267.761C249.289 265.921 246.936 265.29 245.095 266.353C243.255 267.416 242.624 269.769 243.687 271.609Z" fill="black" fill-opacity="0.5"/>
<path d="M229.235 279.953C230.298 281.793 232.651 282.424 234.491 281.361C236.332 280.299 236.962 277.946 235.9 276.105C234.837 274.265 232.484 273.634 230.643 274.697C228.803 275.759 228.172 278.113 229.235 279.953Z" fill="black" fill-opacity="0.5"/>
<path d="M214.783 288.297C215.846 290.137 218.199 290.768 220.04 289.705C221.88 288.643 222.511 286.289 221.448 284.449C220.386 282.608 218.032 281.978 216.192 283.04C214.351 284.103 213.721 286.456 214.783 288.297Z" fill="black" fill-opacity="0.5"/>
<path d="M200.332 296.64C201.394 298.481 203.748 299.111 205.588 298.049C207.429 296.986 208.059 294.633 206.997 292.792C205.934 290.952 203.581 290.321 201.74 291.384C199.9 292.447 199.269 294.8 200.332 296.64Z" fill="black" fill-opacity="0.5"/>
<path d="M185.88 304.984C186.943 306.825 189.296 307.455 191.136 306.393C192.977 305.33 193.607 302.977 192.545 301.136C191.482 299.296 189.129 298.665 187.288 299.728C185.448 300.79 184.817 303.144 185.88 304.984Z" fill="black" fill-opacity="0.5"/>
<path d="M171.428 313.328C172.491 315.168 174.844 315.799 176.685 314.736C178.525 313.674 179.156 311.32 178.093 309.48C177.031 307.639 174.677 307.009 172.837 308.071C170.996 309.134 170.366 311.487 171.428 313.328Z" fill="black" fill-opacity="0.5"/>
<path d="M156.977 321.671C158.039 323.512 160.393 324.142 162.233 323.08C164.074 322.017 164.704 319.664 163.642 317.823C162.579 315.983 160.226 315.352 158.385 316.415C156.545 317.478 155.914 319.831 156.977 321.671Z" fill="black" fill-opacity="0.5"/>
<path d="M142.525 330.015C143.588 331.856 145.941 332.486 147.781 331.424C149.622 330.361 150.252 328.008 149.19 326.167C148.127 324.327 145.774 323.696 143.933 324.759C142.093 325.821 141.462 328.175 142.525 330.015Z" fill="black" fill-opacity="0.5"/>
<path d="M128.073 338.359C129.136 340.199 131.489 340.83 133.33 339.767C135.17 338.705 135.801 336.351 134.738 334.511C133.676 332.67 131.322 332.04 129.482 333.102C127.641 334.165 127.011 336.518 128.073 338.359Z" fill="black" fill-opacity="0.5"/>
<path d="M113.622 346.702C114.684 348.543 117.038 349.173 118.878 348.111C120.719 347.048 121.349 344.695 120.287 342.854C119.224 341.014 116.871 340.383 115.03 341.446C113.19 342.509 112.559 344.862 113.622 346.702Z" fill="black" fill-opacity="0.5"/>
<path d="M99.17 355.046C100.233 356.887 102.586 357.517 104.426 356.455C106.267 355.392 106.897 353.039 105.835 351.198C104.772 349.358 102.419 348.727 100.578 349.79C98.738 350.852 98.1074 353.206 99.17 355.046Z" fill="black" fill-opacity="0.5"/>
<path d="M84.7183 363.39C85.7809 365.23 88.1343 365.861 89.9747 364.798C91.8152 363.736 92.4458 361.382 91.3832 359.542C90.3206 357.701 87.9672 357.071 86.1268 358.133C84.2863 359.196 83.6558 361.549 84.7183 363.39Z" fill="black" fill-opacity="0.5"/>
<path d="M70.2667 371.733C71.3293 373.574 73.6826 374.204 75.5231 373.142C77.3635 372.079 77.9941 369.726 76.9315 367.886C75.8689 366.045 73.5156 365.414 71.6751 366.477C69.8347 367.54 69.2041 369.893 70.2667 371.733Z" fill="black" fill-opacity="0.5"/>
<path d="M55.815 380.077C56.8776 381.918 59.231 382.548 61.0714 381.486C62.9118 380.423 63.5424 378.07 62.4799 376.229C61.4173 374.389 59.0639 373.758 57.2234 374.821C55.383 375.883 54.7524 378.237 55.815 380.077Z" fill="black" fill-opacity="0.5"/>
<path d="M331.315 240.286C332.441 242.237 334.935 242.905 336.886 241.779C338.837 240.653 339.505 238.158 338.379 236.208C337.253 234.257 334.758 233.588 332.808 234.715C330.857 235.841 330.189 238.335 331.315 240.286Z" fill="black" fill-opacity="0.5"/>
<path d="M316.863 248.63C317.989 250.581 320.484 251.249 322.435 250.123C324.385 248.996 325.054 246.502 323.927 244.551C322.801 242.601 320.307 241.932 318.356 243.058C316.405 244.185 315.737 246.679 316.863 248.63Z" fill="black" fill-opacity="0.5"/>
<path d="M302.411 256.973C303.538 258.924 306.032 259.593 307.983 258.466C309.934 257.34 310.602 254.846 309.476 252.895C308.349 250.944 305.855 250.276 303.904 251.402C301.954 252.528 301.285 255.023 302.411 256.973Z" fill="black" fill-opacity="0.5"/>
<path d="M287.96 265.317C289.086 267.268 291.58 267.936 293.531 266.81C295.482 265.684 296.15 263.189 295.024 261.239C293.898 259.288 291.403 258.619 289.453 259.746C287.502 260.872 286.834 263.366 287.96 265.317Z" fill="black" fill-opacity="0.5"/>
<path d="M273.508 273.661C274.634 275.612 277.129 276.28 279.08 275.154C281.03 274.027 281.699 271.533 280.572 269.582C279.446 267.632 276.952 266.963 275.001 268.089C273.05 269.216 272.382 271.71 273.508 273.661Z" fill="black" fill-opacity="0.5"/>
<path d="M259.057 282.004C260.183 283.955 262.677 284.624 264.628 283.497C266.579 282.371 267.247 279.877 266.121 277.926C264.994 275.975 262.5 275.307 260.549 276.433C258.599 277.559 257.93 280.054 259.057 282.004Z" fill="black" fill-opacity="0.5"/>
<path d="M244.605 290.348C245.731 292.299 248.225 292.967 250.176 291.841C252.127 290.715 252.795 288.22 251.669 286.27C250.543 284.319 248.048 283.651 246.098 284.777C244.147 285.903 243.479 288.397 244.605 290.348Z" fill="black" fill-opacity="0.5"/>
<path d="M230.153 298.692C231.279 300.643 233.774 301.311 235.725 300.185C237.675 299.058 238.344 296.564 237.217 294.613C236.091 292.663 233.597 291.994 231.646 293.12C229.695 294.247 229.027 296.741 230.153 298.692Z" fill="black" fill-opacity="0.5"/>
<path d="M215.701 307.036C216.828 308.986 219.322 309.655 221.273 308.528C223.224 307.402 223.892 304.908 222.766 302.957C221.639 301.006 219.145 300.338 217.194 301.464C215.244 302.59 214.575 305.085 215.701 307.036Z" fill="black" fill-opacity="0.5"/>
<path d="M201.25 315.379C202.376 317.33 204.87 317.998 206.821 316.872C208.772 315.746 209.44 313.251 208.314 311.301C207.188 309.35 204.693 308.682 202.743 309.808C200.792 310.934 200.124 313.428 201.25 315.379Z" fill="black" fill-opacity="0.5"/>
<path d="M186.798 323.723C187.924 325.674 190.419 326.342 192.37 325.216C194.32 324.089 194.989 321.595 193.862 319.644C192.736 317.694 190.242 317.025 188.291 318.151C186.34 319.278 185.672 321.772 186.798 323.723Z" fill="black" fill-opacity="0.5"/>
<path d="M172.346 332.067C173.473 334.017 175.967 334.686 177.918 333.559C179.869 332.433 180.537 329.939 179.411 327.988C178.284 326.037 175.79 325.369 173.839 326.495C171.889 327.621 171.22 330.116 172.346 332.067Z" fill="black" fill-opacity="0.5"/>
<path d="M157.895 340.41C159.021 342.361 161.515 343.029 163.466 341.903C165.417 340.777 166.085 338.282 164.959 336.332C163.833 334.381 161.338 333.713 159.388 334.839C157.437 335.965 156.769 338.459 157.895 340.41Z" fill="black" fill-opacity="0.5"/>
<path d="M143.443 348.754C144.569 350.705 147.064 351.373 149.015 350.247C150.965 349.12 151.634 346.626 150.507 344.675C149.381 342.725 146.887 342.056 144.936 343.182C142.985 344.309 142.317 346.803 143.443 348.754Z" fill="black" fill-opacity="0.5"/>
<path d="M128.991 357.098C130.118 359.048 132.612 359.717 134.563 358.59C136.514 357.464 137.182 354.97 136.056 353.019C134.929 351.068 132.435 350.4 130.484 351.526C128.534 352.652 127.865 355.147 128.991 357.098Z" fill="black" fill-opacity="0.5"/>
<path d="M114.54 365.441C115.666 367.392 118.16 368.06 120.111 366.934C122.062 365.808 122.73 363.313 121.604 361.363C120.478 359.412 117.983 358.744 116.033 359.87C114.082 360.996 113.414 363.49 114.54 365.441Z" fill="black" fill-opacity="0.5"/>
<path d="M100.088 373.785C101.214 375.736 103.709 376.404 105.66 375.278C107.61 374.152 108.279 371.657 107.152 369.706C106.026 367.756 103.532 367.087 101.581 368.214C99.6303 369.34 98.9619 371.834 100.088 373.785Z" fill="black" fill-opacity="0.5"/>
<path d="M85.6365 382.129C86.7627 384.079 89.2571 384.748 91.2079 383.621C93.1586 382.495 93.827 380.001 92.7007 378.05C91.5745 376.099 89.0801 375.431 87.1293 376.557C85.1786 377.683 84.5102 380.178 85.6365 382.129Z" fill="black" fill-opacity="0.5"/>
<path d="M71.1848 390.472C72.3111 392.423 74.8055 393.091 76.7562 391.965C78.7069 390.839 79.3753 388.344 78.2491 386.394C77.1228 384.443 74.6284 383.775 72.6777 384.901C70.7269 386.027 70.0586 388.522 71.1848 390.472Z" fill="black" fill-opacity="0.5"/>
<path d="M332.22 259.032C333.414 261.1 336.059 261.809 338.127 260.615C340.194 259.421 340.903 256.777 339.709 254.709C338.515 252.641 335.871 251.932 333.803 253.126C331.735 254.32 331.027 256.964 332.22 259.032Z" fill="black" fill-opacity="0.5"/>
<path d="M317.769 267.376C318.963 269.444 321.607 270.152 323.675 268.958C325.743 267.764 326.451 265.12 325.257 263.052C324.063 260.984 321.419 260.276 319.351 261.47C317.283 262.664 316.575 265.308 317.769 267.376Z" fill="black" fill-opacity="0.5"/>
<path d="M303.317 275.719C304.511 277.787 307.155 278.496 309.223 277.302C311.291 276.108 312 273.464 310.806 271.396C309.612 269.328 306.968 268.619 304.9 269.813C302.832 271.007 302.123 273.652 303.317 275.719Z" fill="black" fill-opacity="0.5"/>
<path d="M288.865 284.063C290.059 286.131 292.704 286.84 294.772 285.646C296.839 284.452 297.548 281.808 296.354 279.74C295.16 277.672 292.516 276.963 290.448 278.157C288.38 279.351 287.672 281.995 288.865 284.063Z" fill="black" fill-opacity="0.5"/>
<path d="M274.414 292.407C275.608 294.475 278.252 295.183 280.32 293.989C282.388 292.795 283.096 290.151 281.902 288.083C280.708 286.015 278.064 285.307 275.996 286.501C273.928 287.695 273.22 290.339 274.414 292.407Z" fill="black" fill-opacity="0.5"/>
<path d="M259.962 300.75C261.156 302.818 263.8 303.527 265.868 302.333C267.936 301.139 268.645 298.495 267.451 296.427C266.257 294.359 263.613 293.651 261.545 294.844C259.477 296.038 258.768 298.683 259.962 300.75Z" fill="black" fill-opacity="0.5"/>
<path d="M245.51 309.094C246.704 311.162 249.349 311.871 251.417 310.677C253.484 309.483 254.193 306.839 252.999 304.771C251.805 302.703 249.161 301.994 247.093 303.188C245.025 304.382 244.317 307.026 245.51 309.094Z" fill="black" fill-opacity="0.5"/>
<path d="M231.059 317.438C232.253 319.506 234.897 320.214 236.965 319.02C239.033 317.826 239.741 315.182 238.547 313.114C237.354 311.046 234.709 310.338 232.641 311.532C230.573 312.726 229.865 315.37 231.059 317.438Z" fill="black" fill-opacity="0.5"/>
<path d="M216.607 325.782C217.801 327.849 220.445 328.558 222.513 327.364C224.581 326.17 225.29 323.526 224.096 321.458C222.902 319.39 220.258 318.682 218.19 319.875C216.122 321.069 215.413 323.714 216.607 325.782Z" fill="black" fill-opacity="0.5"/>
<path d="M202.155 334.125C203.349 336.193 205.994 336.902 208.062 335.708C210.129 334.514 210.838 331.87 209.644 329.802C208.45 327.734 205.806 327.025 203.738 328.219C201.67 329.413 200.962 332.057 202.155 334.125Z" fill="black" fill-opacity="0.5"/>
<path d="M187.704 342.469C188.898 344.537 191.542 345.245 193.61 344.051C195.678 342.857 196.386 340.213 195.192 338.145C193.999 336.077 191.354 335.369 189.286 336.563C187.218 337.757 186.51 340.401 187.704 342.469Z" fill="black" fill-opacity="0.5"/>
<path d="M173.252 350.813C174.446 352.88 177.09 353.589 179.158 352.395C181.226 351.201 181.935 348.557 180.741 346.489C179.547 344.421 176.903 343.713 174.835 344.906C172.767 346.1 172.058 348.745 173.252 350.813Z" fill="black" fill-opacity="0.5"/>
<path d="M158.8 359.156C159.994 361.224 162.639 361.933 164.707 360.739C166.774 359.545 167.483 356.901 166.289 354.833C165.095 352.765 162.451 352.056 160.383 353.25C158.315 354.444 157.607 357.088 158.8 359.156Z" fill="black" fill-opacity="0.5"/>
<path d="M144.349 367.5C145.543 369.568 148.187 370.276 150.255 369.082C152.323 367.889 153.031 365.244 151.837 363.176C150.643 361.108 147.999 360.4 145.931 361.594C143.863 362.788 143.155 365.432 144.349 367.5Z" fill="black" fill-opacity="0.5"/>
<path d="M129.897 375.844C131.091 377.911 133.735 378.62 135.803 377.426C137.871 376.232 138.58 373.588 137.386 371.52C136.192 369.452 133.548 368.744 131.48 369.937C129.412 371.131 128.703 373.776 129.897 375.844Z" fill="black" fill-opacity="0.5"/>
<path d="M115.445 384.187C116.639 386.255 119.284 386.964 121.352 385.77C123.419 384.576 124.128 381.932 122.934 379.864C121.74 377.796 119.096 377.087 117.028 378.281C114.96 379.475 114.252 382.119 115.445 384.187Z" fill="black" fill-opacity="0.5"/>
<path d="M100.994 392.531C102.188 394.599 104.832 395.307 106.9 394.113C108.968 392.92 109.676 390.275 108.482 388.207C107.288 386.139 104.644 385.431 102.576 386.625C100.508 387.819 99.7999 390.463 100.994 392.531Z" fill="black" fill-opacity="0.5"/>
<path d="M86.5421 400.875C87.7361 402.943 90.3803 403.651 92.4482 402.457C94.5161 401.263 95.2246 398.619 94.0307 396.551C92.8368 394.483 90.1926 393.775 88.1247 394.969C86.0568 396.162 85.3482 398.807 86.5421 400.875Z" fill="black" fill-opacity="0.5"/>
<path d="M72.0905 409.218C73.2844 411.286 75.9286 411.995 77.9965 410.801C80.0645 409.607 80.773 406.963 79.5791 404.895C78.3852 402.827 75.7409 402.118 73.673 403.312C71.6051 404.506 70.8966 407.15 72.0905 409.218Z" fill="black" fill-opacity="0.5"/>
<path d="M347.578 269.434C348.839 271.62 351.633 272.368 353.819 271.107C356.004 269.845 356.752 267.051 355.491 264.866C354.229 262.681 351.435 261.932 349.25 263.194C347.065 264.455 346.316 267.249 347.578 269.434Z" fill="black" fill-opacity="0.5"/>
<path d="M333.126 277.778C334.388 279.963 337.182 280.712 339.367 279.45C341.552 278.189 342.301 275.395 341.039 273.21C339.778 271.024 336.983 270.276 334.798 271.537C332.613 272.799 331.865 275.593 333.126 277.778Z" fill="black" fill-opacity="0.5"/>
<path d="M318.674 286.122C319.936 288.307 322.73 289.056 324.915 287.794C327.1 286.532 327.849 283.738 326.587 281.553C325.326 279.368 322.532 278.62 320.347 279.881C318.162 281.143 317.413 283.937 318.674 286.122Z" fill="black" fill-opacity="0.5"/>
<path d="M304.223 294.465C305.484 296.651 308.278 297.399 310.464 296.138C312.649 294.876 313.397 292.082 312.136 289.897C310.874 287.712 308.08 286.963 305.895 288.225C303.71 289.486 302.961 292.28 304.223 294.465Z" fill="black" fill-opacity="0.5"/>
<path d="M289.771 302.809C291.033 304.994 293.827 305.743 296.012 304.481C298.197 303.22 298.946 300.426 297.684 298.241C296.423 296.056 293.628 295.307 291.443 296.568C289.258 297.83 288.51 300.624 289.771 302.809Z" fill="black" fill-opacity="0.5"/>
<path d="M275.319 311.153C276.581 313.338 279.375 314.087 281.56 312.825C283.745 311.563 284.494 308.769 283.232 306.584C281.971 304.399 279.177 303.651 276.992 304.912C274.807 306.174 274.058 308.968 275.319 311.153Z" fill="black" fill-opacity="0.5"/>
<path d="M260.868 319.496C262.129 321.682 264.923 322.43 267.109 321.169C269.294 319.907 270.042 317.113 268.781 314.928C267.519 312.743 264.725 311.994 262.54 313.256C260.355 314.517 259.606 317.311 260.868 319.496Z" fill="black" fill-opacity="0.5"/>
<path d="M246.416 327.84C247.678 330.025 250.472 330.774 252.657 329.512C254.842 328.251 255.591 325.457 254.329 323.272C253.068 321.087 250.273 320.338 248.088 321.599C245.903 322.861 245.155 325.655 246.416 327.84Z" fill="black" fill-opacity="0.5"/>
<path d="M231.964 336.184C233.226 338.369 236.02 339.118 238.205 337.856C240.39 336.594 241.139 333.8 239.877 331.615C238.616 329.43 235.822 328.682 233.637 329.943C231.452 331.205 230.703 333.999 231.964 336.184Z" fill="black" fill-opacity="0.5"/>
<path d="M217.513 344.528C218.774 346.713 221.568 347.461 223.754 346.2C225.939 344.938 226.687 342.144 225.426 339.959C224.164 337.774 221.37 337.025 219.185 338.287C217 339.548 216.251 342.342 217.513 344.528Z" fill="black" fill-opacity="0.5"/>
<path d="M203.061 352.871C204.323 355.056 207.117 355.805 209.302 354.543C211.487 353.282 212.236 350.488 210.974 348.303C209.713 346.118 206.918 345.369 204.733 346.63C202.548 347.892 201.8 350.686 203.061 352.871Z" fill="black" fill-opacity="0.5"/>
<path d="M188.609 361.215C189.871 363.4 192.665 364.149 194.85 362.887C197.035 361.626 197.784 358.831 196.522 356.646C195.261 354.461 192.467 353.713 190.282 354.974C188.097 356.236 187.348 359.03 188.609 361.215Z" fill="black" fill-opacity="0.5"/>
<path d="M174.158 369.559C175.419 371.744 178.213 372.492 180.399 371.231C182.584 369.969 183.332 367.175 182.071 364.99C180.809 362.805 178.015 362.056 175.83 363.318C173.645 364.579 172.896 367.373 174.158 369.559Z" fill="black" fill-opacity="0.5"/>
<path d="M159.706 377.902C160.968 380.087 163.762 380.836 165.947 379.574C168.132 378.313 168.881 375.519 167.619 373.334C166.358 371.149 163.563 370.4 161.378 371.661C159.193 372.923 158.445 375.717 159.706 377.902Z" fill="black" fill-opacity="0.5"/>
<path d="M145.254 386.246C146.516 388.431 149.31 389.18 151.495 387.918C153.68 386.657 154.429 383.862 153.167 381.677C151.906 379.492 149.112 378.744 146.927 380.005C144.742 381.267 143.993 384.061 145.254 386.246Z" fill="black" fill-opacity="0.5"/>
<path d="M130.803 394.59C132.064 396.775 134.858 397.523 137.044 396.262C139.229 395 139.977 392.206 138.716 390.021C137.454 387.836 134.66 387.087 132.475 388.349C130.29 389.61 129.541 392.404 130.803 394.59Z" fill="black" fill-opacity="0.5"/>
<path d="M116.351 402.933C117.613 405.118 120.407 405.867 122.592 404.605C124.777 403.344 125.526 400.55 124.264 398.365C123.003 396.18 120.208 395.431 118.023 396.693C115.838 397.954 115.09 400.748 116.351 402.933Z" fill="black" fill-opacity="0.5"/>
<path d="M101.899 411.277C103.161 413.462 105.955 414.211 108.14 412.949C110.325 411.688 111.074 408.893 109.812 406.708C108.551 404.523 105.757 403.775 103.572 405.036C101.387 406.298 100.638 409.092 101.899 411.277Z" fill="black" fill-opacity="0.5"/>
<path d="M87.4478 419.621C88.7094 421.806 91.5035 422.554 93.6886 421.293C95.8737 420.031 96.6223 417.237 95.3608 415.052C94.0992 412.867 91.3051 412.118 89.12 413.38C86.9349 414.641 86.1862 417.435 87.4478 419.621Z" fill="black" fill-opacity="0.5"/>
<path d="M348.496 288.173C349.821 290.469 352.756 291.255 355.052 289.93C357.347 288.605 358.134 285.67 356.808 283.374C355.483 281.079 352.548 280.292 350.253 281.618C347.957 282.943 347.171 285.878 348.496 288.173Z" fill="black" fill-opacity="0.5"/>
<path d="M334.044 296.517C335.37 298.812 338.305 299.599 340.6 298.274C342.895 296.948 343.682 294.013 342.357 291.718C341.031 289.422 338.096 288.636 335.801 289.961C333.506 291.286 332.719 294.222 334.044 296.517Z" fill="black" fill-opacity="0.5"/>
<path d="M319.593 304.861C320.918 307.156 323.853 307.942 326.148 306.617C328.444 305.292 329.23 302.357 327.905 300.061C326.58 297.766 323.645 296.98 321.349 298.305C319.054 299.63 318.267 302.565 319.593 304.861Z" fill="black" fill-opacity="0.5"/>
<path d="M305.141 313.204C306.466 315.5 309.401 316.286 311.697 314.961C313.992 313.636 314.779 310.701 313.453 308.405C312.128 306.11 309.193 305.323 306.898 306.649C304.602 307.974 303.816 310.909 305.141 313.204Z" fill="black" fill-opacity="0.5"/>
<path d="M290.689 321.548C292.015 323.843 294.95 324.63 297.245 323.305C299.54 321.979 300.327 319.044 299.002 316.749C297.676 314.453 294.741 313.667 292.446 314.992C290.151 316.317 289.364 319.253 290.689 321.548Z" fill="black" fill-opacity="0.5"/>
<path d="M276.238 329.892C277.563 332.187 280.498 332.973 282.793 331.648C285.089 330.323 285.875 327.388 284.55 325.093C283.225 322.797 280.29 322.011 277.994 323.336C275.699 324.661 274.912 327.596 276.238 329.892Z" fill="black" fill-opacity="0.5"/>
<path d="M261.786 338.235C263.111 340.531 266.046 341.317 268.342 339.992C270.637 338.667 271.424 335.732 270.098 333.436C268.773 331.141 265.838 330.354 263.543 331.68C261.247 333.005 260.461 335.94 261.786 338.235Z" fill="black" fill-opacity="0.5"/>
<path d="M247.334 346.579C248.66 348.874 251.595 349.661 253.89 348.336C256.185 347.01 256.972 344.075 255.647 341.78C254.321 339.484 251.386 338.698 249.091 340.023C246.796 341.348 246.009 344.284 247.334 346.579Z" fill="black" fill-opacity="0.5"/>
<path d="M232.883 354.923C234.208 357.218 237.143 358.004 239.438 356.679C241.734 355.354 242.52 352.419 241.195 350.124C239.87 347.828 236.935 347.042 234.639 348.367C232.344 349.692 231.557 352.627 232.883 354.923Z" fill="black" fill-opacity="0.5"/>
<path d="M218.431 363.266C219.756 365.562 222.691 366.348 224.987 365.023C227.282 363.698 228.069 360.763 226.743 358.467C225.418 356.172 222.483 355.385 220.188 356.711C217.892 358.036 217.106 360.971 218.431 363.266Z" fill="black" fill-opacity="0.5"/>
<path d="M203.979 371.61C205.305 373.905 208.24 374.692 210.535 373.367C212.83 372.041 213.617 369.106 212.292 366.811C210.966 364.515 208.031 363.729 205.736 365.054C203.441 366.38 202.654 369.315 203.979 371.61Z" fill="black" fill-opacity="0.5"/>
<path d="M189.528 379.954C190.853 382.249 193.788 383.036 196.083 381.71C198.379 380.385 199.165 377.45 197.84 375.155C196.515 372.859 193.58 372.073 191.284 373.398C188.989 374.723 188.202 377.658 189.528 379.954Z" fill="black" fill-opacity="0.5"/>
<path d="M175.076 388.297C176.401 390.593 179.336 391.379 181.632 390.054C183.927 388.729 184.714 385.794 183.388 383.498C182.063 381.203 179.128 380.416 176.833 381.742C174.537 383.067 173.751 386.002 175.076 388.297Z" fill="black" fill-opacity="0.5"/>
<path d="M160.624 396.641C161.95 398.936 164.885 399.723 167.18 398.398C169.475 397.072 170.262 394.137 168.937 391.842C167.611 389.547 164.676 388.76 162.381 390.085C160.086 391.411 159.299 394.346 160.624 396.641Z" fill="black" fill-opacity="0.5"/>
<path d="M146.173 404.985C147.498 407.28 150.433 408.067 152.728 406.741C155.024 405.416 155.81 402.481 154.485 400.186C153.16 397.89 150.225 397.104 147.929 398.429C145.634 399.754 144.847 402.689 146.173 404.985Z" fill="black" fill-opacity="0.5"/>
<path d="M131.721 413.328C133.046 415.624 135.981 416.41 138.277 415.085C140.572 413.76 141.359 410.825 140.033 408.529C138.708 406.234 135.773 405.447 133.478 406.773C131.182 408.098 130.396 411.033 131.721 413.328Z" fill="black" fill-opacity="0.5"/>
<path d="M117.269 421.672C118.595 423.967 121.53 424.754 123.825 423.429C126.12 422.103 126.907 419.168 125.582 416.873C124.256 414.578 121.321 413.791 119.026 415.116C116.731 416.442 115.944 419.377 117.269 421.672Z" fill="black" fill-opacity="0.5"/>
<path d="M102.818 430.016C104.143 432.311 107.078 433.098 109.373 431.772C111.669 430.447 112.455 427.512 111.13 425.217C109.805 422.921 106.87 422.135 104.574 423.46C102.279 424.785 101.492 427.72 102.818 430.016Z" fill="black" fill-opacity="0.5"/>
<path d="M88.366 438.359C89.6912 440.655 92.6263 441.441 94.9217 440.116C97.2171 438.791 98.0035 435.856 96.6783 433.56C95.353 431.265 92.4179 430.478 90.1226 431.804C87.8272 433.129 87.0407 436.064 88.366 438.359Z" fill="black" fill-opacity="0.5"/>
<path d="M363.853 298.576C365.246 300.988 368.331 301.815 370.744 300.422C373.156 299.029 373.983 295.944 372.59 293.531C371.197 291.119 368.112 290.292 365.7 291.685C363.287 293.078 362.46 296.163 363.853 298.576Z" fill="black" fill-opacity="0.5"/>
<path d="M349.402 306.919C350.795 309.332 353.879 310.158 356.292 308.766C358.705 307.373 359.531 304.288 358.138 301.875C356.745 299.463 353.66 298.636 351.248 300.029C348.835 301.422 348.009 304.507 349.402 306.919Z" fill="black" fill-opacity="0.5"/>
<path d="M334.95 315.263C336.343 317.676 339.428 318.502 341.84 317.109C344.253 315.716 345.08 312.631 343.687 310.219C342.294 307.806 339.209 306.98 336.796 308.373C334.384 309.765 333.557 312.85 334.95 315.263Z" fill="black" fill-opacity="0.5"/>
<path d="M320.498 323.607C321.891 326.019 324.976 326.846 327.389 325.453C329.801 324.06 330.628 320.975 329.235 318.562C327.842 316.15 324.757 315.323 322.345 316.716C319.932 318.109 319.105 321.194 320.498 323.607Z" fill="black" fill-opacity="0.5"/>
<path d="M306.047 331.95C307.44 334.363 310.524 335.189 312.937 333.797C315.35 332.404 316.176 329.319 314.783 326.906C313.39 324.494 310.305 323.667 307.893 325.06C305.48 326.453 304.654 329.538 306.047 331.95Z" fill="black" fill-opacity="0.5"/>
<path d="M291.595 340.294C292.988 342.707 296.073 343.533 298.485 342.14C300.898 340.747 301.725 337.662 300.332 335.25C298.939 332.837 295.854 332.011 293.441 333.404C291.029 334.796 290.202 337.881 291.595 340.294Z" fill="black" fill-opacity="0.5"/>
<path d="M277.143 348.638C278.536 351.05 281.621 351.877 284.034 350.484C286.446 349.091 287.273 346.006 285.88 343.594C284.487 341.181 281.402 340.354 278.99 341.747C276.577 343.14 275.75 346.225 277.143 348.638Z" fill="black" fill-opacity="0.5"/>
<path d="M262.692 356.981C264.085 359.394 267.169 360.22 269.582 358.828C271.995 357.435 272.821 354.35 271.428 351.937C270.035 349.525 266.95 348.698 264.538 350.091C262.125 351.484 261.299 354.569 262.692 356.981Z" fill="black" fill-opacity="0.5"/>
<path d="M248.24 365.325C249.633 367.738 252.718 368.564 255.13 367.171C257.543 365.778 258.37 362.693 256.977 360.281C255.584 357.868 252.499 357.042 250.086 358.435C247.674 359.827 246.847 362.912 248.24 365.325Z" fill="black" fill-opacity="0.5"/>
<path d="M233.788 373.669C235.181 376.081 238.266 376.908 240.679 375.515C243.091 374.122 243.918 371.037 242.525 368.625C241.132 366.212 238.047 365.385 235.635 366.778C233.222 368.171 232.395 371.256 233.788 373.669Z" fill="black" fill-opacity="0.5"/>
<path d="M219.337 382.012C220.73 384.425 223.814 385.252 226.227 383.859C228.64 382.466 229.466 379.381 228.073 376.968C226.68 374.556 223.595 373.729 221.183 375.122C218.77 376.515 217.944 379.6 219.337 382.012Z" fill="black" fill-opacity="0.5"/>
<path d="M204.885 390.356C206.278 392.769 209.363 393.595 211.775 392.202C214.188 390.809 215.015 387.724 213.622 385.312C212.229 382.899 209.144 382.073 206.731 383.466C204.319 384.858 203.492 387.943 204.885 390.356Z" fill="black" fill-opacity="0.5"/>
<path d="M190.433 398.7C191.826 401.112 194.911 401.939 197.324 400.546C199.736 399.153 200.563 396.068 199.17 393.656C197.777 391.243 194.692 390.416 192.28 391.809C189.867 393.202 189.04 396.287 190.433 398.7Z" fill="black" fill-opacity="0.5"/>
<path d="M175.982 407.043C177.375 409.456 180.459 410.283 182.872 408.89C185.285 407.497 186.111 404.412 184.718 401.999C183.325 399.587 180.24 398.76 177.828 400.153C175.415 401.546 174.589 404.631 175.982 407.043Z" fill="black" fill-opacity="0.5"/>
<path d="M161.53 415.387C162.923 417.8 166.008 418.626 168.42 417.233C170.833 415.84 171.66 412.755 170.267 410.343C168.874 407.93 165.789 407.104 163.376 408.497C160.964 409.89 160.137 412.974 161.53 415.387Z" fill="black" fill-opacity="0.5"/>
<path d="M147.078 423.731C148.471 426.143 151.556 426.97 153.969 425.577C156.381 424.184 157.208 421.099 155.815 418.687C154.422 416.274 151.337 415.447 148.925 416.84C146.512 418.233 145.685 421.318 147.078 423.731Z" fill="black" fill-opacity="0.5"/>
<path d="M132.627 432.074C134.02 434.487 137.104 435.314 139.517 433.921C141.93 432.528 142.756 429.443 141.363 427.03C139.97 424.618 136.885 423.791 134.473 425.184C132.06 426.577 131.234 429.662 132.627 432.074Z" fill="black" fill-opacity="0.5"/>
<path d="M118.175 440.418C119.568 442.831 122.653 443.657 125.065 442.264C127.478 440.871 128.305 437.786 126.912 435.374C125.519 432.961 122.434 432.135 120.021 433.528C117.609 434.921 116.782 438.005 118.175 440.418Z" fill="black" fill-opacity="0.5"/>
<path d="M103.723 448.762C105.116 451.174 108.201 452.001 110.614 450.608C113.026 449.215 113.853 446.13 112.46 443.718C111.067 441.305 107.982 440.478 105.57 441.871C103.157 443.264 102.33 446.349 103.723 448.762Z" fill="black" fill-opacity="0.5"/>
<path d="M364.759 317.322C366.22 319.851 369.454 320.718 371.984 319.258C374.514 317.797 375.381 314.562 373.92 312.032C372.459 309.503 369.225 308.636 366.695 310.096C364.165 311.557 363.298 314.792 364.759 317.322Z" fill="black" fill-opacity="0.5"/>
<path d="M350.307 325.665C351.768 328.195 355.003 329.062 357.532 327.601C360.062 326.141 360.929 322.906 359.468 320.376C358.008 317.846 354.773 316.98 352.243 318.44C349.713 319.901 348.847 323.135 350.307 325.665Z" fill="black" fill-opacity="0.5"/>
<path d="M335.856 334.009C337.316 336.539 340.551 337.405 343.081 335.945C345.61 334.484 346.477 331.25 345.017 328.72C343.556 326.19 340.321 325.323 337.792 326.784C335.262 328.244 334.395 331.479 335.856 334.009Z" fill="black" fill-opacity="0.5"/>
<path d="M321.404 342.353C322.865 344.882 326.099 345.749 328.629 344.289C331.159 342.828 332.026 339.593 330.565 337.063C329.104 334.534 325.87 333.667 323.34 335.128C320.81 336.588 319.943 339.823 321.404 342.353Z" fill="black" fill-opacity="0.5"/>
<path d="M306.952 350.696C308.413 353.226 311.648 354.093 314.177 352.632C316.707 351.172 317.574 347.937 316.113 345.407C314.653 342.877 311.418 342.011 308.888 343.471C306.358 344.932 305.492 348.167 306.952 350.696Z" fill="black" fill-opacity="0.5"/>
<path d="M292.501 359.04C293.961 361.57 297.196 362.436 299.726 360.976C302.255 359.515 303.122 356.281 301.662 353.751C300.201 351.221 296.966 350.354 294.437 351.815C291.907 353.275 291.04 356.51 292.501 359.04Z" fill="black" fill-opacity="0.5"/>
<path d="M278.049 367.384C279.509 369.913 282.744 370.78 285.274 369.32C287.804 367.859 288.671 364.624 287.21 362.094C285.749 359.565 282.515 358.698 279.985 360.159C277.455 361.619 276.588 364.854 278.049 367.384Z" fill="black" fill-opacity="0.5"/>
<path d="M263.597 375.727C265.058 378.257 268.293 379.124 270.822 377.663C273.352 376.203 274.219 372.968 272.758 370.438C271.298 367.908 268.063 367.042 265.533 368.502C263.003 369.963 262.137 373.198 263.597 375.727Z" fill="black" fill-opacity="0.5"/>
<path d="M249.146 384.071C250.606 386.601 253.841 387.467 256.371 386.007C258.9 384.546 259.767 381.312 258.307 378.782C256.846 376.252 253.611 375.385 251.082 376.846C248.552 378.306 247.685 381.541 249.146 384.071Z" fill="black" fill-opacity="0.5"/>
<path d="M234.694 392.415C236.155 394.944 239.389 395.811 241.919 394.351C244.449 392.89 245.316 389.655 243.855 387.126C242.394 384.596 239.16 383.729 236.63 385.19C234.1 386.65 233.233 389.885 234.694 392.415Z" fill="black" fill-opacity="0.5"/>
<path d="M220.242 400.758C221.703 403.288 224.938 404.155 227.467 402.694C229.997 401.234 230.864 397.999 229.403 395.469C227.943 392.939 224.708 392.073 222.178 393.533C219.648 394.994 218.782 398.229 220.242 400.758Z" fill="black" fill-opacity="0.5"/>
<path d="M205.791 409.102C207.251 411.632 210.486 412.499 213.016 411.038C215.545 409.577 216.412 406.343 214.952 403.813C213.491 401.283 210.256 400.416 207.727 401.877C205.197 403.337 204.33 406.572 205.791 409.102Z" fill="black" fill-opacity="0.5"/>
<path d="M191.339 417.446C192.8 419.975 196.034 420.842 198.564 419.382C201.094 417.921 201.961 414.686 200.5 412.157C199.039 409.627 195.805 408.76 193.275 410.221C190.745 411.681 189.878 414.916 191.339 417.446Z" fill="black" fill-opacity="0.5"/>
<path d="M176.887 425.789C178.348 428.319 181.583 429.186 184.112 427.725C186.642 426.265 187.509 423.03 186.048 420.5C184.588 417.97 181.353 417.104 178.823 418.564C176.293 420.025 175.427 423.26 176.887 425.789Z" fill="black" fill-opacity="0.5"/>
<path d="M162.436 434.133C163.896 436.663 167.131 437.53 169.661 436.069C172.19 434.608 173.057 431.374 171.597 428.844C170.136 426.314 166.901 425.447 164.372 426.908C161.842 428.368 160.975 431.603 162.436 434.133Z" fill="black" fill-opacity="0.5"/>
<path d="M147.984 442.477C149.445 445.006 152.679 445.873 155.209 444.413C157.739 442.952 158.606 439.717 157.145 437.188C155.684 434.658 152.45 433.791 149.92 435.252C147.39 436.712 146.523 439.947 147.984 442.477Z" fill="black" fill-opacity="0.5"/>
<path d="M133.532 450.82C134.993 453.35 138.228 454.217 140.757 452.756C143.287 451.296 144.154 448.061 142.693 445.531C141.233 443.001 137.998 442.135 135.468 443.595C132.938 445.056 132.072 448.291 133.532 450.82Z" fill="black" fill-opacity="0.5"/>
<path d="M119.081 459.164C120.541 461.694 123.776 462.561 126.306 461.1C128.835 459.639 129.702 456.405 128.242 453.875C126.781 451.345 123.546 450.478 121.017 451.939C118.487 453.4 117.62 456.634 119.081 459.164Z" fill="black" fill-opacity="0.5"/>
<path d="M104.629 467.508C106.089 470.037 109.324 470.904 111.854 469.444C114.384 467.983 115.251 464.748 113.79 462.219C112.329 459.689 109.095 458.822 106.565 460.283C104.035 461.743 103.168 464.978 104.629 467.508Z" fill="black" fill-opacity="0.5"/>
<path d="M380.129 327.717C381.653 330.357 385.029 331.261 387.669 329.737C390.309 328.213 391.213 324.837 389.689 322.197C388.165 319.557 384.789 318.652 382.149 320.177C379.509 321.701 378.605 325.077 380.129 327.717Z" fill="black" fill-opacity="0.5"/>
<path d="M365.677 336.06C367.201 338.7 370.577 339.605 373.217 338.081C375.857 336.557 376.762 333.181 375.238 330.541C373.713 327.901 370.337 326.996 367.697 328.52C365.057 330.045 364.153 333.42 365.677 336.06Z" fill="black" fill-opacity="0.5"/>
<path d="M351.225 344.404C352.75 347.044 356.125 347.949 358.766 346.424C361.406 344.9 362.31 341.524 360.786 338.884C359.262 336.244 355.886 335.34 353.246 336.864C350.606 338.388 349.701 341.764 351.225 344.404Z" fill="black" fill-opacity="0.5"/>
<path d="M336.774 352.748C338.298 355.388 341.674 356.292 344.314 354.768C346.954 353.244 347.858 349.868 346.334 347.228C344.81 344.588 341.434 343.683 338.794 345.208C336.154 346.732 335.25 350.108 336.774 352.748Z" fill="black" fill-opacity="0.5"/>
<path d="M322.322 361.091C323.846 363.731 327.222 364.636 329.862 363.112C332.502 361.588 333.407 358.212 331.883 355.572C330.358 352.932 326.982 352.027 324.342 353.551C321.702 355.076 320.798 358.451 322.322 361.091Z" fill="black" fill-opacity="0.5"/>
<path d="M307.87 369.435C309.395 372.075 312.77 372.98 315.411 371.455C318.051 369.931 318.955 366.555 317.431 363.915C315.907 361.275 312.531 360.371 309.891 361.895C307.251 363.419 306.346 366.795 307.87 369.435Z" fill="black" fill-opacity="0.5"/>
<path d="M293.419 377.779C294.943 380.419 298.319 381.323 300.959 379.799C303.599 378.275 304.503 374.899 302.979 372.259C301.455 369.619 298.079 368.714 295.439 370.239C292.799 371.763 291.895 375.139 293.419 377.779Z" fill="black" fill-opacity="0.5"/>
<path d="M278.967 386.122C280.491 388.762 283.867 389.667 286.507 388.143C289.147 386.619 290.052 383.243 288.528 380.603C287.003 377.963 283.628 377.058 280.987 378.582C278.347 380.107 277.443 383.482 278.967 386.122Z" fill="black" fill-opacity="0.5"/>
<path d="M264.515 394.466C266.04 397.106 269.415 398.011 272.056 396.486C274.696 394.962 275.6 391.586 274.076 388.946C272.552 386.306 269.176 385.402 266.536 386.926C263.896 388.45 262.991 391.826 264.515 394.466Z" fill="black" fill-opacity="0.5"/>
<path d="M250.064 402.81C251.588 405.45 254.964 406.354 257.604 404.83C260.244 403.306 261.148 399.93 259.624 397.29C258.1 394.65 254.724 393.745 252.084 395.27C249.444 396.794 248.54 400.17 250.064 402.81Z" fill="black" fill-opacity="0.5"/>
<path d="M235.612 411.153C237.136 413.793 240.512 414.698 243.152 413.174C245.792 411.65 246.697 408.274 245.173 405.634C243.648 402.994 240.272 402.089 237.632 403.613C234.992 405.138 234.088 408.513 235.612 411.153Z" fill="black" fill-opacity="0.5"/>
<path d="M221.16 419.497C222.685 422.137 226.06 423.042 228.701 421.517C231.341 419.993 232.245 416.617 230.721 413.977C229.197 411.337 225.821 410.433 223.181 411.957C220.541 413.481 219.636 416.857 221.16 419.497Z" fill="black" fill-opacity="0.5"/>
<path d="M206.709 427.841C208.233 430.481 211.609 431.385 214.249 429.861C216.889 428.337 217.793 424.961 216.269 422.321C214.745 419.681 211.369 418.776 208.729 420.301C206.089 421.825 205.185 425.201 206.709 427.841Z" fill="black" fill-opacity="0.5"/>
<path d="M192.257 436.184C193.781 438.825 197.157 439.729 199.797 438.205C202.437 436.681 203.342 433.305 201.818 430.665C200.293 428.025 196.917 427.12 194.277 428.644C191.637 430.169 190.733 433.544 192.257 436.184Z" fill="black" fill-opacity="0.5"/>
<path d="M177.805 444.528C179.33 447.168 182.705 448.073 185.346 446.548C187.986 445.024 188.89 441.648 187.366 439.008C185.842 436.368 182.466 435.464 179.826 436.988C177.186 438.512 176.281 441.888 177.805 444.528Z" fill="black" fill-opacity="0.5"/>
<path d="M163.354 452.872C164.878 455.512 168.254 456.416 170.894 454.892C173.534 453.368 174.438 449.992 172.914 447.352C171.39 444.712 168.014 443.808 165.374 445.332C162.734 446.856 161.83 450.232 163.354 452.872Z" fill="black" fill-opacity="0.5"/>
<path d="M148.902 461.215C150.426 463.856 153.802 464.76 156.442 463.236C159.082 461.712 159.987 458.336 158.463 455.696C156.938 453.056 153.562 452.151 150.922 453.675C148.282 455.2 147.378 458.575 148.902 461.215Z" fill="black" fill-opacity="0.5"/>
<path d="M134.45 469.559C135.975 472.199 139.35 473.104 141.99 471.58C144.631 470.055 145.535 466.679 144.011 464.039C142.487 461.399 139.111 460.495 136.471 462.019C133.831 463.543 132.926 466.919 134.45 469.559Z" fill="black" fill-opacity="0.5"/>
<path d="M119.999 477.903C121.523 480.543 124.899 481.447 127.539 479.923C130.179 478.399 131.083 475.023 129.559 472.383C128.035 469.743 124.659 468.839 122.019 470.363C119.379 471.887 118.475 475.263 119.999 477.903Z" fill="black" fill-opacity="0.5"/>
<path d="M381.034 346.463C382.626 349.22 386.152 350.165 388.909 348.573C391.666 346.981 392.611 343.455 391.019 340.698C389.427 337.941 385.902 336.996 383.144 338.588C380.387 340.18 379.443 343.705 381.034 346.463Z" fill="black" fill-opacity="0.5"/>
<path d="M366.583 354.806C368.175 357.564 371.7 358.508 374.458 356.916C377.215 355.325 378.159 351.799 376.568 349.042C374.976 346.284 371.45 345.34 368.693 346.932C365.936 348.524 364.991 352.049 366.583 354.806Z" fill="black" fill-opacity="0.5"/>
<path d="M352.131 363.15C353.723 365.907 357.249 366.852 360.006 365.26C362.763 363.668 363.708 360.143 362.116 357.385C360.524 354.628 356.998 353.683 354.241 355.275C351.484 356.867 350.539 360.393 352.131 363.15Z" fill="black" fill-opacity="0.5"/>
<path d="M337.679 371.494C339.271 374.251 342.797 375.196 345.554 373.604C348.311 372.012 349.256 368.486 347.664 365.729C346.072 362.972 342.547 362.027 339.789 363.619C337.032 365.211 336.088 368.737 337.679 371.494Z" fill="black" fill-opacity="0.5"/>
<path d="M323.228 379.837C324.82 382.595 328.345 383.539 331.103 381.947C333.86 380.356 334.804 376.83 333.213 374.073C331.621 371.315 328.095 370.371 325.338 371.963C322.581 373.555 321.636 377.08 323.228 379.837Z" fill="black" fill-opacity="0.5"/>
<path d="M308.776 388.181C310.368 390.938 313.894 391.883 316.651 390.291C319.408 388.699 320.353 385.174 318.761 382.416C317.169 379.659 313.643 378.714 310.886 380.306C308.129 381.898 307.184 385.424 308.776 388.181Z" fill="black" fill-opacity="0.5"/>
<path d="M294.324 396.525C295.916 399.282 299.442 400.227 302.199 398.635C304.956 397.043 305.901 393.517 304.309 390.76C302.717 388.003 299.192 387.058 296.434 388.65C293.677 390.242 292.733 393.768 294.324 396.525Z" fill="black" fill-opacity="0.5"/>
<path d="M279.873 404.868C281.465 407.626 284.99 408.57 287.748 406.978C290.505 405.387 291.449 401.861 289.858 399.104C288.266 396.346 284.74 395.402 281.983 396.994C279.226 398.586 278.281 402.111 279.873 404.868Z" fill="black" fill-opacity="0.5"/>
<path d="M265.421 413.212C267.013 415.969 270.539 416.914 273.296 415.322C276.053 413.73 276.998 410.205 275.406 407.447C273.814 404.69 270.288 403.745 267.531 405.337C264.774 406.929 263.829 410.455 265.421 413.212Z" fill="black" fill-opacity="0.5"/>
<path d="M250.969 421.556C252.561 424.313 256.087 425.258 258.844 423.666C261.601 422.074 262.546 418.548 260.954 415.791C259.362 413.034 255.837 412.089 253.079 413.681C250.322 415.273 249.378 418.799 250.969 421.556Z" fill="black" fill-opacity="0.5"/>
<path d="M236.518 429.899C238.11 432.657 241.635 433.601 244.393 432.009C247.15 430.418 248.094 426.892 246.503 424.135C244.911 421.378 241.385 420.433 238.628 422.025C235.871 423.617 234.926 427.142 236.518 429.899Z" fill="black" fill-opacity="0.5"/>
<path d="M222.066 438.243C223.658 441 227.184 441.945 229.941 440.353C232.698 438.761 233.643 435.236 232.051 432.478C230.459 429.721 226.933 428.776 224.176 430.368C221.419 431.96 220.474 435.486 222.066 438.243Z" fill="black" fill-opacity="0.5"/>
<path d="M207.614 446.587C209.206 449.344 212.732 450.289 215.489 448.697C218.246 447.105 219.191 443.579 217.599 440.822C216.007 438.065 212.482 437.12 209.724 438.712C206.967 440.304 206.023 443.83 207.614 446.587Z" fill="black" fill-opacity="0.5"/>
<path d="M193.163 454.93C194.755 457.688 198.28 458.632 201.038 457.041C203.795 455.449 204.739 451.923 203.148 449.166C201.556 446.409 198.03 445.464 195.273 447.056C192.516 448.648 191.571 452.173 193.163 454.93Z" fill="black" fill-opacity="0.5"/>
<path d="M178.711 463.274C180.303 466.031 183.829 466.976 186.586 465.384C189.343 463.792 190.288 460.267 188.696 457.509C187.104 454.752 183.578 453.808 180.821 455.399C178.064 456.991 177.119 460.517 178.711 463.274Z" fill="black" fill-opacity="0.5"/>
<path d="M164.259 471.618C165.851 474.375 169.377 475.32 172.134 473.728C174.891 472.136 175.836 468.61 174.244 465.853C172.652 463.096 169.127 462.151 166.369 463.743C163.612 465.335 162.668 468.861 164.259 471.618Z" fill="black" fill-opacity="0.5"/>
<path d="M149.808 479.961C151.4 482.719 154.925 483.663 157.683 482.072C160.44 480.48 161.384 476.954 159.793 474.197C158.201 471.44 154.675 470.495 151.918 472.087C149.161 473.679 148.216 477.204 149.808 479.961Z" fill="black" fill-opacity="0.5"/>
<path d="M135.356 488.305C136.948 491.062 140.474 492.007 143.231 490.415C145.988 488.823 146.933 485.298 145.341 482.54C143.749 479.783 140.223 478.839 137.466 480.43C134.709 482.022 133.764 485.548 135.356 488.305Z" fill="black" fill-opacity="0.5"/>
<path d="M120.904 496.649C122.496 499.406 126.022 500.351 128.779 498.759C131.536 497.167 132.481 493.641 130.889 490.884C129.297 488.127 125.772 487.182 123.014 488.774C120.257 490.366 119.313 493.892 120.904 496.649Z" fill="black" fill-opacity="0.5"/>
<path d="M396.392 356.865C398.051 359.739 401.727 360.724 404.601 359.065C407.476 357.405 408.46 353.73 406.801 350.855C405.141 347.981 401.466 346.996 398.591 348.656C395.717 350.315 394.732 353.991 396.392 356.865Z" fill="black" fill-opacity="0.5"/>
<path d="M381.94 365.209C383.6 368.083 387.275 369.068 390.15 367.408C393.024 365.749 394.009 362.073 392.349 359.199C390.69 356.325 387.014 355.34 384.14 356.999C381.265 358.659 380.281 362.334 381.94 365.209Z" fill="black" fill-opacity="0.5"/>
<path d="M367.488 373.552C369.148 376.427 372.823 377.412 375.698 375.752C378.572 374.093 379.557 370.417 377.898 367.543C376.238 364.668 372.563 363.683 369.688 365.343C366.814 367.002 365.829 370.678 367.488 373.552Z" fill="black" fill-opacity="0.5"/>
<path d="M353.037 381.896C354.696 384.77 358.372 385.755 361.246 384.096C364.121 382.436 365.105 378.761 363.446 375.886C361.786 373.012 358.111 372.027 355.236 373.687C352.362 375.346 351.377 379.022 353.037 381.896Z" fill="black" fill-opacity="0.5"/>
<path d="M338.585 390.24C340.245 393.114 343.92 394.099 346.795 392.439C349.669 390.78 350.654 387.104 348.994 384.23C347.335 381.356 343.659 380.371 340.785 382.03C337.91 383.69 336.926 387.365 338.585 390.24Z" fill="black" fill-opacity="0.5"/>
<path d="M324.133 398.583C325.793 401.458 329.468 402.443 332.343 400.783C335.217 399.124 336.202 395.448 334.543 392.574C332.883 389.699 329.208 388.714 326.333 390.374C323.459 392.034 322.474 395.709 324.133 398.583Z" fill="black" fill-opacity="0.5"/>
<path d="M309.682 406.927C311.341 409.801 315.017 410.786 317.891 409.127C320.766 407.467 321.75 403.792 320.091 400.917C318.431 398.043 314.756 397.058 311.881 398.718C309.007 400.377 308.022 404.053 309.682 406.927Z" fill="black" fill-opacity="0.5"/>
<path d="M295.23 415.271C296.89 418.145 300.565 419.13 303.44 417.47C306.314 415.811 307.299 412.135 305.639 409.261C303.98 406.387 300.304 405.402 297.43 407.061C294.555 408.721 293.571 412.396 295.23 415.271Z" fill="black" fill-opacity="0.5"/>
<path d="M280.778 423.614C282.438 426.489 286.113 427.474 288.988 425.814C291.862 424.155 292.847 420.479 291.188 417.605C289.528 414.73 285.853 413.745 282.978 415.405C280.104 417.065 279.119 420.74 280.778 423.614Z" fill="black" fill-opacity="0.5"/>
<path d="M266.327 431.958C267.986 434.833 271.662 435.817 274.536 434.158C277.411 432.498 278.395 428.823 276.736 425.948C275.076 423.074 271.401 422.089 268.526 423.749C265.652 425.408 264.667 429.084 266.327 431.958Z" fill="black" fill-opacity="0.5"/>
<path d="M251.875 440.302C253.535 443.176 257.21 444.161 260.085 442.501C262.959 440.842 263.944 437.166 262.284 434.292C260.625 431.418 256.949 430.433 254.075 432.092C251.2 433.752 250.216 437.427 251.875 440.302Z" fill="black" fill-opacity="0.5"/>
<path d="M237.423 448.645C239.083 451.52 242.758 452.505 245.633 450.845C248.507 449.186 249.492 445.51 247.833 442.636C246.173 439.761 242.498 438.776 239.623 440.436C236.749 442.096 235.764 445.771 237.423 448.645Z" fill="black" fill-opacity="0.5"/>
<path d="M222.972 456.989C224.631 459.864 228.307 460.848 231.181 459.189C234.056 457.529 235.04 453.854 233.381 450.979C231.721 448.105 228.046 447.12 225.171 448.78C222.297 450.439 221.312 454.115 222.972 456.989Z" fill="black" fill-opacity="0.5"/>
<path d="M208.52 465.333C210.18 468.207 213.855 469.192 216.73 467.533C219.604 465.873 220.589 462.197 218.929 459.323C217.27 456.449 213.594 455.464 210.72 457.123C207.845 458.783 206.861 462.458 208.52 465.333Z" fill="black" fill-opacity="0.5"/>
<path d="M194.068 473.676C195.728 476.551 199.403 477.536 202.278 475.876C205.152 474.217 206.137 470.541 204.478 467.667C202.818 464.792 199.143 463.808 196.268 465.467C193.394 467.127 192.409 470.802 194.068 473.676Z" fill="black" fill-opacity="0.5"/>
<path d="M179.617 482.02C181.276 484.895 184.952 485.879 187.826 484.22C190.701 482.56 191.685 478.885 190.026 476.01C188.366 473.136 184.691 472.151 181.816 473.811C178.942 475.47 177.957 479.146 179.617 482.02Z" fill="black" fill-opacity="0.5"/>
<path d="M165.165 490.364C166.825 493.238 170.5 494.223 173.375 492.564C176.249 490.904 177.234 487.229 175.574 484.354C173.915 481.48 170.239 480.495 167.365 482.154C164.49 483.814 163.506 487.489 165.165 490.364Z" fill="black" fill-opacity="0.5"/>
<path d="M150.713 498.707C152.373 501.582 156.048 502.567 158.923 500.907C161.797 499.248 162.782 495.572 161.123 492.698C159.463 489.823 155.788 488.839 152.913 490.498C150.039 492.158 149.054 495.833 150.713 498.707Z" fill="black" fill-opacity="0.5"/>
<path d="M136.262 507.051C137.921 509.926 141.597 510.91 144.471 509.251C147.346 507.591 148.33 503.916 146.671 501.041C145.011 498.167 141.336 497.182 138.461 498.842C135.587 500.501 134.602 504.177 136.262 507.051Z" fill="black" fill-opacity="0.5"/>
<path d="M397.31 375.604C399.033 378.589 402.85 379.611 405.834 377.888C408.819 376.165 409.842 372.348 408.118 369.364C406.395 366.379 402.579 365.356 399.594 367.079C396.609 368.803 395.587 372.619 397.31 375.604Z" fill="black" fill-opacity="0.5"/>
<path d="M382.858 383.948C384.581 386.932 388.398 387.955 391.383 386.232C394.367 384.508 395.39 380.692 393.667 377.707C391.944 374.723 388.127 373.7 385.142 375.423C382.158 377.146 381.135 380.963 382.858 383.948Z" fill="black" fill-opacity="0.5"/>
<path d="M368.407 392.291C370.13 395.276 373.946 396.299 376.931 394.575C379.916 392.852 380.938 389.036 379.215 386.051C377.492 383.066 373.675 382.044 370.691 383.767C367.706 385.49 366.683 389.306 368.407 392.291Z" fill="black" fill-opacity="0.5"/>
<path d="M353.955 400.635C355.678 403.62 359.495 404.642 362.479 402.919C365.464 401.196 366.487 397.379 364.763 394.395C363.04 391.41 359.224 390.387 356.239 392.11C353.254 393.834 352.232 397.65 353.955 400.635Z" fill="black" fill-opacity="0.5"/>
<path d="M339.503 408.979C341.226 411.963 345.043 412.986 348.028 411.263C351.012 409.539 352.035 405.723 350.312 402.738C348.589 399.754 344.772 398.731 341.787 400.454C338.803 402.177 337.78 405.994 339.503 408.979Z" fill="black" fill-opacity="0.5"/>
<path d="M325.052 417.322C326.775 420.307 330.591 421.33 333.576 419.606C336.561 417.883 337.583 414.067 335.86 411.082C334.137 408.097 330.32 407.075 327.336 408.798C324.351 410.521 323.328 414.338 325.052 417.322Z" fill="black" fill-opacity="0.5"/>
<path d="M310.6 425.666C312.323 428.651 316.14 429.673 319.124 427.95C322.109 426.227 323.132 422.41 321.408 419.426C319.685 416.441 315.869 415.418 312.884 417.141C309.899 418.865 308.877 422.681 310.6 425.666Z" fill="black" fill-opacity="0.5"/>
<path d="M296.148 434.01C297.871 436.994 301.688 438.017 304.673 436.294C307.657 434.57 308.68 430.754 306.957 427.769C305.234 424.785 301.417 423.762 298.432 425.485C295.448 427.208 294.425 431.025 296.148 434.01Z" fill="black" fill-opacity="0.5"/>
<path d="M281.697 442.353C283.42 445.338 287.236 446.361 290.221 444.637C293.206 442.914 294.228 439.098 292.505 436.113C290.782 433.128 286.965 432.106 283.981 433.829C280.996 435.552 279.973 439.369 281.697 442.353Z" fill="black" fill-opacity="0.5"/>
<path d="M267.245 450.697C268.968 453.682 272.785 454.704 275.769 452.981C278.754 451.258 279.777 447.441 278.053 444.457C276.33 441.472 272.514 440.449 269.529 442.172C266.544 443.896 265.522 447.712 267.245 450.697Z" fill="black" fill-opacity="0.5"/>
<path d="M252.793 459.041C254.516 462.025 258.333 463.048 261.318 461.325C264.302 459.601 265.325 455.785 263.602 452.8C261.879 449.816 258.062 448.793 255.077 450.516C252.093 452.239 251.07 456.056 252.793 459.041Z" fill="black" fill-opacity="0.5"/>
<path d="M238.342 467.384C240.065 470.369 243.881 471.392 246.866 469.668C249.851 467.945 250.873 464.129 249.15 461.144C247.427 458.159 243.61 457.137 240.626 458.86C237.641 460.583 236.618 464.4 238.342 467.384Z" fill="black" fill-opacity="0.5"/>
<path d="M223.89 475.728C225.613 478.713 229.43 479.735 232.414 478.012C235.399 476.289 236.422 472.472 234.698 469.488C232.975 466.503 229.159 465.48 226.174 467.204C223.189 468.927 222.167 472.743 223.89 475.728Z" fill="black" fill-opacity="0.5"/>
<path d="M209.438 484.072C211.161 487.056 214.978 488.079 217.963 486.356C220.947 484.633 221.97 480.816 220.247 477.831C218.524 474.847 214.707 473.824 211.722 475.547C208.738 477.27 207.715 481.087 209.438 484.072Z" fill="black" fill-opacity="0.5"/>
<path d="M194.987 492.415C196.71 495.4 200.526 496.423 203.511 494.699C206.496 492.976 207.518 489.16 205.795 486.175C204.072 483.19 200.255 482.168 197.271 483.891C194.286 485.614 193.263 489.431 194.987 492.415Z" fill="black" fill-opacity="0.5"/>
<path d="M180.535 500.759C182.258 503.744 186.075 504.766 189.059 503.043C192.044 501.32 193.067 497.503 191.343 494.519C189.62 491.534 185.804 490.511 182.819 492.235C179.834 493.958 178.812 497.774 180.535 500.759Z" fill="black" fill-opacity="0.5"/>
<path d="M166.083 509.103C167.806 512.087 171.623 513.11 174.608 511.387C177.592 509.664 178.615 505.847 176.892 502.862C175.169 499.878 171.352 498.855 168.367 500.578C165.383 502.301 164.36 506.118 166.083 509.103Z" fill="black" fill-opacity="0.5"/>
<path d="M151.632 517.446C153.355 520.431 157.171 521.454 160.156 519.73C163.141 518.007 164.163 514.191 162.44 511.206C160.717 508.221 156.9 507.199 153.916 508.922C150.931 510.645 149.908 514.462 151.632 517.446Z" fill="black" fill-opacity="0.5"/>
<path d="M137.18 525.79C138.903 528.775 142.72 529.797 145.704 528.074C148.689 526.351 149.712 522.534 147.988 519.55C146.265 516.565 142.449 515.542 139.464 517.266C136.479 518.989 135.457 522.805 137.18 525.79Z" fill="black" fill-opacity="0.5"/>
</g>
<defs>
<clipPath id="clip0_12:85">
<rect width="264" height="264" fill="white"/>
</clipPath>
</defs>
</svg>
